G04 EAGLE Gerber RS-274X export*
G75*
%MOMM*%
%FSLAX34Y34*%
%LPD*%
%INTop Copper*%
%IPPOS*%
%AMOC8*
5,1,8,0,0,1.08239X$1,22.5*%
G01*
%ADD10C,0.101600*%
%ADD11C,0.130000*%
%ADD12C,0.104000*%
%ADD13C,0.120000*%
%ADD14C,0.160000*%
%ADD15C,0.105000*%
%ADD16C,0.102438*%
%ADD17R,2.032000X2.032000*%
%ADD18C,2.032000*%
%ADD19C,1.879600*%
%ADD20C,0.508000*%
%ADD21C,0.406400*%
%ADD22C,1.762000*%
%ADD23C,0.812800*%
%ADD24C,0.609600*%


D10*
X38608Y318008D02*
X50292Y321903D01*
X38608Y325797D01*
X38608Y331047D02*
X50292Y331047D01*
X50292Y332345D02*
X50292Y329748D01*
X38608Y329748D02*
X38608Y332345D01*
X38608Y337326D02*
X50292Y337326D01*
X50292Y343817D02*
X38608Y337326D01*
X38608Y343817D02*
X50292Y343817D01*
X69201Y324499D02*
X69201Y322552D01*
X69201Y324499D02*
X75692Y324499D01*
X75692Y320604D01*
X75690Y320505D01*
X75684Y320405D01*
X75675Y320306D01*
X75662Y320208D01*
X75645Y320110D01*
X75624Y320012D01*
X75599Y319916D01*
X75571Y319821D01*
X75539Y319727D01*
X75504Y319634D01*
X75465Y319542D01*
X75422Y319452D01*
X75377Y319364D01*
X75327Y319277D01*
X75275Y319193D01*
X75219Y319110D01*
X75161Y319030D01*
X75099Y318952D01*
X75034Y318877D01*
X74966Y318804D01*
X74896Y318734D01*
X74823Y318666D01*
X74748Y318601D01*
X74670Y318539D01*
X74590Y318481D01*
X74507Y318425D01*
X74423Y318373D01*
X74336Y318323D01*
X74248Y318278D01*
X74158Y318235D01*
X74066Y318196D01*
X73973Y318161D01*
X73879Y318129D01*
X73784Y318101D01*
X73688Y318076D01*
X73590Y318055D01*
X73492Y318038D01*
X73394Y318025D01*
X73295Y318016D01*
X73195Y318010D01*
X73096Y318008D01*
X66604Y318008D01*
X66505Y318010D01*
X66405Y318016D01*
X66306Y318025D01*
X66208Y318038D01*
X66110Y318056D01*
X66012Y318076D01*
X65916Y318101D01*
X65820Y318129D01*
X65726Y318161D01*
X65633Y318196D01*
X65542Y318235D01*
X65452Y318278D01*
X65363Y318323D01*
X65277Y318373D01*
X65192Y318425D01*
X65110Y318481D01*
X65030Y318540D01*
X64952Y318601D01*
X64876Y318666D01*
X64803Y318734D01*
X64733Y318804D01*
X64665Y318877D01*
X64600Y318953D01*
X64539Y319031D01*
X64480Y319111D01*
X64424Y319193D01*
X64372Y319278D01*
X64323Y319364D01*
X64277Y319453D01*
X64234Y319543D01*
X64195Y319634D01*
X64160Y319727D01*
X64128Y319821D01*
X64100Y319917D01*
X64075Y320013D01*
X64055Y320111D01*
X64037Y320209D01*
X64024Y320307D01*
X64015Y320406D01*
X64009Y320505D01*
X64007Y320605D01*
X64008Y320604D02*
X64008Y324499D01*
X64008Y330200D02*
X75692Y330200D01*
X75692Y336691D02*
X64008Y330200D01*
X64008Y336691D02*
X75692Y336691D01*
X75692Y342392D02*
X64008Y342392D01*
X64008Y345637D01*
X64010Y345750D01*
X64016Y345863D01*
X64026Y345976D01*
X64040Y346089D01*
X64057Y346201D01*
X64079Y346312D01*
X64104Y346422D01*
X64134Y346532D01*
X64167Y346640D01*
X64204Y346747D01*
X64244Y346853D01*
X64289Y346957D01*
X64337Y347060D01*
X64388Y347161D01*
X64443Y347260D01*
X64501Y347357D01*
X64563Y347452D01*
X64628Y347545D01*
X64696Y347635D01*
X64767Y347723D01*
X64842Y347809D01*
X64919Y347892D01*
X64999Y347972D01*
X65082Y348049D01*
X65168Y348124D01*
X65256Y348195D01*
X65346Y348263D01*
X65439Y348328D01*
X65534Y348390D01*
X65631Y348448D01*
X65730Y348503D01*
X65831Y348554D01*
X65934Y348602D01*
X66038Y348647D01*
X66144Y348687D01*
X66251Y348724D01*
X66359Y348757D01*
X66469Y348787D01*
X66579Y348812D01*
X66690Y348834D01*
X66802Y348851D01*
X66915Y348865D01*
X67028Y348875D01*
X67141Y348881D01*
X67254Y348883D01*
X72446Y348883D01*
X72446Y348884D02*
X72559Y348882D01*
X72672Y348876D01*
X72785Y348866D01*
X72898Y348852D01*
X73010Y348835D01*
X73121Y348813D01*
X73231Y348788D01*
X73341Y348758D01*
X73449Y348725D01*
X73556Y348688D01*
X73662Y348648D01*
X73766Y348603D01*
X73869Y348555D01*
X73970Y348504D01*
X74069Y348449D01*
X74166Y348391D01*
X74261Y348329D01*
X74354Y348264D01*
X74444Y348196D01*
X74532Y348125D01*
X74618Y348050D01*
X74701Y347973D01*
X74781Y347893D01*
X74858Y347810D01*
X74933Y347724D01*
X75004Y347636D01*
X75072Y347546D01*
X75137Y347453D01*
X75199Y347358D01*
X75257Y347261D01*
X75312Y347162D01*
X75363Y347061D01*
X75411Y346958D01*
X75456Y346854D01*
X75496Y346748D01*
X75533Y346641D01*
X75566Y346533D01*
X75596Y346423D01*
X75621Y346313D01*
X75643Y346202D01*
X75660Y346090D01*
X75674Y345977D01*
X75684Y345864D01*
X75690Y345751D01*
X75692Y345638D01*
X75692Y345637D02*
X75692Y342392D01*
X89408Y318008D02*
X101092Y321903D01*
X89408Y325797D01*
X89408Y330468D02*
X101092Y330468D01*
X89408Y330468D02*
X89408Y333714D01*
X89410Y333827D01*
X89416Y333940D01*
X89426Y334053D01*
X89440Y334166D01*
X89457Y334278D01*
X89479Y334389D01*
X89504Y334499D01*
X89534Y334609D01*
X89567Y334717D01*
X89604Y334824D01*
X89644Y334930D01*
X89689Y335034D01*
X89737Y335137D01*
X89788Y335238D01*
X89843Y335337D01*
X89901Y335434D01*
X89963Y335529D01*
X90028Y335622D01*
X90096Y335712D01*
X90167Y335800D01*
X90242Y335886D01*
X90319Y335969D01*
X90399Y336049D01*
X90482Y336126D01*
X90568Y336201D01*
X90656Y336272D01*
X90746Y336340D01*
X90839Y336405D01*
X90934Y336467D01*
X91031Y336525D01*
X91130Y336580D01*
X91231Y336631D01*
X91334Y336679D01*
X91438Y336724D01*
X91544Y336764D01*
X91651Y336801D01*
X91759Y336834D01*
X91869Y336864D01*
X91979Y336889D01*
X92090Y336911D01*
X92202Y336928D01*
X92315Y336942D01*
X92428Y336952D01*
X92541Y336958D01*
X92654Y336960D01*
X92654Y336959D02*
X97846Y336959D01*
X97846Y336960D02*
X97959Y336958D01*
X98072Y336952D01*
X98185Y336942D01*
X98298Y336928D01*
X98410Y336911D01*
X98521Y336889D01*
X98631Y336864D01*
X98741Y336834D01*
X98849Y336801D01*
X98956Y336764D01*
X99062Y336724D01*
X99166Y336679D01*
X99269Y336631D01*
X99370Y336580D01*
X99469Y336525D01*
X99566Y336467D01*
X99661Y336405D01*
X99754Y336340D01*
X99844Y336272D01*
X99932Y336201D01*
X100018Y336126D01*
X100101Y336049D01*
X100181Y335969D01*
X100258Y335886D01*
X100333Y335800D01*
X100404Y335712D01*
X100472Y335622D01*
X100537Y335529D01*
X100599Y335434D01*
X100657Y335337D01*
X100712Y335238D01*
X100763Y335137D01*
X100811Y335034D01*
X100856Y334930D01*
X100896Y334824D01*
X100933Y334717D01*
X100966Y334609D01*
X100996Y334499D01*
X101021Y334389D01*
X101043Y334278D01*
X101060Y334166D01*
X101074Y334053D01*
X101084Y333940D01*
X101090Y333827D01*
X101092Y333714D01*
X101092Y330468D01*
X101092Y342660D02*
X89408Y342660D01*
X89408Y345906D01*
X89410Y346019D01*
X89416Y346132D01*
X89426Y346245D01*
X89440Y346358D01*
X89457Y346470D01*
X89479Y346581D01*
X89504Y346691D01*
X89534Y346801D01*
X89567Y346909D01*
X89604Y347016D01*
X89644Y347122D01*
X89689Y347226D01*
X89737Y347329D01*
X89788Y347430D01*
X89843Y347529D01*
X89901Y347626D01*
X89963Y347721D01*
X90028Y347814D01*
X90096Y347904D01*
X90167Y347992D01*
X90242Y348078D01*
X90319Y348161D01*
X90399Y348241D01*
X90482Y348318D01*
X90568Y348393D01*
X90656Y348464D01*
X90746Y348532D01*
X90839Y348597D01*
X90934Y348659D01*
X91031Y348717D01*
X91130Y348772D01*
X91231Y348823D01*
X91334Y348871D01*
X91438Y348916D01*
X91544Y348956D01*
X91651Y348993D01*
X91759Y349026D01*
X91869Y349056D01*
X91979Y349081D01*
X92090Y349103D01*
X92202Y349120D01*
X92315Y349134D01*
X92428Y349144D01*
X92541Y349150D01*
X92654Y349152D01*
X92654Y349151D02*
X97846Y349151D01*
X97846Y349152D02*
X97959Y349150D01*
X98072Y349144D01*
X98185Y349134D01*
X98298Y349120D01*
X98410Y349103D01*
X98521Y349081D01*
X98631Y349056D01*
X98741Y349026D01*
X98849Y348993D01*
X98956Y348956D01*
X99062Y348916D01*
X99166Y348871D01*
X99269Y348823D01*
X99370Y348772D01*
X99469Y348717D01*
X99566Y348659D01*
X99661Y348597D01*
X99754Y348532D01*
X99844Y348464D01*
X99932Y348393D01*
X100018Y348318D01*
X100101Y348241D01*
X100181Y348161D01*
X100258Y348078D01*
X100333Y347992D01*
X100404Y347904D01*
X100472Y347814D01*
X100537Y347721D01*
X100599Y347626D01*
X100657Y347529D01*
X100712Y347430D01*
X100763Y347329D01*
X100811Y347226D01*
X100856Y347122D01*
X100896Y347016D01*
X100933Y346909D01*
X100966Y346801D01*
X100996Y346691D01*
X101021Y346581D01*
X101043Y346470D01*
X101060Y346358D01*
X101074Y346245D01*
X101084Y346132D01*
X101090Y346019D01*
X101092Y345906D01*
X101092Y342660D01*
X114808Y321903D02*
X123896Y321903D01*
X123896Y321902D02*
X123995Y321900D01*
X124095Y321894D01*
X124194Y321885D01*
X124292Y321872D01*
X124390Y321855D01*
X124488Y321834D01*
X124584Y321809D01*
X124679Y321781D01*
X124773Y321749D01*
X124866Y321714D01*
X124958Y321675D01*
X125048Y321632D01*
X125136Y321587D01*
X125223Y321537D01*
X125307Y321485D01*
X125390Y321429D01*
X125470Y321371D01*
X125548Y321309D01*
X125623Y321244D01*
X125696Y321176D01*
X125766Y321106D01*
X125834Y321033D01*
X125899Y320958D01*
X125961Y320880D01*
X126019Y320800D01*
X126075Y320717D01*
X126127Y320633D01*
X126177Y320546D01*
X126222Y320458D01*
X126265Y320368D01*
X126304Y320276D01*
X126339Y320183D01*
X126371Y320089D01*
X126399Y319994D01*
X126424Y319898D01*
X126445Y319800D01*
X126462Y319702D01*
X126475Y319604D01*
X126484Y319505D01*
X126490Y319405D01*
X126492Y319306D01*
X126492Y318008D01*
X126492Y329660D02*
X114808Y329660D01*
X114808Y332905D02*
X114808Y326414D01*
X126492Y339645D02*
X126492Y342242D01*
X126492Y339645D02*
X126490Y339546D01*
X126484Y339446D01*
X126475Y339347D01*
X126462Y339249D01*
X126445Y339151D01*
X126424Y339053D01*
X126399Y338957D01*
X126371Y338862D01*
X126339Y338768D01*
X126304Y338675D01*
X126265Y338583D01*
X126222Y338493D01*
X126177Y338405D01*
X126127Y338318D01*
X126075Y338234D01*
X126019Y338151D01*
X125961Y338071D01*
X125899Y337993D01*
X125834Y337918D01*
X125766Y337845D01*
X125696Y337775D01*
X125623Y337707D01*
X125548Y337642D01*
X125470Y337580D01*
X125390Y337522D01*
X125307Y337466D01*
X125223Y337414D01*
X125136Y337364D01*
X125048Y337319D01*
X124958Y337276D01*
X124866Y337237D01*
X124773Y337202D01*
X124679Y337170D01*
X124584Y337142D01*
X124488Y337117D01*
X124390Y337096D01*
X124292Y337079D01*
X124194Y337066D01*
X124095Y337057D01*
X123995Y337051D01*
X123896Y337049D01*
X117404Y337049D01*
X117404Y337048D02*
X117305Y337050D01*
X117205Y337056D01*
X117106Y337065D01*
X117008Y337078D01*
X116910Y337096D01*
X116812Y337116D01*
X116716Y337141D01*
X116620Y337169D01*
X116526Y337201D01*
X116433Y337236D01*
X116342Y337275D01*
X116252Y337318D01*
X116163Y337363D01*
X116077Y337413D01*
X115992Y337465D01*
X115910Y337521D01*
X115830Y337580D01*
X115752Y337641D01*
X115676Y337706D01*
X115603Y337774D01*
X115533Y337844D01*
X115465Y337917D01*
X115400Y337993D01*
X115339Y338071D01*
X115280Y338151D01*
X115224Y338233D01*
X115172Y338318D01*
X115123Y338404D01*
X115077Y338493D01*
X115034Y338583D01*
X114995Y338674D01*
X114960Y338767D01*
X114928Y338861D01*
X114900Y338957D01*
X114875Y339053D01*
X114855Y339151D01*
X114837Y339249D01*
X114824Y339347D01*
X114815Y339446D01*
X114809Y339545D01*
X114807Y339645D01*
X114808Y339645D02*
X114808Y342242D01*
X114808Y347157D02*
X126492Y347157D01*
X121948Y347157D02*
X114808Y353648D01*
X119352Y349754D02*
X126492Y353648D01*
X140208Y321903D02*
X149296Y321903D01*
X149296Y321902D02*
X149395Y321900D01*
X149495Y321894D01*
X149594Y321885D01*
X149692Y321872D01*
X149790Y321855D01*
X149888Y321834D01*
X149984Y321809D01*
X150079Y321781D01*
X150173Y321749D01*
X150266Y321714D01*
X150358Y321675D01*
X150448Y321632D01*
X150536Y321587D01*
X150623Y321537D01*
X150707Y321485D01*
X150790Y321429D01*
X150870Y321371D01*
X150948Y321309D01*
X151023Y321244D01*
X151096Y321176D01*
X151166Y321106D01*
X151234Y321033D01*
X151299Y320958D01*
X151361Y320880D01*
X151419Y320800D01*
X151475Y320717D01*
X151527Y320633D01*
X151577Y320546D01*
X151622Y320458D01*
X151665Y320368D01*
X151704Y320276D01*
X151739Y320183D01*
X151771Y320089D01*
X151799Y319994D01*
X151824Y319898D01*
X151845Y319800D01*
X151862Y319702D01*
X151875Y319604D01*
X151884Y319505D01*
X151890Y319405D01*
X151892Y319306D01*
X151892Y318008D01*
X151892Y329660D02*
X140208Y329660D01*
X140208Y332905D02*
X140208Y326414D01*
X140208Y337576D02*
X151892Y337576D01*
X146699Y341471D02*
X140208Y337576D01*
X146699Y341471D02*
X140208Y345365D01*
X151892Y345365D01*
X151892Y354312D02*
X151890Y354411D01*
X151884Y354511D01*
X151875Y354610D01*
X151862Y354708D01*
X151845Y354806D01*
X151824Y354904D01*
X151799Y355000D01*
X151771Y355095D01*
X151739Y355189D01*
X151704Y355282D01*
X151665Y355374D01*
X151622Y355464D01*
X151577Y355552D01*
X151527Y355639D01*
X151475Y355723D01*
X151419Y355806D01*
X151361Y355886D01*
X151299Y355964D01*
X151234Y356039D01*
X151166Y356112D01*
X151096Y356182D01*
X151023Y356250D01*
X150948Y356315D01*
X150870Y356377D01*
X150790Y356435D01*
X150707Y356491D01*
X150623Y356543D01*
X150536Y356593D01*
X150448Y356638D01*
X150358Y356681D01*
X150266Y356720D01*
X150173Y356755D01*
X150079Y356787D01*
X149984Y356815D01*
X149888Y356840D01*
X149790Y356861D01*
X149692Y356878D01*
X149594Y356891D01*
X149495Y356900D01*
X149395Y356906D01*
X149296Y356908D01*
X151892Y354312D02*
X151890Y354168D01*
X151884Y354023D01*
X151875Y353879D01*
X151862Y353736D01*
X151845Y353592D01*
X151824Y353449D01*
X151799Y353307D01*
X151771Y353166D01*
X151739Y353025D01*
X151703Y352885D01*
X151664Y352746D01*
X151621Y352608D01*
X151574Y352472D01*
X151524Y352336D01*
X151470Y352202D01*
X151413Y352070D01*
X151352Y351939D01*
X151288Y351810D01*
X151220Y351682D01*
X151150Y351556D01*
X151075Y351432D01*
X150998Y351311D01*
X150917Y351191D01*
X150834Y351073D01*
X150747Y350958D01*
X150657Y350845D01*
X150564Y350734D01*
X150469Y350626D01*
X150370Y350520D01*
X150269Y350417D01*
X142804Y350742D02*
X142705Y350744D01*
X142605Y350750D01*
X142506Y350759D01*
X142408Y350772D01*
X142310Y350789D01*
X142212Y350810D01*
X142116Y350835D01*
X142021Y350863D01*
X141927Y350895D01*
X141834Y350930D01*
X141742Y350969D01*
X141652Y351012D01*
X141564Y351057D01*
X141477Y351107D01*
X141393Y351159D01*
X141310Y351215D01*
X141230Y351273D01*
X141152Y351335D01*
X141077Y351400D01*
X141004Y351468D01*
X140934Y351538D01*
X140866Y351611D01*
X140801Y351686D01*
X140739Y351764D01*
X140681Y351844D01*
X140625Y351927D01*
X140573Y352011D01*
X140523Y352098D01*
X140478Y352186D01*
X140435Y352276D01*
X140396Y352368D01*
X140361Y352461D01*
X140329Y352555D01*
X140301Y352650D01*
X140276Y352746D01*
X140255Y352844D01*
X140238Y352942D01*
X140225Y353040D01*
X140216Y353139D01*
X140210Y353239D01*
X140208Y353338D01*
X140210Y353474D01*
X140216Y353610D01*
X140225Y353746D01*
X140238Y353882D01*
X140256Y354017D01*
X140276Y354151D01*
X140301Y354285D01*
X140329Y354419D01*
X140362Y354551D01*
X140397Y354682D01*
X140437Y354813D01*
X140480Y354942D01*
X140526Y355070D01*
X140577Y355196D01*
X140630Y355322D01*
X140688Y355445D01*
X140748Y355567D01*
X140812Y355687D01*
X140880Y355806D01*
X140950Y355922D01*
X141024Y356036D01*
X141101Y356149D01*
X141182Y356259D01*
X145076Y352040D02*
X145023Y351954D01*
X144966Y351870D01*
X144907Y351788D01*
X144844Y351708D01*
X144778Y351631D01*
X144710Y351556D01*
X144638Y351484D01*
X144564Y351415D01*
X144487Y351349D01*
X144408Y351286D01*
X144326Y351226D01*
X144242Y351169D01*
X144156Y351115D01*
X144068Y351065D01*
X143978Y351018D01*
X143887Y350974D01*
X143793Y350935D01*
X143699Y350898D01*
X143603Y350866D01*
X143505Y350837D01*
X143407Y350812D01*
X143308Y350791D01*
X143208Y350773D01*
X143108Y350760D01*
X143007Y350750D01*
X142905Y350744D01*
X142804Y350742D01*
X147024Y355610D02*
X147077Y355696D01*
X147134Y355780D01*
X147193Y355862D01*
X147256Y355942D01*
X147322Y356019D01*
X147390Y356094D01*
X147462Y356166D01*
X147536Y356235D01*
X147613Y356301D01*
X147692Y356364D01*
X147774Y356424D01*
X147858Y356481D01*
X147944Y356535D01*
X148032Y356585D01*
X148122Y356632D01*
X148213Y356676D01*
X148307Y356715D01*
X148401Y356752D01*
X148497Y356784D01*
X148595Y356813D01*
X148693Y356838D01*
X148792Y356859D01*
X148892Y356877D01*
X148992Y356890D01*
X149093Y356900D01*
X149195Y356906D01*
X149296Y356908D01*
X147024Y355610D02*
X145076Y352040D01*
X165608Y318008D02*
X177292Y318008D01*
X165608Y318008D02*
X165608Y321254D01*
X165610Y321367D01*
X165616Y321480D01*
X165626Y321593D01*
X165640Y321706D01*
X165657Y321818D01*
X165679Y321929D01*
X165704Y322039D01*
X165734Y322149D01*
X165767Y322257D01*
X165804Y322364D01*
X165844Y322470D01*
X165889Y322574D01*
X165937Y322677D01*
X165988Y322778D01*
X166043Y322877D01*
X166101Y322974D01*
X166163Y323069D01*
X166228Y323162D01*
X166296Y323252D01*
X166367Y323340D01*
X166442Y323426D01*
X166519Y323509D01*
X166599Y323589D01*
X166682Y323666D01*
X166768Y323741D01*
X166856Y323812D01*
X166946Y323880D01*
X167039Y323945D01*
X167134Y324007D01*
X167231Y324065D01*
X167330Y324120D01*
X167431Y324171D01*
X167534Y324219D01*
X167638Y324264D01*
X167744Y324304D01*
X167851Y324341D01*
X167959Y324374D01*
X168069Y324404D01*
X168179Y324429D01*
X168290Y324451D01*
X168402Y324468D01*
X168515Y324482D01*
X168628Y324492D01*
X168741Y324498D01*
X168854Y324500D01*
X168967Y324498D01*
X169080Y324492D01*
X169193Y324482D01*
X169306Y324468D01*
X169418Y324451D01*
X169529Y324429D01*
X169639Y324404D01*
X169749Y324374D01*
X169857Y324341D01*
X169964Y324304D01*
X170070Y324264D01*
X170174Y324219D01*
X170277Y324171D01*
X170378Y324120D01*
X170477Y324065D01*
X170574Y324007D01*
X170669Y323945D01*
X170762Y323880D01*
X170852Y323812D01*
X170940Y323741D01*
X171026Y323666D01*
X171109Y323589D01*
X171189Y323509D01*
X171266Y323426D01*
X171341Y323340D01*
X171412Y323252D01*
X171480Y323162D01*
X171545Y323069D01*
X171607Y322974D01*
X171665Y322877D01*
X171720Y322778D01*
X171771Y322677D01*
X171819Y322574D01*
X171864Y322470D01*
X171904Y322364D01*
X171941Y322257D01*
X171974Y322149D01*
X172004Y322039D01*
X172029Y321929D01*
X172051Y321818D01*
X172068Y321706D01*
X172082Y321593D01*
X172092Y321480D01*
X172098Y321367D01*
X172100Y321254D01*
X172099Y321254D02*
X172099Y318008D01*
X168204Y328888D02*
X165608Y332133D01*
X177292Y332133D01*
X177292Y328888D02*
X177292Y335379D01*
X168529Y346809D02*
X168422Y346807D01*
X168316Y346801D01*
X168210Y346791D01*
X168104Y346778D01*
X167998Y346760D01*
X167894Y346739D01*
X167790Y346714D01*
X167687Y346685D01*
X167586Y346653D01*
X167486Y346616D01*
X167387Y346576D01*
X167289Y346533D01*
X167193Y346486D01*
X167099Y346435D01*
X167007Y346381D01*
X166917Y346324D01*
X166829Y346264D01*
X166744Y346200D01*
X166661Y346133D01*
X166580Y346063D01*
X166502Y345991D01*
X166426Y345915D01*
X166354Y345837D01*
X166284Y345756D01*
X166217Y345673D01*
X166153Y345588D01*
X166093Y345500D01*
X166036Y345410D01*
X165982Y345318D01*
X165931Y345224D01*
X165884Y345128D01*
X165841Y345030D01*
X165801Y344931D01*
X165764Y344831D01*
X165732Y344730D01*
X165703Y344627D01*
X165678Y344523D01*
X165657Y344419D01*
X165639Y344313D01*
X165626Y344207D01*
X165616Y344101D01*
X165610Y343995D01*
X165608Y343888D01*
X165610Y343767D01*
X165616Y343646D01*
X165626Y343526D01*
X165639Y343405D01*
X165657Y343286D01*
X165678Y343166D01*
X165703Y343048D01*
X165732Y342931D01*
X165765Y342814D01*
X165801Y342699D01*
X165842Y342585D01*
X165885Y342472D01*
X165933Y342360D01*
X165984Y342251D01*
X166039Y342143D01*
X166097Y342036D01*
X166158Y341932D01*
X166223Y341830D01*
X166291Y341730D01*
X166362Y341632D01*
X166436Y341536D01*
X166513Y341443D01*
X166594Y341353D01*
X166677Y341265D01*
X166763Y341180D01*
X166852Y341097D01*
X166943Y341018D01*
X167037Y340941D01*
X167133Y340868D01*
X167231Y340798D01*
X167332Y340731D01*
X167435Y340667D01*
X167540Y340607D01*
X167647Y340549D01*
X167755Y340496D01*
X167865Y340446D01*
X167977Y340400D01*
X168090Y340357D01*
X168205Y340318D01*
X170801Y345834D02*
X170723Y345913D01*
X170643Y345989D01*
X170560Y346062D01*
X170474Y346132D01*
X170387Y346199D01*
X170296Y346263D01*
X170204Y346323D01*
X170110Y346381D01*
X170013Y346435D01*
X169915Y346485D01*
X169815Y346532D01*
X169714Y346576D01*
X169611Y346616D01*
X169506Y346652D01*
X169401Y346684D01*
X169294Y346713D01*
X169187Y346738D01*
X169078Y346760D01*
X168969Y346777D01*
X168860Y346791D01*
X168750Y346800D01*
X168639Y346806D01*
X168529Y346808D01*
X170801Y345835D02*
X177292Y340318D01*
X177292Y346809D01*
X191008Y318008D02*
X202692Y318008D01*
X191008Y318008D02*
X191008Y321254D01*
X191010Y321367D01*
X191016Y321480D01*
X191026Y321593D01*
X191040Y321706D01*
X191057Y321818D01*
X191079Y321929D01*
X191104Y322039D01*
X191134Y322149D01*
X191167Y322257D01*
X191204Y322364D01*
X191244Y322470D01*
X191289Y322574D01*
X191337Y322677D01*
X191388Y322778D01*
X191443Y322877D01*
X191501Y322974D01*
X191563Y323069D01*
X191628Y323162D01*
X191696Y323252D01*
X191767Y323340D01*
X191842Y323426D01*
X191919Y323509D01*
X191999Y323589D01*
X192082Y323666D01*
X192168Y323741D01*
X192256Y323812D01*
X192346Y323880D01*
X192439Y323945D01*
X192534Y324007D01*
X192631Y324065D01*
X192730Y324120D01*
X192831Y324171D01*
X192934Y324219D01*
X193038Y324264D01*
X193144Y324304D01*
X193251Y324341D01*
X193359Y324374D01*
X193469Y324404D01*
X193579Y324429D01*
X193690Y324451D01*
X193802Y324468D01*
X193915Y324482D01*
X194028Y324492D01*
X194141Y324498D01*
X194254Y324500D01*
X194367Y324498D01*
X194480Y324492D01*
X194593Y324482D01*
X194706Y324468D01*
X194818Y324451D01*
X194929Y324429D01*
X195039Y324404D01*
X195149Y324374D01*
X195257Y324341D01*
X195364Y324304D01*
X195470Y324264D01*
X195574Y324219D01*
X195677Y324171D01*
X195778Y324120D01*
X195877Y324065D01*
X195974Y324007D01*
X196069Y323945D01*
X196162Y323880D01*
X196252Y323812D01*
X196340Y323741D01*
X196426Y323666D01*
X196509Y323589D01*
X196589Y323509D01*
X196666Y323426D01*
X196741Y323340D01*
X196812Y323252D01*
X196880Y323162D01*
X196945Y323069D01*
X197007Y322974D01*
X197065Y322877D01*
X197120Y322778D01*
X197171Y322677D01*
X197219Y322574D01*
X197264Y322470D01*
X197304Y322364D01*
X197341Y322257D01*
X197374Y322149D01*
X197404Y322039D01*
X197429Y321929D01*
X197451Y321818D01*
X197468Y321706D01*
X197482Y321593D01*
X197492Y321480D01*
X197498Y321367D01*
X197500Y321254D01*
X197499Y321254D02*
X197499Y318008D01*
X202692Y328239D02*
X191008Y332133D01*
X202692Y336028D01*
X199771Y335054D02*
X199771Y329212D01*
X199446Y340317D02*
X199333Y340319D01*
X199220Y340325D01*
X199107Y340335D01*
X198994Y340349D01*
X198882Y340366D01*
X198771Y340388D01*
X198661Y340413D01*
X198551Y340443D01*
X198443Y340476D01*
X198336Y340513D01*
X198230Y340553D01*
X198126Y340598D01*
X198023Y340646D01*
X197922Y340697D01*
X197823Y340752D01*
X197726Y340810D01*
X197631Y340872D01*
X197538Y340937D01*
X197448Y341005D01*
X197360Y341076D01*
X197274Y341151D01*
X197191Y341228D01*
X197111Y341308D01*
X197034Y341391D01*
X196959Y341477D01*
X196888Y341565D01*
X196820Y341655D01*
X196755Y341748D01*
X196693Y341843D01*
X196635Y341940D01*
X196580Y342039D01*
X196529Y342140D01*
X196481Y342243D01*
X196436Y342347D01*
X196396Y342453D01*
X196359Y342560D01*
X196326Y342668D01*
X196296Y342778D01*
X196271Y342888D01*
X196249Y342999D01*
X196232Y343111D01*
X196218Y343224D01*
X196208Y343337D01*
X196202Y343450D01*
X196200Y343563D01*
X196202Y343676D01*
X196208Y343789D01*
X196218Y343902D01*
X196232Y344015D01*
X196249Y344127D01*
X196271Y344238D01*
X196296Y344348D01*
X196326Y344458D01*
X196359Y344566D01*
X196396Y344673D01*
X196436Y344779D01*
X196481Y344883D01*
X196529Y344986D01*
X196580Y345087D01*
X196635Y345186D01*
X196693Y345283D01*
X196755Y345378D01*
X196820Y345471D01*
X196888Y345561D01*
X196959Y345649D01*
X197034Y345735D01*
X197111Y345818D01*
X197191Y345898D01*
X197274Y345975D01*
X197360Y346050D01*
X197448Y346121D01*
X197538Y346189D01*
X197631Y346254D01*
X197726Y346316D01*
X197823Y346374D01*
X197922Y346429D01*
X198023Y346480D01*
X198126Y346528D01*
X198230Y346573D01*
X198336Y346613D01*
X198443Y346650D01*
X198551Y346683D01*
X198661Y346713D01*
X198771Y346738D01*
X198882Y346760D01*
X198994Y346777D01*
X199107Y346791D01*
X199220Y346801D01*
X199333Y346807D01*
X199446Y346809D01*
X199559Y346807D01*
X199672Y346801D01*
X199785Y346791D01*
X199898Y346777D01*
X200010Y346760D01*
X200121Y346738D01*
X200231Y346713D01*
X200341Y346683D01*
X200449Y346650D01*
X200556Y346613D01*
X200662Y346573D01*
X200766Y346528D01*
X200869Y346480D01*
X200970Y346429D01*
X201069Y346374D01*
X201166Y346316D01*
X201261Y346254D01*
X201354Y346189D01*
X201444Y346121D01*
X201532Y346050D01*
X201618Y345975D01*
X201701Y345898D01*
X201781Y345818D01*
X201858Y345735D01*
X201933Y345649D01*
X202004Y345561D01*
X202072Y345471D01*
X202137Y345378D01*
X202199Y345283D01*
X202257Y345186D01*
X202312Y345087D01*
X202363Y344986D01*
X202411Y344883D01*
X202456Y344779D01*
X202496Y344673D01*
X202533Y344566D01*
X202566Y344458D01*
X202596Y344348D01*
X202621Y344238D01*
X202643Y344127D01*
X202660Y344015D01*
X202674Y343902D01*
X202684Y343789D01*
X202690Y343676D01*
X202692Y343563D01*
X202690Y343450D01*
X202684Y343337D01*
X202674Y343224D01*
X202660Y343111D01*
X202643Y342999D01*
X202621Y342888D01*
X202596Y342778D01*
X202566Y342668D01*
X202533Y342560D01*
X202496Y342453D01*
X202456Y342347D01*
X202411Y342243D01*
X202363Y342140D01*
X202312Y342039D01*
X202257Y341940D01*
X202199Y341843D01*
X202137Y341748D01*
X202072Y341655D01*
X202004Y341565D01*
X201933Y341477D01*
X201858Y341391D01*
X201781Y341308D01*
X201701Y341228D01*
X201618Y341151D01*
X201532Y341076D01*
X201444Y341005D01*
X201354Y340937D01*
X201261Y340872D01*
X201166Y340810D01*
X201069Y340752D01*
X200970Y340697D01*
X200869Y340646D01*
X200766Y340598D01*
X200662Y340553D01*
X200556Y340513D01*
X200449Y340476D01*
X200341Y340443D01*
X200231Y340413D01*
X200121Y340388D01*
X200010Y340366D01*
X199898Y340349D01*
X199785Y340335D01*
X199672Y340325D01*
X199559Y340319D01*
X199446Y340317D01*
X193604Y340967D02*
X193503Y340969D01*
X193403Y340975D01*
X193303Y340985D01*
X193203Y340998D01*
X193104Y341016D01*
X193005Y341037D01*
X192908Y341062D01*
X192811Y341091D01*
X192716Y341124D01*
X192622Y341160D01*
X192530Y341200D01*
X192439Y341243D01*
X192350Y341290D01*
X192263Y341340D01*
X192177Y341394D01*
X192094Y341451D01*
X192014Y341511D01*
X191935Y341574D01*
X191859Y341641D01*
X191786Y341710D01*
X191716Y341782D01*
X191648Y341856D01*
X191583Y341933D01*
X191522Y342013D01*
X191463Y342095D01*
X191408Y342179D01*
X191356Y342265D01*
X191307Y342353D01*
X191262Y342443D01*
X191220Y342535D01*
X191182Y342628D01*
X191148Y342723D01*
X191117Y342818D01*
X191090Y342915D01*
X191067Y343013D01*
X191047Y343112D01*
X191032Y343212D01*
X191020Y343312D01*
X191012Y343412D01*
X191008Y343513D01*
X191008Y343613D01*
X191012Y343714D01*
X191020Y343814D01*
X191032Y343914D01*
X191047Y344014D01*
X191067Y344113D01*
X191090Y344211D01*
X191117Y344308D01*
X191148Y344403D01*
X191182Y344498D01*
X191220Y344591D01*
X191262Y344683D01*
X191307Y344773D01*
X191356Y344861D01*
X191408Y344947D01*
X191463Y345031D01*
X191522Y345113D01*
X191583Y345193D01*
X191648Y345270D01*
X191716Y345344D01*
X191786Y345416D01*
X191859Y345485D01*
X191935Y345552D01*
X192014Y345615D01*
X192094Y345675D01*
X192177Y345732D01*
X192263Y345786D01*
X192350Y345836D01*
X192439Y345883D01*
X192530Y345926D01*
X192622Y345966D01*
X192716Y346002D01*
X192811Y346035D01*
X192908Y346064D01*
X193005Y346089D01*
X193104Y346110D01*
X193203Y346128D01*
X193303Y346141D01*
X193403Y346151D01*
X193503Y346157D01*
X193604Y346159D01*
X193705Y346157D01*
X193805Y346151D01*
X193905Y346141D01*
X194005Y346128D01*
X194104Y346110D01*
X194203Y346089D01*
X194300Y346064D01*
X194397Y346035D01*
X194492Y346002D01*
X194586Y345966D01*
X194678Y345926D01*
X194769Y345883D01*
X194858Y345836D01*
X194945Y345786D01*
X195031Y345732D01*
X195114Y345675D01*
X195194Y345615D01*
X195273Y345552D01*
X195349Y345485D01*
X195422Y345416D01*
X195492Y345344D01*
X195560Y345270D01*
X195625Y345193D01*
X195686Y345113D01*
X195745Y345031D01*
X195800Y344947D01*
X195852Y344861D01*
X195901Y344773D01*
X195946Y344683D01*
X195988Y344591D01*
X196026Y344498D01*
X196060Y344403D01*
X196091Y344308D01*
X196118Y344211D01*
X196141Y344113D01*
X196161Y344014D01*
X196176Y343914D01*
X196188Y343814D01*
X196196Y343714D01*
X196200Y343613D01*
X196200Y343513D01*
X196196Y343412D01*
X196188Y343312D01*
X196176Y343212D01*
X196161Y343112D01*
X196141Y343013D01*
X196118Y342915D01*
X196091Y342818D01*
X196060Y342723D01*
X196026Y342628D01*
X195988Y342535D01*
X195946Y342443D01*
X195901Y342353D01*
X195852Y342265D01*
X195800Y342179D01*
X195745Y342095D01*
X195686Y342013D01*
X195625Y341933D01*
X195560Y341856D01*
X195492Y341782D01*
X195422Y341710D01*
X195349Y341641D01*
X195273Y341574D01*
X195194Y341511D01*
X195114Y341451D01*
X195031Y341394D01*
X194945Y341340D01*
X194858Y341290D01*
X194769Y341243D01*
X194678Y341200D01*
X194586Y341160D01*
X194492Y341124D01*
X194397Y341091D01*
X194300Y341062D01*
X194203Y341037D01*
X194104Y341016D01*
X194005Y340998D01*
X193905Y340985D01*
X193805Y340975D01*
X193705Y340969D01*
X193604Y340967D01*
X216408Y318008D02*
X228092Y318008D01*
X216408Y318008D02*
X216408Y321254D01*
X216410Y321367D01*
X216416Y321480D01*
X216426Y321593D01*
X216440Y321706D01*
X216457Y321818D01*
X216479Y321929D01*
X216504Y322039D01*
X216534Y322149D01*
X216567Y322257D01*
X216604Y322364D01*
X216644Y322470D01*
X216689Y322574D01*
X216737Y322677D01*
X216788Y322778D01*
X216843Y322877D01*
X216901Y322974D01*
X216963Y323069D01*
X217028Y323162D01*
X217096Y323252D01*
X217167Y323340D01*
X217242Y323426D01*
X217319Y323509D01*
X217399Y323589D01*
X217482Y323666D01*
X217568Y323741D01*
X217656Y323812D01*
X217746Y323880D01*
X217839Y323945D01*
X217934Y324007D01*
X218031Y324065D01*
X218130Y324120D01*
X218231Y324171D01*
X218334Y324219D01*
X218438Y324264D01*
X218544Y324304D01*
X218651Y324341D01*
X218759Y324374D01*
X218869Y324404D01*
X218979Y324429D01*
X219090Y324451D01*
X219202Y324468D01*
X219315Y324482D01*
X219428Y324492D01*
X219541Y324498D01*
X219654Y324500D01*
X219767Y324498D01*
X219880Y324492D01*
X219993Y324482D01*
X220106Y324468D01*
X220218Y324451D01*
X220329Y324429D01*
X220439Y324404D01*
X220549Y324374D01*
X220657Y324341D01*
X220764Y324304D01*
X220870Y324264D01*
X220974Y324219D01*
X221077Y324171D01*
X221178Y324120D01*
X221277Y324065D01*
X221374Y324007D01*
X221469Y323945D01*
X221562Y323880D01*
X221652Y323812D01*
X221740Y323741D01*
X221826Y323666D01*
X221909Y323589D01*
X221989Y323509D01*
X222066Y323426D01*
X222141Y323340D01*
X222212Y323252D01*
X222280Y323162D01*
X222345Y323069D01*
X222407Y322974D01*
X222465Y322877D01*
X222520Y322778D01*
X222571Y322677D01*
X222619Y322574D01*
X222664Y322470D01*
X222704Y322364D01*
X222741Y322257D01*
X222774Y322149D01*
X222804Y322039D01*
X222829Y321929D01*
X222851Y321818D01*
X222868Y321706D01*
X222882Y321593D01*
X222892Y321480D01*
X222898Y321367D01*
X222900Y321254D01*
X222899Y321254D02*
X222899Y318008D01*
X228092Y328239D02*
X216408Y332133D01*
X228092Y336028D01*
X225171Y335054D02*
X225171Y329212D01*
X217706Y340318D02*
X216408Y340318D01*
X216408Y346809D01*
X228092Y343563D01*
X241808Y318008D02*
X253492Y318008D01*
X253492Y324499D02*
X241808Y318008D01*
X241808Y324499D02*
X253492Y324499D01*
X253492Y330274D02*
X241808Y330274D01*
X241808Y333519D01*
X241810Y333632D01*
X241816Y333745D01*
X241826Y333858D01*
X241840Y333971D01*
X241857Y334083D01*
X241879Y334194D01*
X241904Y334304D01*
X241934Y334414D01*
X241967Y334522D01*
X242004Y334629D01*
X242044Y334735D01*
X242089Y334839D01*
X242137Y334942D01*
X242188Y335043D01*
X242243Y335142D01*
X242301Y335239D01*
X242363Y335334D01*
X242428Y335427D01*
X242496Y335517D01*
X242567Y335605D01*
X242642Y335691D01*
X242719Y335774D01*
X242799Y335854D01*
X242882Y335931D01*
X242968Y336006D01*
X243056Y336077D01*
X243146Y336145D01*
X243239Y336210D01*
X243334Y336272D01*
X243431Y336330D01*
X243530Y336385D01*
X243631Y336436D01*
X243734Y336484D01*
X243838Y336529D01*
X243944Y336569D01*
X244051Y336606D01*
X244159Y336639D01*
X244269Y336669D01*
X244379Y336694D01*
X244490Y336716D01*
X244602Y336733D01*
X244715Y336747D01*
X244828Y336757D01*
X244941Y336763D01*
X245054Y336765D01*
X245167Y336763D01*
X245280Y336757D01*
X245393Y336747D01*
X245506Y336733D01*
X245618Y336716D01*
X245729Y336694D01*
X245839Y336669D01*
X245949Y336639D01*
X246057Y336606D01*
X246164Y336569D01*
X246270Y336529D01*
X246374Y336484D01*
X246477Y336436D01*
X246578Y336385D01*
X246677Y336330D01*
X246774Y336272D01*
X246869Y336210D01*
X246962Y336145D01*
X247052Y336077D01*
X247140Y336006D01*
X247226Y335931D01*
X247309Y335854D01*
X247389Y335774D01*
X247466Y335691D01*
X247541Y335605D01*
X247612Y335517D01*
X247680Y335427D01*
X247745Y335334D01*
X247807Y335239D01*
X247865Y335142D01*
X247920Y335043D01*
X247971Y334942D01*
X248019Y334839D01*
X248064Y334735D01*
X248104Y334629D01*
X248141Y334522D01*
X248174Y334414D01*
X248204Y334304D01*
X248229Y334194D01*
X248251Y334083D01*
X248268Y333971D01*
X248282Y333858D01*
X248292Y333745D01*
X248298Y333632D01*
X248300Y333519D01*
X248299Y333519D02*
X248299Y330274D01*
X248299Y334168D02*
X253492Y336765D01*
X253492Y345144D02*
X253490Y345243D01*
X253484Y345343D01*
X253475Y345442D01*
X253462Y345540D01*
X253445Y345638D01*
X253424Y345736D01*
X253399Y345832D01*
X253371Y345927D01*
X253339Y346021D01*
X253304Y346114D01*
X253265Y346206D01*
X253222Y346296D01*
X253177Y346384D01*
X253127Y346471D01*
X253075Y346555D01*
X253019Y346638D01*
X252961Y346718D01*
X252899Y346796D01*
X252834Y346871D01*
X252766Y346944D01*
X252696Y347014D01*
X252623Y347082D01*
X252548Y347147D01*
X252470Y347209D01*
X252390Y347267D01*
X252307Y347323D01*
X252223Y347375D01*
X252136Y347425D01*
X252048Y347470D01*
X251958Y347513D01*
X251866Y347552D01*
X251773Y347587D01*
X251679Y347619D01*
X251584Y347647D01*
X251488Y347672D01*
X251390Y347693D01*
X251292Y347710D01*
X251194Y347723D01*
X251095Y347732D01*
X250995Y347738D01*
X250896Y347740D01*
X253492Y345144D02*
X253490Y345000D01*
X253484Y344855D01*
X253475Y344711D01*
X253462Y344568D01*
X253445Y344424D01*
X253424Y344281D01*
X253399Y344139D01*
X253371Y343998D01*
X253339Y343857D01*
X253303Y343717D01*
X253264Y343578D01*
X253221Y343440D01*
X253174Y343304D01*
X253124Y343168D01*
X253070Y343034D01*
X253013Y342902D01*
X252952Y342771D01*
X252888Y342642D01*
X252820Y342514D01*
X252750Y342388D01*
X252675Y342264D01*
X252598Y342143D01*
X252517Y342023D01*
X252434Y341905D01*
X252347Y341790D01*
X252257Y341677D01*
X252164Y341566D01*
X252069Y341458D01*
X251970Y341352D01*
X251869Y341249D01*
X244404Y341574D02*
X244305Y341576D01*
X244205Y341582D01*
X244106Y341591D01*
X244008Y341604D01*
X243910Y341621D01*
X243812Y341642D01*
X243716Y341667D01*
X243621Y341695D01*
X243527Y341727D01*
X243434Y341762D01*
X243342Y341801D01*
X243252Y341844D01*
X243164Y341889D01*
X243077Y341939D01*
X242993Y341991D01*
X242910Y342047D01*
X242830Y342105D01*
X242752Y342167D01*
X242677Y342232D01*
X242604Y342300D01*
X242534Y342370D01*
X242466Y342443D01*
X242401Y342518D01*
X242339Y342596D01*
X242281Y342676D01*
X242225Y342759D01*
X242173Y342843D01*
X242123Y342930D01*
X242078Y343018D01*
X242035Y343108D01*
X241996Y343200D01*
X241961Y343293D01*
X241929Y343387D01*
X241901Y343482D01*
X241876Y343578D01*
X241855Y343676D01*
X241838Y343774D01*
X241825Y343872D01*
X241816Y343971D01*
X241810Y344071D01*
X241808Y344170D01*
X241810Y344306D01*
X241816Y344442D01*
X241825Y344578D01*
X241838Y344714D01*
X241856Y344849D01*
X241876Y344983D01*
X241901Y345117D01*
X241929Y345251D01*
X241962Y345383D01*
X241997Y345514D01*
X242037Y345645D01*
X242080Y345774D01*
X242126Y345902D01*
X242177Y346028D01*
X242230Y346154D01*
X242288Y346277D01*
X242348Y346399D01*
X242412Y346519D01*
X242480Y346638D01*
X242550Y346754D01*
X242624Y346868D01*
X242701Y346981D01*
X242782Y347091D01*
X246676Y342871D02*
X246623Y342785D01*
X246566Y342701D01*
X246507Y342619D01*
X246444Y342539D01*
X246378Y342462D01*
X246310Y342387D01*
X246238Y342315D01*
X246164Y342246D01*
X246087Y342180D01*
X246008Y342117D01*
X245926Y342057D01*
X245842Y342000D01*
X245756Y341946D01*
X245668Y341896D01*
X245578Y341849D01*
X245487Y341805D01*
X245393Y341766D01*
X245299Y341729D01*
X245203Y341697D01*
X245105Y341668D01*
X245007Y341643D01*
X244908Y341622D01*
X244808Y341604D01*
X244708Y341591D01*
X244607Y341581D01*
X244505Y341575D01*
X244404Y341573D01*
X248624Y346442D02*
X248677Y346528D01*
X248734Y346612D01*
X248793Y346694D01*
X248856Y346774D01*
X248922Y346851D01*
X248990Y346926D01*
X249062Y346998D01*
X249136Y347067D01*
X249213Y347133D01*
X249292Y347196D01*
X249374Y347256D01*
X249458Y347313D01*
X249544Y347367D01*
X249632Y347417D01*
X249722Y347464D01*
X249813Y347508D01*
X249907Y347547D01*
X250001Y347584D01*
X250097Y347616D01*
X250195Y347645D01*
X250293Y347670D01*
X250392Y347691D01*
X250492Y347709D01*
X250592Y347722D01*
X250693Y347732D01*
X250795Y347738D01*
X250896Y347740D01*
X248624Y346442D02*
X246676Y342872D01*
X241808Y354781D02*
X253492Y354781D01*
X241808Y351536D02*
X241808Y358027D01*
D11*
X139040Y144510D02*
X127340Y144510D01*
X139040Y144510D02*
X139040Y129810D01*
X127340Y129810D01*
X127340Y144510D01*
X127340Y131045D02*
X139040Y131045D01*
X139040Y132280D02*
X127340Y132280D01*
X127340Y133515D02*
X139040Y133515D01*
X139040Y134750D02*
X127340Y134750D01*
X127340Y135985D02*
X139040Y135985D01*
X139040Y137220D02*
X127340Y137220D01*
X127340Y138455D02*
X139040Y138455D01*
X139040Y139690D02*
X127340Y139690D01*
X127340Y140925D02*
X139040Y140925D01*
X139040Y142160D02*
X127340Y142160D01*
X127340Y143395D02*
X139040Y143395D01*
X119040Y144510D02*
X107340Y144510D01*
X119040Y144510D02*
X119040Y129810D01*
X107340Y129810D01*
X107340Y144510D01*
X107340Y131045D02*
X119040Y131045D01*
X119040Y132280D02*
X107340Y132280D01*
X107340Y133515D02*
X119040Y133515D01*
X119040Y134750D02*
X107340Y134750D01*
X107340Y135985D02*
X119040Y135985D01*
X119040Y137220D02*
X107340Y137220D01*
X107340Y138455D02*
X119040Y138455D01*
X119040Y139690D02*
X107340Y139690D01*
X107340Y140925D02*
X119040Y140925D01*
X119040Y142160D02*
X107340Y142160D01*
X107340Y143395D02*
X119040Y143395D01*
X127340Y121650D02*
X139040Y121650D01*
X139040Y106950D01*
X127340Y106950D01*
X127340Y121650D01*
X127340Y108185D02*
X139040Y108185D01*
X139040Y109420D02*
X127340Y109420D01*
X127340Y110655D02*
X139040Y110655D01*
X139040Y111890D02*
X127340Y111890D01*
X127340Y113125D02*
X139040Y113125D01*
X139040Y114360D02*
X127340Y114360D01*
X127340Y115595D02*
X139040Y115595D01*
X139040Y116830D02*
X127340Y116830D01*
X127340Y118065D02*
X139040Y118065D01*
X139040Y119300D02*
X127340Y119300D01*
X127340Y120535D02*
X139040Y120535D01*
X119040Y121650D02*
X107340Y121650D01*
X119040Y121650D02*
X119040Y106950D01*
X107340Y106950D01*
X107340Y121650D01*
X107340Y108185D02*
X119040Y108185D01*
X119040Y109420D02*
X107340Y109420D01*
X107340Y110655D02*
X119040Y110655D01*
X119040Y111890D02*
X107340Y111890D01*
X107340Y113125D02*
X119040Y113125D01*
X119040Y114360D02*
X107340Y114360D01*
X107340Y115595D02*
X119040Y115595D01*
X119040Y116830D02*
X107340Y116830D01*
X107340Y118065D02*
X119040Y118065D01*
X119040Y119300D02*
X107340Y119300D01*
X107340Y120535D02*
X119040Y120535D01*
X39030Y108220D02*
X27330Y108220D01*
X27330Y122920D01*
X39030Y122920D01*
X39030Y108220D01*
X39030Y109455D02*
X27330Y109455D01*
X27330Y110690D02*
X39030Y110690D01*
X39030Y111925D02*
X27330Y111925D01*
X27330Y113160D02*
X39030Y113160D01*
X39030Y114395D02*
X27330Y114395D01*
X27330Y115630D02*
X39030Y115630D01*
X39030Y116865D02*
X27330Y116865D01*
X27330Y118100D02*
X39030Y118100D01*
X39030Y119335D02*
X27330Y119335D01*
X27330Y120570D02*
X39030Y120570D01*
X39030Y121805D02*
X27330Y121805D01*
X47330Y108220D02*
X59030Y108220D01*
X47330Y108220D02*
X47330Y122920D01*
X59030Y122920D01*
X59030Y108220D01*
X59030Y109455D02*
X47330Y109455D01*
X47330Y110690D02*
X59030Y110690D01*
X59030Y111925D02*
X47330Y111925D01*
X47330Y113160D02*
X59030Y113160D01*
X59030Y114395D02*
X47330Y114395D01*
X47330Y115630D02*
X59030Y115630D01*
X59030Y116865D02*
X47330Y116865D01*
X47330Y118100D02*
X59030Y118100D01*
X59030Y119335D02*
X47330Y119335D01*
X47330Y120570D02*
X59030Y120570D01*
X59030Y121805D02*
X47330Y121805D01*
D12*
X138495Y86170D02*
X152705Y86170D01*
X138495Y86170D02*
X138495Y91630D01*
X152705Y91630D01*
X152705Y86170D01*
X152705Y87158D02*
X138495Y87158D01*
X138495Y88146D02*
X152705Y88146D01*
X152705Y89134D02*
X138495Y89134D01*
X138495Y90122D02*
X152705Y90122D01*
X152705Y91110D02*
X138495Y91110D01*
X138495Y73470D02*
X152705Y73470D01*
X138495Y73470D02*
X138495Y78930D01*
X152705Y78930D01*
X152705Y73470D01*
X152705Y74458D02*
X138495Y74458D01*
X138495Y75446D02*
X152705Y75446D01*
X152705Y76434D02*
X138495Y76434D01*
X138495Y77422D02*
X152705Y77422D01*
X152705Y78410D02*
X138495Y78410D01*
X138495Y60770D02*
X152705Y60770D01*
X138495Y60770D02*
X138495Y66230D01*
X152705Y66230D01*
X152705Y60770D01*
X152705Y61758D02*
X138495Y61758D01*
X138495Y62746D02*
X152705Y62746D01*
X152705Y63734D02*
X138495Y63734D01*
X138495Y64722D02*
X152705Y64722D01*
X152705Y65710D02*
X138495Y65710D01*
X138495Y48070D02*
X152705Y48070D01*
X138495Y48070D02*
X138495Y53530D01*
X152705Y53530D01*
X152705Y48070D01*
X152705Y49058D02*
X138495Y49058D01*
X138495Y50046D02*
X152705Y50046D01*
X152705Y51034D02*
X138495Y51034D01*
X138495Y52022D02*
X152705Y52022D01*
X152705Y53010D02*
X138495Y53010D01*
X192735Y48070D02*
X206945Y48070D01*
X192735Y48070D02*
X192735Y53530D01*
X206945Y53530D01*
X206945Y48070D01*
X206945Y49058D02*
X192735Y49058D01*
X192735Y50046D02*
X206945Y50046D01*
X206945Y51034D02*
X192735Y51034D01*
X192735Y52022D02*
X206945Y52022D01*
X206945Y53010D02*
X192735Y53010D01*
X192735Y60770D02*
X206945Y60770D01*
X192735Y60770D02*
X192735Y66230D01*
X206945Y66230D01*
X206945Y60770D01*
X206945Y61758D02*
X192735Y61758D01*
X192735Y62746D02*
X206945Y62746D01*
X206945Y63734D02*
X192735Y63734D01*
X192735Y64722D02*
X206945Y64722D01*
X206945Y65710D02*
X192735Y65710D01*
X192735Y73470D02*
X206945Y73470D01*
X192735Y73470D02*
X192735Y78930D01*
X206945Y78930D01*
X206945Y73470D01*
X206945Y74458D02*
X192735Y74458D01*
X192735Y75446D02*
X206945Y75446D01*
X206945Y76434D02*
X192735Y76434D01*
X192735Y77422D02*
X206945Y77422D01*
X206945Y78410D02*
X192735Y78410D01*
X192735Y86170D02*
X206945Y86170D01*
X192735Y86170D02*
X192735Y91630D01*
X206945Y91630D01*
X206945Y86170D01*
X206945Y87158D02*
X192735Y87158D01*
X192735Y88146D02*
X206945Y88146D01*
X206945Y89134D02*
X192735Y89134D01*
X192735Y90122D02*
X206945Y90122D01*
X206945Y91110D02*
X192735Y91110D01*
D13*
X262940Y74220D02*
X262940Y63420D01*
X250140Y63420D01*
X250140Y74220D01*
X262940Y74220D01*
X262940Y64560D02*
X250140Y64560D01*
X250140Y65700D02*
X262940Y65700D01*
X262940Y66840D02*
X250140Y66840D01*
X250140Y67980D02*
X262940Y67980D01*
X262940Y69120D02*
X250140Y69120D01*
X250140Y70260D02*
X262940Y70260D01*
X262940Y71400D02*
X250140Y71400D01*
X250140Y72540D02*
X262940Y72540D01*
X262940Y73680D02*
X250140Y73680D01*
X262940Y93420D02*
X262940Y104220D01*
X262940Y93420D02*
X250140Y93420D01*
X250140Y104220D01*
X262940Y104220D01*
X262940Y94560D02*
X250140Y94560D01*
X250140Y95700D02*
X262940Y95700D01*
X262940Y96840D02*
X250140Y96840D01*
X250140Y97980D02*
X262940Y97980D01*
X262940Y99120D02*
X250140Y99120D01*
X250140Y100260D02*
X262940Y100260D01*
X262940Y101400D02*
X250140Y101400D01*
X250140Y102540D02*
X262940Y102540D01*
X262940Y103680D02*
X250140Y103680D01*
D14*
X234500Y26090D02*
X220100Y26090D01*
X220100Y42490D01*
X234500Y42490D01*
X234500Y26090D01*
X234500Y27610D02*
X220100Y27610D01*
X220100Y29130D02*
X234500Y29130D01*
X234500Y30650D02*
X220100Y30650D01*
X220100Y32170D02*
X234500Y32170D01*
X234500Y33690D02*
X220100Y33690D01*
X220100Y35210D02*
X234500Y35210D01*
X234500Y36730D02*
X220100Y36730D01*
X220100Y38250D02*
X234500Y38250D01*
X234500Y39770D02*
X220100Y39770D01*
X220100Y41290D02*
X234500Y41290D01*
X248100Y26090D02*
X262500Y26090D01*
X248100Y26090D02*
X248100Y42490D01*
X262500Y42490D01*
X262500Y26090D01*
X262500Y27610D02*
X248100Y27610D01*
X248100Y29130D02*
X262500Y29130D01*
X262500Y30650D02*
X248100Y30650D01*
X248100Y32170D02*
X262500Y32170D01*
X262500Y33690D02*
X248100Y33690D01*
X248100Y35210D02*
X262500Y35210D01*
X262500Y36730D02*
X248100Y36730D01*
X248100Y38250D02*
X262500Y38250D01*
X262500Y39770D02*
X248100Y39770D01*
X248100Y41290D02*
X262500Y41290D01*
D15*
X32545Y46365D02*
X32545Y32415D01*
X26595Y32415D01*
X26595Y46365D01*
X32545Y46365D01*
X32545Y33412D02*
X26595Y33412D01*
X26595Y34409D02*
X32545Y34409D01*
X32545Y35406D02*
X26595Y35406D01*
X26595Y36403D02*
X32545Y36403D01*
X32545Y37400D02*
X26595Y37400D01*
X26595Y38397D02*
X32545Y38397D01*
X32545Y39394D02*
X26595Y39394D01*
X26595Y40391D02*
X32545Y40391D01*
X32545Y41388D02*
X26595Y41388D01*
X26595Y42385D02*
X32545Y42385D01*
X32545Y43382D02*
X26595Y43382D01*
X26595Y44379D02*
X32545Y44379D01*
X32545Y45376D02*
X26595Y45376D01*
X62545Y46365D02*
X62545Y32415D01*
X56595Y32415D01*
X56595Y46365D01*
X62545Y46365D01*
X62545Y33412D02*
X56595Y33412D01*
X56595Y34409D02*
X62545Y34409D01*
X62545Y35406D02*
X56595Y35406D01*
X56595Y36403D02*
X62545Y36403D01*
X62545Y37400D02*
X56595Y37400D01*
X56595Y38397D02*
X62545Y38397D01*
X62545Y39394D02*
X56595Y39394D01*
X56595Y40391D02*
X62545Y40391D01*
X62545Y41388D02*
X56595Y41388D01*
X56595Y42385D02*
X62545Y42385D01*
X62545Y43382D02*
X56595Y43382D01*
X56595Y44379D02*
X62545Y44379D01*
X62545Y45376D02*
X56595Y45376D01*
X77545Y46365D02*
X77545Y32415D01*
X71595Y32415D01*
X71595Y46365D01*
X77545Y46365D01*
X77545Y33412D02*
X71595Y33412D01*
X71595Y34409D02*
X77545Y34409D01*
X77545Y35406D02*
X71595Y35406D01*
X71595Y36403D02*
X77545Y36403D01*
X77545Y37400D02*
X71595Y37400D01*
X71595Y38397D02*
X77545Y38397D01*
X77545Y39394D02*
X71595Y39394D01*
X71595Y40391D02*
X77545Y40391D01*
X77545Y41388D02*
X71595Y41388D01*
X71595Y42385D02*
X77545Y42385D01*
X77545Y43382D02*
X71595Y43382D01*
X71595Y44379D02*
X77545Y44379D01*
X77545Y45376D02*
X71595Y45376D01*
D12*
X20050Y28910D02*
X11090Y28910D01*
X11090Y35870D01*
X20050Y35870D01*
X20050Y28910D01*
X20050Y29898D02*
X11090Y29898D01*
X11090Y30886D02*
X20050Y30886D01*
X20050Y31874D02*
X11090Y31874D01*
X11090Y32862D02*
X20050Y32862D01*
X20050Y33850D02*
X11090Y33850D01*
X11090Y34838D02*
X20050Y34838D01*
X20050Y35826D02*
X11090Y35826D01*
X11090Y7910D02*
X20050Y7910D01*
X11090Y7910D02*
X11090Y14870D01*
X20050Y14870D01*
X20050Y7910D01*
X20050Y8898D02*
X11090Y8898D01*
X11090Y9886D02*
X20050Y9886D01*
X20050Y10874D02*
X11090Y10874D01*
X11090Y11862D02*
X20050Y11862D01*
X20050Y12850D02*
X11090Y12850D01*
X11090Y13838D02*
X20050Y13838D01*
X20050Y14826D02*
X11090Y14826D01*
X84090Y7910D02*
X93050Y7910D01*
X84090Y7910D02*
X84090Y14870D01*
X93050Y14870D01*
X93050Y7910D01*
X93050Y8898D02*
X84090Y8898D01*
X84090Y9886D02*
X93050Y9886D01*
X93050Y10874D02*
X84090Y10874D01*
X84090Y11862D02*
X93050Y11862D01*
X93050Y12850D02*
X84090Y12850D01*
X84090Y13838D02*
X93050Y13838D01*
X93050Y14826D02*
X84090Y14826D01*
X84090Y28910D02*
X93050Y28910D01*
X84090Y28910D02*
X84090Y35870D01*
X93050Y35870D01*
X93050Y28910D01*
X93050Y29898D02*
X84090Y29898D01*
X84090Y30886D02*
X93050Y30886D01*
X93050Y31874D02*
X84090Y31874D01*
X84090Y32862D02*
X93050Y32862D01*
X93050Y33850D02*
X84090Y33850D01*
X84090Y34838D02*
X93050Y34838D01*
X93050Y35826D02*
X84090Y35826D01*
D16*
X158543Y171676D02*
X158543Y190336D01*
X158543Y171676D02*
X153877Y171676D01*
X153877Y190336D01*
X158543Y190336D01*
X158543Y172649D02*
X153877Y172649D01*
X153877Y173622D02*
X158543Y173622D01*
X158543Y174595D02*
X153877Y174595D01*
X153877Y175568D02*
X158543Y175568D01*
X158543Y176541D02*
X153877Y176541D01*
X153877Y177514D02*
X158543Y177514D01*
X158543Y178487D02*
X153877Y178487D01*
X153877Y179460D02*
X158543Y179460D01*
X158543Y180433D02*
X153877Y180433D01*
X153877Y181406D02*
X158543Y181406D01*
X158543Y182379D02*
X153877Y182379D01*
X153877Y183352D02*
X158543Y183352D01*
X158543Y184325D02*
X153877Y184325D01*
X153877Y185298D02*
X158543Y185298D01*
X158543Y186271D02*
X153877Y186271D01*
X153877Y187244D02*
X158543Y187244D01*
X158543Y188217D02*
X153877Y188217D01*
X153877Y189190D02*
X158543Y189190D01*
X158543Y190163D02*
X153877Y190163D01*
X171243Y190336D02*
X171243Y171676D01*
X166577Y171676D01*
X166577Y190336D01*
X171243Y190336D01*
X171243Y172649D02*
X166577Y172649D01*
X166577Y173622D02*
X171243Y173622D01*
X171243Y174595D02*
X166577Y174595D01*
X166577Y175568D02*
X171243Y175568D01*
X171243Y176541D02*
X166577Y176541D01*
X166577Y177514D02*
X171243Y177514D01*
X171243Y178487D02*
X166577Y178487D01*
X166577Y179460D02*
X171243Y179460D01*
X171243Y180433D02*
X166577Y180433D01*
X166577Y181406D02*
X171243Y181406D01*
X171243Y182379D02*
X166577Y182379D01*
X166577Y183352D02*
X171243Y183352D01*
X171243Y184325D02*
X166577Y184325D01*
X166577Y185298D02*
X171243Y185298D01*
X171243Y186271D02*
X166577Y186271D01*
X166577Y187244D02*
X171243Y187244D01*
X171243Y188217D02*
X166577Y188217D01*
X166577Y189190D02*
X171243Y189190D01*
X171243Y190163D02*
X166577Y190163D01*
X183943Y190336D02*
X183943Y171676D01*
X179277Y171676D01*
X179277Y190336D01*
X183943Y190336D01*
X183943Y172649D02*
X179277Y172649D01*
X179277Y173622D02*
X183943Y173622D01*
X183943Y174595D02*
X179277Y174595D01*
X179277Y175568D02*
X183943Y175568D01*
X183943Y176541D02*
X179277Y176541D01*
X179277Y177514D02*
X183943Y177514D01*
X183943Y178487D02*
X179277Y178487D01*
X179277Y179460D02*
X183943Y179460D01*
X183943Y180433D02*
X179277Y180433D01*
X179277Y181406D02*
X183943Y181406D01*
X183943Y182379D02*
X179277Y182379D01*
X179277Y183352D02*
X183943Y183352D01*
X183943Y184325D02*
X179277Y184325D01*
X179277Y185298D02*
X183943Y185298D01*
X183943Y186271D02*
X179277Y186271D01*
X179277Y187244D02*
X183943Y187244D01*
X183943Y188217D02*
X179277Y188217D01*
X179277Y189190D02*
X183943Y189190D01*
X183943Y190163D02*
X179277Y190163D01*
X196643Y190336D02*
X196643Y171676D01*
X191977Y171676D01*
X191977Y190336D01*
X196643Y190336D01*
X196643Y172649D02*
X191977Y172649D01*
X191977Y173622D02*
X196643Y173622D01*
X196643Y174595D02*
X191977Y174595D01*
X191977Y175568D02*
X196643Y175568D01*
X196643Y176541D02*
X191977Y176541D01*
X191977Y177514D02*
X196643Y177514D01*
X196643Y178487D02*
X191977Y178487D01*
X191977Y179460D02*
X196643Y179460D01*
X196643Y180433D02*
X191977Y180433D01*
X191977Y181406D02*
X196643Y181406D01*
X196643Y182379D02*
X191977Y182379D01*
X191977Y183352D02*
X196643Y183352D01*
X196643Y184325D02*
X191977Y184325D01*
X191977Y185298D02*
X196643Y185298D01*
X196643Y186271D02*
X191977Y186271D01*
X191977Y187244D02*
X196643Y187244D01*
X196643Y188217D02*
X191977Y188217D01*
X191977Y189190D02*
X196643Y189190D01*
X196643Y190163D02*
X191977Y190163D01*
X196643Y221144D02*
X196643Y239804D01*
X196643Y221144D02*
X191977Y221144D01*
X191977Y239804D01*
X196643Y239804D01*
X196643Y222117D02*
X191977Y222117D01*
X191977Y223090D02*
X196643Y223090D01*
X196643Y224063D02*
X191977Y224063D01*
X191977Y225036D02*
X196643Y225036D01*
X196643Y226009D02*
X191977Y226009D01*
X191977Y226982D02*
X196643Y226982D01*
X196643Y227955D02*
X191977Y227955D01*
X191977Y228928D02*
X196643Y228928D01*
X196643Y229901D02*
X191977Y229901D01*
X191977Y230874D02*
X196643Y230874D01*
X196643Y231847D02*
X191977Y231847D01*
X191977Y232820D02*
X196643Y232820D01*
X196643Y233793D02*
X191977Y233793D01*
X191977Y234766D02*
X196643Y234766D01*
X196643Y235739D02*
X191977Y235739D01*
X191977Y236712D02*
X196643Y236712D01*
X196643Y237685D02*
X191977Y237685D01*
X191977Y238658D02*
X196643Y238658D01*
X196643Y239631D02*
X191977Y239631D01*
X183943Y239804D02*
X183943Y221144D01*
X179277Y221144D01*
X179277Y239804D01*
X183943Y239804D01*
X183943Y222117D02*
X179277Y222117D01*
X179277Y223090D02*
X183943Y223090D01*
X183943Y224063D02*
X179277Y224063D01*
X179277Y225036D02*
X183943Y225036D01*
X183943Y226009D02*
X179277Y226009D01*
X179277Y226982D02*
X183943Y226982D01*
X183943Y227955D02*
X179277Y227955D01*
X179277Y228928D02*
X183943Y228928D01*
X183943Y229901D02*
X179277Y229901D01*
X179277Y230874D02*
X183943Y230874D01*
X183943Y231847D02*
X179277Y231847D01*
X179277Y232820D02*
X183943Y232820D01*
X183943Y233793D02*
X179277Y233793D01*
X179277Y234766D02*
X183943Y234766D01*
X183943Y235739D02*
X179277Y235739D01*
X179277Y236712D02*
X183943Y236712D01*
X183943Y237685D02*
X179277Y237685D01*
X179277Y238658D02*
X183943Y238658D01*
X183943Y239631D02*
X179277Y239631D01*
X171243Y239804D02*
X171243Y221144D01*
X166577Y221144D01*
X166577Y239804D01*
X171243Y239804D01*
X171243Y222117D02*
X166577Y222117D01*
X166577Y223090D02*
X171243Y223090D01*
X171243Y224063D02*
X166577Y224063D01*
X166577Y225036D02*
X171243Y225036D01*
X171243Y226009D02*
X166577Y226009D01*
X166577Y226982D02*
X171243Y226982D01*
X171243Y227955D02*
X166577Y227955D01*
X166577Y228928D02*
X171243Y228928D01*
X171243Y229901D02*
X166577Y229901D01*
X166577Y230874D02*
X171243Y230874D01*
X171243Y231847D02*
X166577Y231847D01*
X166577Y232820D02*
X171243Y232820D01*
X171243Y233793D02*
X166577Y233793D01*
X166577Y234766D02*
X171243Y234766D01*
X171243Y235739D02*
X166577Y235739D01*
X166577Y236712D02*
X171243Y236712D01*
X171243Y237685D02*
X166577Y237685D01*
X166577Y238658D02*
X171243Y238658D01*
X171243Y239631D02*
X166577Y239631D01*
X158543Y239804D02*
X158543Y221144D01*
X153877Y221144D01*
X153877Y239804D01*
X158543Y239804D01*
X158543Y222117D02*
X153877Y222117D01*
X153877Y223090D02*
X158543Y223090D01*
X158543Y224063D02*
X153877Y224063D01*
X153877Y225036D02*
X158543Y225036D01*
X158543Y226009D02*
X153877Y226009D01*
X153877Y226982D02*
X158543Y226982D01*
X158543Y227955D02*
X153877Y227955D01*
X153877Y228928D02*
X158543Y228928D01*
X158543Y229901D02*
X153877Y229901D01*
X153877Y230874D02*
X158543Y230874D01*
X158543Y231847D02*
X153877Y231847D01*
X153877Y232820D02*
X158543Y232820D01*
X158543Y233793D02*
X153877Y233793D01*
X153877Y234766D02*
X158543Y234766D01*
X158543Y235739D02*
X153877Y235739D01*
X153877Y236712D02*
X158543Y236712D01*
X158543Y237685D02*
X153877Y237685D01*
X153877Y238658D02*
X158543Y238658D01*
X158543Y239631D02*
X153877Y239631D01*
D17*
X43180Y217170D03*
D18*
X43180Y167170D03*
D19*
X43180Y289941D02*
X43180Y299339D01*
X68580Y299339D02*
X68580Y289941D01*
X93980Y289941D02*
X93980Y299339D01*
X119380Y299339D02*
X119380Y289941D01*
X144780Y289941D02*
X144780Y299339D01*
X170180Y299339D02*
X170180Y289941D01*
X195580Y289941D02*
X195580Y299339D01*
X220980Y299339D02*
X220980Y289941D01*
X246380Y289941D02*
X246380Y299339D01*
D20*
X156210Y196850D02*
X156210Y181006D01*
X156210Y196850D02*
X165100Y205740D01*
X201930Y205740D02*
X220980Y224790D01*
X220980Y294640D01*
X201930Y205740D02*
X165100Y205740D01*
X145600Y100390D02*
X145600Y88900D01*
X145600Y100390D02*
X133190Y114300D01*
X133190Y137160D01*
X134460Y138430D01*
X153670Y138430D02*
X168910Y153670D01*
X168910Y181006D01*
X153670Y138430D02*
X134460Y138430D01*
X133190Y137160D02*
X133190Y147480D01*
X93980Y186690D02*
X93980Y294640D01*
X93980Y186690D02*
X133190Y147480D01*
X194310Y181006D02*
X194914Y181610D01*
X220980Y181610D01*
X246380Y207010D01*
X246380Y294640D01*
X194310Y293370D02*
X194310Y230474D01*
X194310Y293370D02*
X195580Y294640D01*
X181610Y256540D02*
X181610Y230474D01*
X181610Y256540D02*
X170180Y267970D01*
X170180Y294640D01*
X144780Y275590D02*
X168910Y251460D01*
X144780Y275590D02*
X144780Y294640D01*
X168910Y251460D02*
X168910Y230474D01*
X156210Y230474D02*
X140366Y230474D01*
X119380Y251460D01*
X119380Y294640D01*
D21*
X199840Y76200D02*
X199840Y63500D01*
D22*
X241300Y152400D03*
D23*
X83440Y48260D02*
X74570Y39390D01*
X269240Y11430D02*
X278130Y20320D01*
X278130Y115570D01*
X241300Y152400D01*
X95250Y48260D02*
X83440Y48260D01*
X95250Y48260D02*
X132080Y11430D01*
X269240Y11430D01*
X256540Y98820D02*
X241300Y114060D01*
X241300Y152400D01*
X215900Y76200D02*
X199840Y76200D01*
X215900Y76200D02*
X222250Y82550D01*
X222250Y133350D01*
D24*
X181610Y161290D02*
X181610Y181006D01*
X190500Y152400D02*
X241300Y152400D01*
X190500Y152400D02*
X181610Y161290D01*
D23*
X222250Y133350D02*
X241300Y152400D01*
D24*
X199840Y76200D02*
X145600Y76200D01*
X145600Y63500D01*
X199840Y63500D01*
X145600Y76200D02*
X130810Y76200D01*
X113030Y93980D01*
X113030Y114140D01*
X113190Y114300D01*
X113190Y137160D01*
X111600Y115570D02*
X53180Y115570D01*
X111600Y115570D02*
X113030Y114140D01*
X43180Y167170D02*
X68580Y192570D01*
X68580Y294640D01*
X73190Y137160D02*
X113190Y137160D01*
X73190Y137160D02*
X43180Y167170D01*
D20*
X134620Y50800D02*
X145600Y50800D01*
X134620Y50800D02*
X86360Y99060D01*
X43180Y99060D01*
X34680Y107560D02*
X33180Y115570D01*
X34680Y107560D02*
X43180Y99060D01*
D24*
X29570Y80920D02*
X29570Y39390D01*
X16510Y107950D02*
X24130Y115570D01*
X33180Y115570D01*
X16510Y93980D02*
X29570Y80920D01*
X16510Y93980D02*
X16510Y107950D01*
X33180Y115570D02*
X19050Y129700D01*
X19050Y193040D02*
X43180Y217170D01*
X19050Y193040D02*
X19050Y129700D01*
X43180Y217170D02*
X43180Y294640D01*
D20*
X59570Y58300D02*
X59570Y39390D01*
X59570Y58300D02*
X66040Y64770D01*
X99060Y64770D01*
X130810Y33020D01*
X226030Y33020D02*
X227300Y34290D01*
X226030Y33020D02*
X130810Y33020D01*
X255300Y67580D02*
X256540Y68820D01*
X255300Y67580D02*
X255300Y50800D01*
X255300Y34290D01*
D21*
X255300Y50800D02*
X199840Y50800D01*
M02*
