G04 EAGLE Gerber RS-274X export*
G75*
%MOMM*%
%FSLAX34Y34*%
%LPD*%
%INTop Copper*%
%IPPOS*%
%AMOC8*
5,1,8,0,0,1.08239X$1,22.5*%
G01*
%ADD10C,0.130000*%
%ADD11C,0.104000*%
%ADD12C,0.120000*%
%ADD13C,0.160000*%
%ADD14C,0.105000*%
%ADD15C,0.102438*%
%ADD16R,2.032000X2.032000*%
%ADD17C,2.032000*%
%ADD18C,1.879600*%
%ADD19C,0.508000*%
%ADD20C,0.406400*%
%ADD21C,1.762000*%
%ADD22C,0.812800*%
%ADD23C,0.609600*%


D10*
X127340Y144510D02*
X139040Y144510D01*
X139040Y129810D01*
X127340Y129810D01*
X127340Y144510D01*
X127340Y131045D02*
X139040Y131045D01*
X139040Y132280D02*
X127340Y132280D01*
X127340Y133515D02*
X139040Y133515D01*
X139040Y134750D02*
X127340Y134750D01*
X127340Y135985D02*
X139040Y135985D01*
X139040Y137220D02*
X127340Y137220D01*
X127340Y138455D02*
X139040Y138455D01*
X139040Y139690D02*
X127340Y139690D01*
X127340Y140925D02*
X139040Y140925D01*
X139040Y142160D02*
X127340Y142160D01*
X127340Y143395D02*
X139040Y143395D01*
X119040Y144510D02*
X107340Y144510D01*
X119040Y144510D02*
X119040Y129810D01*
X107340Y129810D01*
X107340Y144510D01*
X107340Y131045D02*
X119040Y131045D01*
X119040Y132280D02*
X107340Y132280D01*
X107340Y133515D02*
X119040Y133515D01*
X119040Y134750D02*
X107340Y134750D01*
X107340Y135985D02*
X119040Y135985D01*
X119040Y137220D02*
X107340Y137220D01*
X107340Y138455D02*
X119040Y138455D01*
X119040Y139690D02*
X107340Y139690D01*
X107340Y140925D02*
X119040Y140925D01*
X119040Y142160D02*
X107340Y142160D01*
X107340Y143395D02*
X119040Y143395D01*
X127340Y121650D02*
X139040Y121650D01*
X139040Y106950D01*
X127340Y106950D01*
X127340Y121650D01*
X127340Y108185D02*
X139040Y108185D01*
X139040Y109420D02*
X127340Y109420D01*
X127340Y110655D02*
X139040Y110655D01*
X139040Y111890D02*
X127340Y111890D01*
X127340Y113125D02*
X139040Y113125D01*
X139040Y114360D02*
X127340Y114360D01*
X127340Y115595D02*
X139040Y115595D01*
X139040Y116830D02*
X127340Y116830D01*
X127340Y118065D02*
X139040Y118065D01*
X139040Y119300D02*
X127340Y119300D01*
X127340Y120535D02*
X139040Y120535D01*
X119040Y121650D02*
X107340Y121650D01*
X119040Y121650D02*
X119040Y106950D01*
X107340Y106950D01*
X107340Y121650D01*
X107340Y108185D02*
X119040Y108185D01*
X119040Y109420D02*
X107340Y109420D01*
X107340Y110655D02*
X119040Y110655D01*
X119040Y111890D02*
X107340Y111890D01*
X107340Y113125D02*
X119040Y113125D01*
X119040Y114360D02*
X107340Y114360D01*
X107340Y115595D02*
X119040Y115595D01*
X119040Y116830D02*
X107340Y116830D01*
X107340Y118065D02*
X119040Y118065D01*
X119040Y119300D02*
X107340Y119300D01*
X107340Y120535D02*
X119040Y120535D01*
X39030Y108220D02*
X27330Y108220D01*
X27330Y122920D01*
X39030Y122920D01*
X39030Y108220D01*
X39030Y109455D02*
X27330Y109455D01*
X27330Y110690D02*
X39030Y110690D01*
X39030Y111925D02*
X27330Y111925D01*
X27330Y113160D02*
X39030Y113160D01*
X39030Y114395D02*
X27330Y114395D01*
X27330Y115630D02*
X39030Y115630D01*
X39030Y116865D02*
X27330Y116865D01*
X27330Y118100D02*
X39030Y118100D01*
X39030Y119335D02*
X27330Y119335D01*
X27330Y120570D02*
X39030Y120570D01*
X39030Y121805D02*
X27330Y121805D01*
X47330Y108220D02*
X59030Y108220D01*
X47330Y108220D02*
X47330Y122920D01*
X59030Y122920D01*
X59030Y108220D01*
X59030Y109455D02*
X47330Y109455D01*
X47330Y110690D02*
X59030Y110690D01*
X59030Y111925D02*
X47330Y111925D01*
X47330Y113160D02*
X59030Y113160D01*
X59030Y114395D02*
X47330Y114395D01*
X47330Y115630D02*
X59030Y115630D01*
X59030Y116865D02*
X47330Y116865D01*
X47330Y118100D02*
X59030Y118100D01*
X59030Y119335D02*
X47330Y119335D01*
X47330Y120570D02*
X59030Y120570D01*
X59030Y121805D02*
X47330Y121805D01*
D11*
X138495Y86170D02*
X152705Y86170D01*
X138495Y86170D02*
X138495Y91630D01*
X152705Y91630D01*
X152705Y86170D01*
X152705Y87158D02*
X138495Y87158D01*
X138495Y88146D02*
X152705Y88146D01*
X152705Y89134D02*
X138495Y89134D01*
X138495Y90122D02*
X152705Y90122D01*
X152705Y91110D02*
X138495Y91110D01*
X138495Y73470D02*
X152705Y73470D01*
X138495Y73470D02*
X138495Y78930D01*
X152705Y78930D01*
X152705Y73470D01*
X152705Y74458D02*
X138495Y74458D01*
X138495Y75446D02*
X152705Y75446D01*
X152705Y76434D02*
X138495Y76434D01*
X138495Y77422D02*
X152705Y77422D01*
X152705Y78410D02*
X138495Y78410D01*
X138495Y60770D02*
X152705Y60770D01*
X138495Y60770D02*
X138495Y66230D01*
X152705Y66230D01*
X152705Y60770D01*
X152705Y61758D02*
X138495Y61758D01*
X138495Y62746D02*
X152705Y62746D01*
X152705Y63734D02*
X138495Y63734D01*
X138495Y64722D02*
X152705Y64722D01*
X152705Y65710D02*
X138495Y65710D01*
X138495Y48070D02*
X152705Y48070D01*
X138495Y48070D02*
X138495Y53530D01*
X152705Y53530D01*
X152705Y48070D01*
X152705Y49058D02*
X138495Y49058D01*
X138495Y50046D02*
X152705Y50046D01*
X152705Y51034D02*
X138495Y51034D01*
X138495Y52022D02*
X152705Y52022D01*
X152705Y53010D02*
X138495Y53010D01*
X192735Y48070D02*
X206945Y48070D01*
X192735Y48070D02*
X192735Y53530D01*
X206945Y53530D01*
X206945Y48070D01*
X206945Y49058D02*
X192735Y49058D01*
X192735Y50046D02*
X206945Y50046D01*
X206945Y51034D02*
X192735Y51034D01*
X192735Y52022D02*
X206945Y52022D01*
X206945Y53010D02*
X192735Y53010D01*
X192735Y60770D02*
X206945Y60770D01*
X192735Y60770D02*
X192735Y66230D01*
X206945Y66230D01*
X206945Y60770D01*
X206945Y61758D02*
X192735Y61758D01*
X192735Y62746D02*
X206945Y62746D01*
X206945Y63734D02*
X192735Y63734D01*
X192735Y64722D02*
X206945Y64722D01*
X206945Y65710D02*
X192735Y65710D01*
X192735Y73470D02*
X206945Y73470D01*
X192735Y73470D02*
X192735Y78930D01*
X206945Y78930D01*
X206945Y73470D01*
X206945Y74458D02*
X192735Y74458D01*
X192735Y75446D02*
X206945Y75446D01*
X206945Y76434D02*
X192735Y76434D01*
X192735Y77422D02*
X206945Y77422D01*
X206945Y78410D02*
X192735Y78410D01*
X192735Y86170D02*
X206945Y86170D01*
X192735Y86170D02*
X192735Y91630D01*
X206945Y91630D01*
X206945Y86170D01*
X206945Y87158D02*
X192735Y87158D01*
X192735Y88146D02*
X206945Y88146D01*
X206945Y89134D02*
X192735Y89134D01*
X192735Y90122D02*
X206945Y90122D01*
X206945Y91110D02*
X192735Y91110D01*
D12*
X262940Y74220D02*
X262940Y63420D01*
X250140Y63420D01*
X250140Y74220D01*
X262940Y74220D01*
X262940Y64560D02*
X250140Y64560D01*
X250140Y65700D02*
X262940Y65700D01*
X262940Y66840D02*
X250140Y66840D01*
X250140Y67980D02*
X262940Y67980D01*
X262940Y69120D02*
X250140Y69120D01*
X250140Y70260D02*
X262940Y70260D01*
X262940Y71400D02*
X250140Y71400D01*
X250140Y72540D02*
X262940Y72540D01*
X262940Y73680D02*
X250140Y73680D01*
X262940Y93420D02*
X262940Y104220D01*
X262940Y93420D02*
X250140Y93420D01*
X250140Y104220D01*
X262940Y104220D01*
X262940Y94560D02*
X250140Y94560D01*
X250140Y95700D02*
X262940Y95700D01*
X262940Y96840D02*
X250140Y96840D01*
X250140Y97980D02*
X262940Y97980D01*
X262940Y99120D02*
X250140Y99120D01*
X250140Y100260D02*
X262940Y100260D01*
X262940Y101400D02*
X250140Y101400D01*
X250140Y102540D02*
X262940Y102540D01*
X262940Y103680D02*
X250140Y103680D01*
D13*
X234500Y26090D02*
X220100Y26090D01*
X220100Y42490D01*
X234500Y42490D01*
X234500Y26090D01*
X234500Y27610D02*
X220100Y27610D01*
X220100Y29130D02*
X234500Y29130D01*
X234500Y30650D02*
X220100Y30650D01*
X220100Y32170D02*
X234500Y32170D01*
X234500Y33690D02*
X220100Y33690D01*
X220100Y35210D02*
X234500Y35210D01*
X234500Y36730D02*
X220100Y36730D01*
X220100Y38250D02*
X234500Y38250D01*
X234500Y39770D02*
X220100Y39770D01*
X220100Y41290D02*
X234500Y41290D01*
X248100Y26090D02*
X262500Y26090D01*
X248100Y26090D02*
X248100Y42490D01*
X262500Y42490D01*
X262500Y26090D01*
X262500Y27610D02*
X248100Y27610D01*
X248100Y29130D02*
X262500Y29130D01*
X262500Y30650D02*
X248100Y30650D01*
X248100Y32170D02*
X262500Y32170D01*
X262500Y33690D02*
X248100Y33690D01*
X248100Y35210D02*
X262500Y35210D01*
X262500Y36730D02*
X248100Y36730D01*
X248100Y38250D02*
X262500Y38250D01*
X262500Y39770D02*
X248100Y39770D01*
X248100Y41290D02*
X262500Y41290D01*
D14*
X32545Y46365D02*
X32545Y32415D01*
X26595Y32415D01*
X26595Y46365D01*
X32545Y46365D01*
X32545Y33412D02*
X26595Y33412D01*
X26595Y34409D02*
X32545Y34409D01*
X32545Y35406D02*
X26595Y35406D01*
X26595Y36403D02*
X32545Y36403D01*
X32545Y37400D02*
X26595Y37400D01*
X26595Y38397D02*
X32545Y38397D01*
X32545Y39394D02*
X26595Y39394D01*
X26595Y40391D02*
X32545Y40391D01*
X32545Y41388D02*
X26595Y41388D01*
X26595Y42385D02*
X32545Y42385D01*
X32545Y43382D02*
X26595Y43382D01*
X26595Y44379D02*
X32545Y44379D01*
X32545Y45376D02*
X26595Y45376D01*
X62545Y46365D02*
X62545Y32415D01*
X56595Y32415D01*
X56595Y46365D01*
X62545Y46365D01*
X62545Y33412D02*
X56595Y33412D01*
X56595Y34409D02*
X62545Y34409D01*
X62545Y35406D02*
X56595Y35406D01*
X56595Y36403D02*
X62545Y36403D01*
X62545Y37400D02*
X56595Y37400D01*
X56595Y38397D02*
X62545Y38397D01*
X62545Y39394D02*
X56595Y39394D01*
X56595Y40391D02*
X62545Y40391D01*
X62545Y41388D02*
X56595Y41388D01*
X56595Y42385D02*
X62545Y42385D01*
X62545Y43382D02*
X56595Y43382D01*
X56595Y44379D02*
X62545Y44379D01*
X62545Y45376D02*
X56595Y45376D01*
X77545Y46365D02*
X77545Y32415D01*
X71595Y32415D01*
X71595Y46365D01*
X77545Y46365D01*
X77545Y33412D02*
X71595Y33412D01*
X71595Y34409D02*
X77545Y34409D01*
X77545Y35406D02*
X71595Y35406D01*
X71595Y36403D02*
X77545Y36403D01*
X77545Y37400D02*
X71595Y37400D01*
X71595Y38397D02*
X77545Y38397D01*
X77545Y39394D02*
X71595Y39394D01*
X71595Y40391D02*
X77545Y40391D01*
X77545Y41388D02*
X71595Y41388D01*
X71595Y42385D02*
X77545Y42385D01*
X77545Y43382D02*
X71595Y43382D01*
X71595Y44379D02*
X77545Y44379D01*
X77545Y45376D02*
X71595Y45376D01*
D11*
X20050Y28910D02*
X11090Y28910D01*
X11090Y35870D01*
X20050Y35870D01*
X20050Y28910D01*
X20050Y29898D02*
X11090Y29898D01*
X11090Y30886D02*
X20050Y30886D01*
X20050Y31874D02*
X11090Y31874D01*
X11090Y32862D02*
X20050Y32862D01*
X20050Y33850D02*
X11090Y33850D01*
X11090Y34838D02*
X20050Y34838D01*
X20050Y35826D02*
X11090Y35826D01*
X11090Y7910D02*
X20050Y7910D01*
X11090Y7910D02*
X11090Y14870D01*
X20050Y14870D01*
X20050Y7910D01*
X20050Y8898D02*
X11090Y8898D01*
X11090Y9886D02*
X20050Y9886D01*
X20050Y10874D02*
X11090Y10874D01*
X11090Y11862D02*
X20050Y11862D01*
X20050Y12850D02*
X11090Y12850D01*
X11090Y13838D02*
X20050Y13838D01*
X20050Y14826D02*
X11090Y14826D01*
X84090Y7910D02*
X93050Y7910D01*
X84090Y7910D02*
X84090Y14870D01*
X93050Y14870D01*
X93050Y7910D01*
X93050Y8898D02*
X84090Y8898D01*
X84090Y9886D02*
X93050Y9886D01*
X93050Y10874D02*
X84090Y10874D01*
X84090Y11862D02*
X93050Y11862D01*
X93050Y12850D02*
X84090Y12850D01*
X84090Y13838D02*
X93050Y13838D01*
X93050Y14826D02*
X84090Y14826D01*
X84090Y28910D02*
X93050Y28910D01*
X84090Y28910D02*
X84090Y35870D01*
X93050Y35870D01*
X93050Y28910D01*
X93050Y29898D02*
X84090Y29898D01*
X84090Y30886D02*
X93050Y30886D01*
X93050Y31874D02*
X84090Y31874D01*
X84090Y32862D02*
X93050Y32862D01*
X93050Y33850D02*
X84090Y33850D01*
X84090Y34838D02*
X93050Y34838D01*
X93050Y35826D02*
X84090Y35826D01*
D15*
X158543Y171676D02*
X158543Y190336D01*
X158543Y171676D02*
X153877Y171676D01*
X153877Y190336D01*
X158543Y190336D01*
X158543Y172649D02*
X153877Y172649D01*
X153877Y173622D02*
X158543Y173622D01*
X158543Y174595D02*
X153877Y174595D01*
X153877Y175568D02*
X158543Y175568D01*
X158543Y176541D02*
X153877Y176541D01*
X153877Y177514D02*
X158543Y177514D01*
X158543Y178487D02*
X153877Y178487D01*
X153877Y179460D02*
X158543Y179460D01*
X158543Y180433D02*
X153877Y180433D01*
X153877Y181406D02*
X158543Y181406D01*
X158543Y182379D02*
X153877Y182379D01*
X153877Y183352D02*
X158543Y183352D01*
X158543Y184325D02*
X153877Y184325D01*
X153877Y185298D02*
X158543Y185298D01*
X158543Y186271D02*
X153877Y186271D01*
X153877Y187244D02*
X158543Y187244D01*
X158543Y188217D02*
X153877Y188217D01*
X153877Y189190D02*
X158543Y189190D01*
X158543Y190163D02*
X153877Y190163D01*
X171243Y190336D02*
X171243Y171676D01*
X166577Y171676D01*
X166577Y190336D01*
X171243Y190336D01*
X171243Y172649D02*
X166577Y172649D01*
X166577Y173622D02*
X171243Y173622D01*
X171243Y174595D02*
X166577Y174595D01*
X166577Y175568D02*
X171243Y175568D01*
X171243Y176541D02*
X166577Y176541D01*
X166577Y177514D02*
X171243Y177514D01*
X171243Y178487D02*
X166577Y178487D01*
X166577Y179460D02*
X171243Y179460D01*
X171243Y180433D02*
X166577Y180433D01*
X166577Y181406D02*
X171243Y181406D01*
X171243Y182379D02*
X166577Y182379D01*
X166577Y183352D02*
X171243Y183352D01*
X171243Y184325D02*
X166577Y184325D01*
X166577Y185298D02*
X171243Y185298D01*
X171243Y186271D02*
X166577Y186271D01*
X166577Y187244D02*
X171243Y187244D01*
X171243Y188217D02*
X166577Y188217D01*
X166577Y189190D02*
X171243Y189190D01*
X171243Y190163D02*
X166577Y190163D01*
X183943Y190336D02*
X183943Y171676D01*
X179277Y171676D01*
X179277Y190336D01*
X183943Y190336D01*
X183943Y172649D02*
X179277Y172649D01*
X179277Y173622D02*
X183943Y173622D01*
X183943Y174595D02*
X179277Y174595D01*
X179277Y175568D02*
X183943Y175568D01*
X183943Y176541D02*
X179277Y176541D01*
X179277Y177514D02*
X183943Y177514D01*
X183943Y178487D02*
X179277Y178487D01*
X179277Y179460D02*
X183943Y179460D01*
X183943Y180433D02*
X179277Y180433D01*
X179277Y181406D02*
X183943Y181406D01*
X183943Y182379D02*
X179277Y182379D01*
X179277Y183352D02*
X183943Y183352D01*
X183943Y184325D02*
X179277Y184325D01*
X179277Y185298D02*
X183943Y185298D01*
X183943Y186271D02*
X179277Y186271D01*
X179277Y187244D02*
X183943Y187244D01*
X183943Y188217D02*
X179277Y188217D01*
X179277Y189190D02*
X183943Y189190D01*
X183943Y190163D02*
X179277Y190163D01*
X196643Y190336D02*
X196643Y171676D01*
X191977Y171676D01*
X191977Y190336D01*
X196643Y190336D01*
X196643Y172649D02*
X191977Y172649D01*
X191977Y173622D02*
X196643Y173622D01*
X196643Y174595D02*
X191977Y174595D01*
X191977Y175568D02*
X196643Y175568D01*
X196643Y176541D02*
X191977Y176541D01*
X191977Y177514D02*
X196643Y177514D01*
X196643Y178487D02*
X191977Y178487D01*
X191977Y179460D02*
X196643Y179460D01*
X196643Y180433D02*
X191977Y180433D01*
X191977Y181406D02*
X196643Y181406D01*
X196643Y182379D02*
X191977Y182379D01*
X191977Y183352D02*
X196643Y183352D01*
X196643Y184325D02*
X191977Y184325D01*
X191977Y185298D02*
X196643Y185298D01*
X196643Y186271D02*
X191977Y186271D01*
X191977Y187244D02*
X196643Y187244D01*
X196643Y188217D02*
X191977Y188217D01*
X191977Y189190D02*
X196643Y189190D01*
X196643Y190163D02*
X191977Y190163D01*
X196643Y221144D02*
X196643Y239804D01*
X196643Y221144D02*
X191977Y221144D01*
X191977Y239804D01*
X196643Y239804D01*
X196643Y222117D02*
X191977Y222117D01*
X191977Y223090D02*
X196643Y223090D01*
X196643Y224063D02*
X191977Y224063D01*
X191977Y225036D02*
X196643Y225036D01*
X196643Y226009D02*
X191977Y226009D01*
X191977Y226982D02*
X196643Y226982D01*
X196643Y227955D02*
X191977Y227955D01*
X191977Y228928D02*
X196643Y228928D01*
X196643Y229901D02*
X191977Y229901D01*
X191977Y230874D02*
X196643Y230874D01*
X196643Y231847D02*
X191977Y231847D01*
X191977Y232820D02*
X196643Y232820D01*
X196643Y233793D02*
X191977Y233793D01*
X191977Y234766D02*
X196643Y234766D01*
X196643Y235739D02*
X191977Y235739D01*
X191977Y236712D02*
X196643Y236712D01*
X196643Y237685D02*
X191977Y237685D01*
X191977Y238658D02*
X196643Y238658D01*
X196643Y239631D02*
X191977Y239631D01*
X183943Y239804D02*
X183943Y221144D01*
X179277Y221144D01*
X179277Y239804D01*
X183943Y239804D01*
X183943Y222117D02*
X179277Y222117D01*
X179277Y223090D02*
X183943Y223090D01*
X183943Y224063D02*
X179277Y224063D01*
X179277Y225036D02*
X183943Y225036D01*
X183943Y226009D02*
X179277Y226009D01*
X179277Y226982D02*
X183943Y226982D01*
X183943Y227955D02*
X179277Y227955D01*
X179277Y228928D02*
X183943Y228928D01*
X183943Y229901D02*
X179277Y229901D01*
X179277Y230874D02*
X183943Y230874D01*
X183943Y231847D02*
X179277Y231847D01*
X179277Y232820D02*
X183943Y232820D01*
X183943Y233793D02*
X179277Y233793D01*
X179277Y234766D02*
X183943Y234766D01*
X183943Y235739D02*
X179277Y235739D01*
X179277Y236712D02*
X183943Y236712D01*
X183943Y237685D02*
X179277Y237685D01*
X179277Y238658D02*
X183943Y238658D01*
X183943Y239631D02*
X179277Y239631D01*
X171243Y239804D02*
X171243Y221144D01*
X166577Y221144D01*
X166577Y239804D01*
X171243Y239804D01*
X171243Y222117D02*
X166577Y222117D01*
X166577Y223090D02*
X171243Y223090D01*
X171243Y224063D02*
X166577Y224063D01*
X166577Y225036D02*
X171243Y225036D01*
X171243Y226009D02*
X166577Y226009D01*
X166577Y226982D02*
X171243Y226982D01*
X171243Y227955D02*
X166577Y227955D01*
X166577Y228928D02*
X171243Y228928D01*
X171243Y229901D02*
X166577Y229901D01*
X166577Y230874D02*
X171243Y230874D01*
X171243Y231847D02*
X166577Y231847D01*
X166577Y232820D02*
X171243Y232820D01*
X171243Y233793D02*
X166577Y233793D01*
X166577Y234766D02*
X171243Y234766D01*
X171243Y235739D02*
X166577Y235739D01*
X166577Y236712D02*
X171243Y236712D01*
X171243Y237685D02*
X166577Y237685D01*
X166577Y238658D02*
X171243Y238658D01*
X171243Y239631D02*
X166577Y239631D01*
X158543Y239804D02*
X158543Y221144D01*
X153877Y221144D01*
X153877Y239804D01*
X158543Y239804D01*
X158543Y222117D02*
X153877Y222117D01*
X153877Y223090D02*
X158543Y223090D01*
X158543Y224063D02*
X153877Y224063D01*
X153877Y225036D02*
X158543Y225036D01*
X158543Y226009D02*
X153877Y226009D01*
X153877Y226982D02*
X158543Y226982D01*
X158543Y227955D02*
X153877Y227955D01*
X153877Y228928D02*
X158543Y228928D01*
X158543Y229901D02*
X153877Y229901D01*
X153877Y230874D02*
X158543Y230874D01*
X158543Y231847D02*
X153877Y231847D01*
X153877Y232820D02*
X158543Y232820D01*
X158543Y233793D02*
X153877Y233793D01*
X153877Y234766D02*
X158543Y234766D01*
X158543Y235739D02*
X153877Y235739D01*
X153877Y236712D02*
X158543Y236712D01*
X158543Y237685D02*
X153877Y237685D01*
X153877Y238658D02*
X158543Y238658D01*
X158543Y239631D02*
X153877Y239631D01*
D16*
X43180Y217170D03*
D17*
X43180Y167170D03*
D18*
X43180Y289941D02*
X43180Y299339D01*
X68580Y299339D02*
X68580Y289941D01*
X93980Y289941D02*
X93980Y299339D01*
X119380Y299339D02*
X119380Y289941D01*
X144780Y289941D02*
X144780Y299339D01*
X170180Y299339D02*
X170180Y289941D01*
X195580Y289941D02*
X195580Y299339D01*
X220980Y299339D02*
X220980Y289941D01*
X246380Y289941D02*
X246380Y299339D01*
D19*
X156210Y196850D02*
X156210Y181006D01*
X156210Y196850D02*
X165100Y205740D01*
X201930Y205740D02*
X220980Y224790D01*
X220980Y294640D01*
X201930Y205740D02*
X165100Y205740D01*
X145600Y100390D02*
X145600Y88900D01*
X145600Y100390D02*
X133190Y114300D01*
X133190Y137160D01*
X134460Y138430D01*
X153670Y138430D02*
X168910Y153670D01*
X168910Y181006D01*
X153670Y138430D02*
X134460Y138430D01*
X133190Y137160D02*
X133190Y147480D01*
X93980Y186690D02*
X93980Y294640D01*
X93980Y186690D02*
X133190Y147480D01*
X194310Y181006D02*
X194914Y181610D01*
X220980Y181610D01*
X246380Y207010D01*
X246380Y294640D01*
X194310Y293370D02*
X194310Y230474D01*
X194310Y293370D02*
X195580Y294640D01*
X181610Y256540D02*
X181610Y230474D01*
X181610Y256540D02*
X170180Y267970D01*
X170180Y294640D01*
X144780Y275590D02*
X168910Y251460D01*
X144780Y275590D02*
X144780Y294640D01*
X168910Y251460D02*
X168910Y230474D01*
X156210Y230474D02*
X140366Y230474D01*
X119380Y251460D01*
X119380Y294640D01*
D20*
X199840Y76200D02*
X199840Y63500D01*
D21*
X241300Y152400D03*
D22*
X83440Y48260D02*
X74570Y39390D01*
X269240Y11430D02*
X278130Y20320D01*
X278130Y115570D01*
X241300Y152400D01*
X95250Y48260D02*
X83440Y48260D01*
X95250Y48260D02*
X132080Y11430D01*
X269240Y11430D01*
X256540Y98820D02*
X241300Y114060D01*
X241300Y152400D01*
X215900Y76200D02*
X199840Y76200D01*
X215900Y76200D02*
X222250Y82550D01*
X222250Y133350D01*
D23*
X181610Y161290D02*
X181610Y181006D01*
X190500Y152400D02*
X241300Y152400D01*
X190500Y152400D02*
X181610Y161290D01*
D22*
X222250Y133350D02*
X241300Y152400D01*
D23*
X199840Y76200D02*
X145600Y76200D01*
X145600Y63500D01*
X199840Y63500D01*
X145600Y76200D02*
X130810Y76200D01*
X113030Y93980D01*
X113030Y114140D01*
X113190Y114300D01*
X113190Y137160D01*
X111600Y115570D02*
X53180Y115570D01*
X111600Y115570D02*
X113030Y114140D01*
X43180Y167170D02*
X68580Y192570D01*
X68580Y294640D01*
X73190Y137160D02*
X113190Y137160D01*
X73190Y137160D02*
X43180Y167170D01*
D19*
X134620Y50800D02*
X145600Y50800D01*
X134620Y50800D02*
X86360Y99060D01*
X43180Y99060D01*
X34680Y107560D02*
X33180Y115570D01*
X34680Y107560D02*
X43180Y99060D01*
D23*
X29570Y80920D02*
X29570Y39390D01*
X16510Y107950D02*
X24130Y115570D01*
X33180Y115570D01*
X16510Y93980D02*
X29570Y80920D01*
X16510Y93980D02*
X16510Y107950D01*
X33180Y115570D02*
X19050Y129700D01*
X19050Y193040D02*
X43180Y217170D01*
X19050Y193040D02*
X19050Y129700D01*
X43180Y217170D02*
X43180Y294640D01*
D19*
X59570Y58300D02*
X59570Y39390D01*
X59570Y58300D02*
X66040Y64770D01*
X99060Y64770D01*
X130810Y33020D01*
X226030Y33020D02*
X227300Y34290D01*
X226030Y33020D02*
X130810Y33020D01*
X255300Y67580D02*
X256540Y68820D01*
X255300Y67580D02*
X255300Y50800D01*
X255300Y34290D01*
D20*
X255300Y50800D02*
X199840Y50800D01*
M02*
