G04 EAGLE Gerber RS-274X export*
G75*
%MOMM*%
%FSLAX34Y34*%
%LPD*%
%IN*%
%IPPOS*%
%AMOC8*
5,1,8,0,0,1.08239X$1,22.5*%
G01*
%ADD10C,0.254000*%


D10*
X0Y0D02*
X290000Y0D01*
X290930Y365400D01*
X0Y365400D01*
X0Y0D01*
X41570Y21595D02*
X41493Y21010D01*
X41340Y20440D01*
X41115Y19895D01*
X40820Y19385D01*
X40461Y18917D01*
X40043Y18499D01*
X39575Y18140D01*
X39065Y17845D01*
X38520Y17620D01*
X37950Y17467D01*
X37365Y17390D01*
X36775Y17390D01*
X36190Y17467D01*
X35620Y17620D01*
X35075Y17845D01*
X34565Y18140D01*
X34097Y18499D01*
X33679Y18917D01*
X33320Y19385D01*
X33025Y19895D01*
X32800Y20440D01*
X32647Y21010D01*
X32570Y21595D01*
X32570Y22185D01*
X32647Y22770D01*
X32800Y23340D01*
X33025Y23885D01*
X33320Y24395D01*
X33679Y24863D01*
X34097Y25281D01*
X34565Y25640D01*
X35075Y25935D01*
X35620Y26160D01*
X36190Y26313D01*
X36775Y26390D01*
X37365Y26390D01*
X37950Y26313D01*
X38520Y26160D01*
X39065Y25935D01*
X39575Y25640D01*
X40043Y25281D01*
X40461Y24863D01*
X40820Y24395D01*
X41115Y23885D01*
X41340Y23340D01*
X41493Y22770D01*
X41570Y22185D01*
X41570Y21595D01*
X71570Y21595D02*
X71493Y21010D01*
X71340Y20440D01*
X71115Y19895D01*
X70820Y19385D01*
X70461Y18917D01*
X70043Y18499D01*
X69575Y18140D01*
X69065Y17845D01*
X68520Y17620D01*
X67950Y17467D01*
X67365Y17390D01*
X66775Y17390D01*
X66190Y17467D01*
X65620Y17620D01*
X65075Y17845D01*
X64565Y18140D01*
X64097Y18499D01*
X63679Y18917D01*
X63320Y19385D01*
X63025Y19895D01*
X62800Y20440D01*
X62647Y21010D01*
X62570Y21595D01*
X62570Y22185D01*
X62647Y22770D01*
X62800Y23340D01*
X63025Y23885D01*
X63320Y24395D01*
X63679Y24863D01*
X64097Y25281D01*
X64565Y25640D01*
X65075Y25935D01*
X65620Y26160D01*
X66190Y26313D01*
X66775Y26390D01*
X67365Y26390D01*
X67950Y26313D01*
X68520Y26160D01*
X69065Y25935D01*
X69575Y25640D01*
X70043Y25281D01*
X70461Y24863D01*
X70820Y24395D01*
X71115Y23885D01*
X71340Y23340D01*
X71493Y22770D01*
X71570Y22185D01*
X71570Y21595D01*
M02*
