G04 EAGLE Gerber RS-274X export*
G75*
%MOMM*%
%FSLAX34Y34*%
%LPD*%
%INSilkscreen Top*%
%IPPOS*%
%AMOC8*
5,1,8,0,0,1.08239X$1,22.5*%
G01*
%ADD10C,0.076200*%
%ADD11C,0.101600*%
%ADD12C,0.050800*%
%ADD13C,0.200000*%
%ADD14C,0.203200*%
%ADD15C,0.025400*%
%ADD16C,0.100000*%
%ADD17C,0.500000*%
%ADD18C,0.120000*%
%ADD19C,0.127000*%


D10*
X140589Y176826D02*
X140587Y176904D01*
X140582Y176982D01*
X140572Y177059D01*
X140559Y177136D01*
X140543Y177212D01*
X140523Y177287D01*
X140499Y177361D01*
X140472Y177434D01*
X140441Y177506D01*
X140407Y177576D01*
X140370Y177645D01*
X140329Y177711D01*
X140285Y177776D01*
X140239Y177838D01*
X140189Y177898D01*
X140137Y177956D01*
X140082Y178011D01*
X140024Y178063D01*
X139964Y178113D01*
X139902Y178159D01*
X139837Y178203D01*
X139771Y178244D01*
X139702Y178281D01*
X139632Y178315D01*
X139560Y178346D01*
X139487Y178373D01*
X139413Y178397D01*
X139338Y178417D01*
X139262Y178433D01*
X139185Y178446D01*
X139108Y178456D01*
X139030Y178461D01*
X138952Y178463D01*
X140589Y176826D02*
X140587Y176712D01*
X140582Y176599D01*
X140572Y176485D01*
X140559Y176372D01*
X140542Y176260D01*
X140522Y176148D01*
X140498Y176037D01*
X140470Y175926D01*
X140439Y175817D01*
X140404Y175709D01*
X140365Y175602D01*
X140323Y175496D01*
X140278Y175392D01*
X140229Y175289D01*
X140176Y175188D01*
X140121Y175089D01*
X140062Y174991D01*
X140000Y174896D01*
X139935Y174803D01*
X139867Y174711D01*
X139796Y174623D01*
X139722Y174536D01*
X139645Y174452D01*
X139566Y174371D01*
X134860Y174576D02*
X134782Y174578D01*
X134704Y174583D01*
X134627Y174593D01*
X134550Y174606D01*
X134474Y174622D01*
X134399Y174642D01*
X134325Y174666D01*
X134252Y174693D01*
X134180Y174724D01*
X134110Y174758D01*
X134042Y174795D01*
X133975Y174836D01*
X133910Y174880D01*
X133848Y174926D01*
X133788Y174976D01*
X133730Y175028D01*
X133675Y175083D01*
X133623Y175141D01*
X133573Y175201D01*
X133527Y175263D01*
X133483Y175328D01*
X133442Y175395D01*
X133405Y175463D01*
X133371Y175533D01*
X133340Y175605D01*
X133313Y175678D01*
X133289Y175752D01*
X133269Y175827D01*
X133253Y175903D01*
X133240Y175980D01*
X133230Y176057D01*
X133225Y176135D01*
X133223Y176213D01*
X133225Y176323D01*
X133231Y176432D01*
X133241Y176542D01*
X133254Y176650D01*
X133272Y176759D01*
X133293Y176866D01*
X133319Y176973D01*
X133348Y177079D01*
X133380Y177184D01*
X133417Y177287D01*
X133457Y177389D01*
X133501Y177490D01*
X133549Y177589D01*
X133599Y177686D01*
X133654Y177781D01*
X133712Y177874D01*
X133773Y177965D01*
X133837Y178054D01*
X136292Y175394D02*
X136250Y175328D01*
X136206Y175263D01*
X136158Y175201D01*
X136108Y175141D01*
X136055Y175083D01*
X135999Y175028D01*
X135941Y174975D01*
X135880Y174926D01*
X135817Y174879D01*
X135752Y174835D01*
X135685Y174795D01*
X135616Y174758D01*
X135545Y174724D01*
X135473Y174693D01*
X135399Y174666D01*
X135324Y174642D01*
X135249Y174622D01*
X135172Y174606D01*
X135095Y174593D01*
X135017Y174583D01*
X134938Y174578D01*
X134860Y174576D01*
X137519Y177645D02*
X137561Y177712D01*
X137605Y177777D01*
X137653Y177839D01*
X137703Y177899D01*
X137756Y177957D01*
X137812Y178012D01*
X137871Y178064D01*
X137931Y178114D01*
X137995Y178161D01*
X138060Y178204D01*
X138127Y178245D01*
X138196Y178282D01*
X138267Y178316D01*
X138339Y178347D01*
X138413Y178374D01*
X138487Y178398D01*
X138563Y178418D01*
X138640Y178434D01*
X138717Y178447D01*
X138795Y178457D01*
X138874Y178462D01*
X138952Y178464D01*
X137520Y177645D02*
X136292Y175394D01*
X133223Y183001D02*
X140589Y183001D01*
X133223Y180955D02*
X133223Y185047D01*
X133223Y188105D02*
X140589Y188105D01*
X137315Y190560D02*
X133223Y188105D01*
X137315Y190560D02*
X133223Y193015D01*
X140589Y193015D01*
X140589Y196560D02*
X140589Y198607D01*
X140587Y198696D01*
X140581Y198785D01*
X140571Y198874D01*
X140558Y198962D01*
X140541Y199050D01*
X140519Y199137D01*
X140494Y199222D01*
X140466Y199307D01*
X140433Y199390D01*
X140397Y199472D01*
X140358Y199552D01*
X140315Y199630D01*
X140269Y199706D01*
X140219Y199781D01*
X140166Y199853D01*
X140110Y199922D01*
X140051Y199989D01*
X139990Y200054D01*
X139925Y200115D01*
X139858Y200174D01*
X139789Y200230D01*
X139717Y200283D01*
X139642Y200333D01*
X139566Y200379D01*
X139488Y200422D01*
X139408Y200461D01*
X139326Y200497D01*
X139243Y200530D01*
X139158Y200558D01*
X139073Y200583D01*
X138986Y200605D01*
X138898Y200622D01*
X138810Y200635D01*
X138721Y200645D01*
X138632Y200651D01*
X138543Y200653D01*
X138454Y200651D01*
X138365Y200645D01*
X138276Y200635D01*
X138188Y200622D01*
X138100Y200605D01*
X138013Y200583D01*
X137928Y200558D01*
X137843Y200530D01*
X137760Y200497D01*
X137678Y200461D01*
X137598Y200422D01*
X137520Y200379D01*
X137444Y200333D01*
X137369Y200283D01*
X137297Y200230D01*
X137228Y200174D01*
X137161Y200115D01*
X137096Y200054D01*
X137035Y199989D01*
X136976Y199922D01*
X136920Y199853D01*
X136867Y199781D01*
X136817Y199706D01*
X136771Y199630D01*
X136728Y199552D01*
X136689Y199472D01*
X136653Y199390D01*
X136620Y199307D01*
X136592Y199222D01*
X136567Y199137D01*
X136545Y199050D01*
X136528Y198962D01*
X136515Y198874D01*
X136505Y198785D01*
X136499Y198696D01*
X136497Y198607D01*
X133223Y199016D02*
X133223Y196560D01*
X133223Y199016D02*
X133225Y199095D01*
X133231Y199174D01*
X133240Y199253D01*
X133253Y199331D01*
X133271Y199408D01*
X133291Y199484D01*
X133316Y199559D01*
X133344Y199633D01*
X133375Y199706D01*
X133411Y199777D01*
X133449Y199846D01*
X133491Y199913D01*
X133536Y199978D01*
X133584Y200041D01*
X133635Y200102D01*
X133689Y200159D01*
X133745Y200215D01*
X133804Y200267D01*
X133866Y200317D01*
X133930Y200363D01*
X133996Y200407D01*
X134064Y200447D01*
X134134Y200483D01*
X134206Y200517D01*
X134280Y200547D01*
X134354Y200573D01*
X134430Y200596D01*
X134507Y200614D01*
X134584Y200630D01*
X134663Y200641D01*
X134741Y200649D01*
X134820Y200653D01*
X134900Y200653D01*
X134979Y200649D01*
X135057Y200641D01*
X135136Y200630D01*
X135213Y200614D01*
X135290Y200596D01*
X135366Y200573D01*
X135440Y200547D01*
X135514Y200517D01*
X135586Y200483D01*
X135656Y200447D01*
X135724Y200407D01*
X135790Y200363D01*
X135854Y200317D01*
X135916Y200267D01*
X135975Y200215D01*
X136031Y200159D01*
X136085Y200102D01*
X136136Y200041D01*
X136184Y199978D01*
X136229Y199913D01*
X136271Y199846D01*
X136309Y199777D01*
X136345Y199706D01*
X136376Y199633D01*
X136404Y199559D01*
X136429Y199484D01*
X136449Y199408D01*
X136467Y199331D01*
X136480Y199253D01*
X136489Y199174D01*
X136495Y199095D01*
X136497Y199016D01*
X136497Y197379D01*
X133223Y206126D02*
X133225Y206211D01*
X133231Y206296D01*
X133241Y206380D01*
X133254Y206464D01*
X133272Y206548D01*
X133293Y206630D01*
X133318Y206711D01*
X133347Y206791D01*
X133380Y206870D01*
X133416Y206947D01*
X133456Y207022D01*
X133499Y207096D01*
X133545Y207167D01*
X133595Y207236D01*
X133648Y207303D01*
X133704Y207367D01*
X133763Y207428D01*
X133824Y207487D01*
X133888Y207543D01*
X133955Y207596D01*
X134024Y207646D01*
X134095Y207692D01*
X134169Y207735D01*
X134244Y207775D01*
X134321Y207811D01*
X134400Y207844D01*
X134480Y207873D01*
X134561Y207898D01*
X134643Y207919D01*
X134727Y207937D01*
X134811Y207950D01*
X134895Y207960D01*
X134980Y207966D01*
X135065Y207968D01*
X133223Y206126D02*
X133225Y206030D01*
X133231Y205934D01*
X133241Y205839D01*
X133254Y205744D01*
X133272Y205649D01*
X133293Y205556D01*
X133318Y205463D01*
X133347Y205372D01*
X133379Y205281D01*
X133415Y205192D01*
X133455Y205105D01*
X133498Y205019D01*
X133544Y204935D01*
X133594Y204853D01*
X133648Y204773D01*
X133704Y204696D01*
X133764Y204621D01*
X133826Y204548D01*
X133892Y204478D01*
X133960Y204410D01*
X134031Y204345D01*
X134104Y204284D01*
X134180Y204225D01*
X134259Y204169D01*
X134339Y204117D01*
X134422Y204068D01*
X134506Y204022D01*
X134592Y203980D01*
X134680Y203942D01*
X134769Y203907D01*
X134860Y203875D01*
X136497Y207354D02*
X136438Y207414D01*
X136376Y207471D01*
X136312Y207526D01*
X136245Y207577D01*
X136176Y207626D01*
X136106Y207672D01*
X136033Y207715D01*
X135959Y207755D01*
X135883Y207791D01*
X135805Y207824D01*
X135726Y207854D01*
X135646Y207881D01*
X135565Y207904D01*
X135483Y207923D01*
X135401Y207939D01*
X135317Y207952D01*
X135233Y207961D01*
X135149Y207966D01*
X135065Y207968D01*
X136497Y207354D02*
X140589Y203876D01*
X140589Y207968D01*
X136497Y214299D02*
X136497Y215527D01*
X140589Y215527D01*
X140589Y213072D01*
X140587Y212994D01*
X140582Y212916D01*
X140572Y212839D01*
X140559Y212762D01*
X140543Y212686D01*
X140523Y212611D01*
X140499Y212537D01*
X140472Y212464D01*
X140441Y212392D01*
X140407Y212322D01*
X140370Y212254D01*
X140329Y212187D01*
X140285Y212122D01*
X140239Y212060D01*
X140189Y212000D01*
X140137Y211942D01*
X140082Y211887D01*
X140024Y211835D01*
X139964Y211785D01*
X139902Y211739D01*
X139837Y211695D01*
X139771Y211654D01*
X139702Y211617D01*
X139632Y211583D01*
X139560Y211552D01*
X139487Y211525D01*
X139413Y211501D01*
X139338Y211481D01*
X139262Y211465D01*
X139185Y211452D01*
X139108Y211442D01*
X139030Y211437D01*
X138952Y211435D01*
X134860Y211435D01*
X134780Y211437D01*
X134700Y211443D01*
X134620Y211453D01*
X134541Y211466D01*
X134462Y211484D01*
X134385Y211505D01*
X134309Y211531D01*
X134234Y211560D01*
X134160Y211592D01*
X134088Y211628D01*
X134018Y211668D01*
X133951Y211711D01*
X133885Y211757D01*
X133822Y211807D01*
X133761Y211859D01*
X133702Y211914D01*
X133647Y211973D01*
X133595Y212033D01*
X133545Y212097D01*
X133499Y212162D01*
X133456Y212230D01*
X133416Y212300D01*
X133380Y212372D01*
X133348Y212446D01*
X133319Y212520D01*
X133294Y212597D01*
X133272Y212674D01*
X133254Y212753D01*
X133241Y212832D01*
X133231Y212911D01*
X133225Y212992D01*
X133223Y213072D01*
X133223Y215527D01*
X134246Y219608D02*
X134385Y219542D01*
X134524Y219481D01*
X134666Y219422D01*
X134809Y219368D01*
X134953Y219317D01*
X135098Y219269D01*
X135245Y219226D01*
X135393Y219186D01*
X135541Y219149D01*
X135691Y219117D01*
X135841Y219088D01*
X135992Y219063D01*
X136143Y219042D01*
X136295Y219025D01*
X136448Y219011D01*
X136600Y219002D01*
X136753Y218996D01*
X136906Y218994D01*
X134246Y219608D02*
X134176Y219634D01*
X134106Y219664D01*
X134039Y219697D01*
X133973Y219733D01*
X133909Y219772D01*
X133847Y219815D01*
X133788Y219861D01*
X133730Y219909D01*
X133676Y219960D01*
X133623Y220014D01*
X133574Y220071D01*
X133527Y220130D01*
X133484Y220191D01*
X133443Y220254D01*
X133406Y220319D01*
X133371Y220386D01*
X133341Y220455D01*
X133313Y220525D01*
X133290Y220596D01*
X133269Y220668D01*
X133253Y220741D01*
X133240Y220815D01*
X133230Y220890D01*
X133225Y220965D01*
X133223Y221040D01*
X133225Y221115D01*
X133230Y221190D01*
X133240Y221265D01*
X133253Y221339D01*
X133269Y221412D01*
X133290Y221484D01*
X133313Y221555D01*
X133341Y221625D01*
X133371Y221694D01*
X133406Y221761D01*
X133443Y221826D01*
X133484Y221889D01*
X133527Y221950D01*
X133574Y222009D01*
X133623Y222066D01*
X133676Y222120D01*
X133730Y222171D01*
X133788Y222220D01*
X133847Y222265D01*
X133909Y222308D01*
X133973Y222347D01*
X134039Y222384D01*
X134107Y222416D01*
X134176Y222446D01*
X134246Y222472D01*
X134384Y222537D01*
X134524Y222599D01*
X134666Y222657D01*
X134809Y222712D01*
X134953Y222763D01*
X135098Y222811D01*
X135245Y222854D01*
X135392Y222894D01*
X135541Y222931D01*
X135691Y222963D01*
X135841Y222992D01*
X135992Y223017D01*
X136143Y223038D01*
X136295Y223055D01*
X136448Y223069D01*
X136600Y223078D01*
X136753Y223084D01*
X136906Y223086D01*
X136906Y218994D02*
X137059Y218996D01*
X137212Y219002D01*
X137364Y219011D01*
X137517Y219025D01*
X137669Y219042D01*
X137820Y219063D01*
X137971Y219088D01*
X138121Y219117D01*
X138271Y219149D01*
X138419Y219186D01*
X138567Y219226D01*
X138714Y219269D01*
X138859Y219317D01*
X139003Y219368D01*
X139146Y219422D01*
X139288Y219481D01*
X139427Y219542D01*
X139566Y219608D01*
X139637Y219634D01*
X139706Y219664D01*
X139773Y219697D01*
X139839Y219733D01*
X139903Y219772D01*
X139965Y219815D01*
X140024Y219861D01*
X140082Y219909D01*
X140136Y219960D01*
X140189Y220014D01*
X140238Y220071D01*
X140285Y220130D01*
X140328Y220191D01*
X140369Y220254D01*
X140406Y220319D01*
X140441Y220386D01*
X140471Y220455D01*
X140499Y220525D01*
X140522Y220596D01*
X140543Y220668D01*
X140559Y220741D01*
X140572Y220815D01*
X140582Y220890D01*
X140587Y220965D01*
X140589Y221040D01*
X139566Y222472D02*
X139428Y222537D01*
X139288Y222599D01*
X139146Y222657D01*
X139003Y222712D01*
X138859Y222763D01*
X138714Y222811D01*
X138567Y222854D01*
X138420Y222894D01*
X138271Y222931D01*
X138121Y222963D01*
X137971Y222992D01*
X137820Y223017D01*
X137669Y223038D01*
X137517Y223055D01*
X137364Y223069D01*
X137212Y223078D01*
X137059Y223084D01*
X136906Y223086D01*
X139566Y222472D02*
X139636Y222446D01*
X139706Y222416D01*
X139773Y222383D01*
X139839Y222347D01*
X139903Y222308D01*
X139965Y222265D01*
X140024Y222219D01*
X140082Y222171D01*
X140136Y222120D01*
X140189Y222066D01*
X140238Y222009D01*
X140285Y221950D01*
X140328Y221889D01*
X140369Y221826D01*
X140406Y221761D01*
X140441Y221694D01*
X140471Y221625D01*
X140499Y221555D01*
X140522Y221484D01*
X140543Y221412D01*
X140559Y221339D01*
X140572Y221265D01*
X140582Y221190D01*
X140587Y221115D01*
X140589Y221040D01*
X138952Y219403D02*
X134860Y222677D01*
X140589Y226309D02*
X140589Y228355D01*
X140587Y228444D01*
X140581Y228533D01*
X140571Y228622D01*
X140558Y228710D01*
X140541Y228798D01*
X140519Y228885D01*
X140494Y228970D01*
X140466Y229055D01*
X140433Y229138D01*
X140397Y229220D01*
X140358Y229300D01*
X140315Y229378D01*
X140269Y229454D01*
X140219Y229529D01*
X140166Y229601D01*
X140110Y229670D01*
X140051Y229737D01*
X139990Y229802D01*
X139925Y229863D01*
X139858Y229922D01*
X139789Y229978D01*
X139717Y230031D01*
X139642Y230081D01*
X139566Y230127D01*
X139488Y230170D01*
X139408Y230209D01*
X139326Y230245D01*
X139243Y230278D01*
X139158Y230306D01*
X139073Y230331D01*
X138986Y230353D01*
X138898Y230370D01*
X138810Y230383D01*
X138721Y230393D01*
X138632Y230399D01*
X138543Y230401D01*
X138454Y230399D01*
X138365Y230393D01*
X138276Y230383D01*
X138188Y230370D01*
X138100Y230353D01*
X138013Y230331D01*
X137928Y230306D01*
X137843Y230278D01*
X137760Y230245D01*
X137678Y230209D01*
X137598Y230170D01*
X137520Y230127D01*
X137444Y230081D01*
X137369Y230031D01*
X137297Y229978D01*
X137228Y229922D01*
X137161Y229863D01*
X137096Y229802D01*
X137035Y229737D01*
X136976Y229670D01*
X136920Y229601D01*
X136867Y229529D01*
X136817Y229454D01*
X136771Y229378D01*
X136728Y229300D01*
X136689Y229220D01*
X136653Y229138D01*
X136620Y229055D01*
X136592Y228970D01*
X136567Y228885D01*
X136545Y228798D01*
X136528Y228710D01*
X136515Y228622D01*
X136505Y228533D01*
X136499Y228444D01*
X136497Y228355D01*
X133223Y228764D02*
X133223Y226309D01*
X133223Y228764D02*
X133225Y228843D01*
X133231Y228922D01*
X133240Y229001D01*
X133253Y229079D01*
X133271Y229156D01*
X133291Y229232D01*
X133316Y229307D01*
X133344Y229381D01*
X133375Y229454D01*
X133411Y229525D01*
X133449Y229594D01*
X133491Y229661D01*
X133536Y229726D01*
X133584Y229789D01*
X133635Y229850D01*
X133689Y229907D01*
X133745Y229963D01*
X133804Y230015D01*
X133866Y230065D01*
X133930Y230111D01*
X133996Y230155D01*
X134064Y230195D01*
X134134Y230231D01*
X134206Y230265D01*
X134280Y230295D01*
X134354Y230321D01*
X134430Y230344D01*
X134507Y230362D01*
X134584Y230378D01*
X134663Y230389D01*
X134741Y230397D01*
X134820Y230401D01*
X134900Y230401D01*
X134979Y230397D01*
X135057Y230389D01*
X135136Y230378D01*
X135213Y230362D01*
X135290Y230344D01*
X135366Y230321D01*
X135440Y230295D01*
X135514Y230265D01*
X135586Y230231D01*
X135656Y230195D01*
X135724Y230155D01*
X135790Y230111D01*
X135854Y230065D01*
X135916Y230015D01*
X135975Y229963D01*
X136031Y229907D01*
X136085Y229850D01*
X136136Y229789D01*
X136184Y229726D01*
X136229Y229661D01*
X136271Y229594D01*
X136309Y229525D01*
X136345Y229454D01*
X136376Y229381D01*
X136404Y229307D01*
X136429Y229232D01*
X136449Y229156D01*
X136467Y229079D01*
X136480Y229001D01*
X136489Y228922D01*
X136495Y228843D01*
X136497Y228764D01*
X136497Y227127D01*
X134860Y233624D02*
X133223Y235670D01*
X140589Y235670D01*
X140589Y233624D02*
X140589Y237716D01*
D11*
X50292Y321903D02*
X38608Y318008D01*
X38608Y325797D02*
X50292Y321903D01*
X50292Y331047D02*
X38608Y331047D01*
X50292Y329748D02*
X50292Y332345D01*
X38608Y332345D02*
X38608Y329748D01*
X38608Y337326D02*
X50292Y337326D01*
X50292Y343817D02*
X38608Y337326D01*
X38608Y343817D02*
X50292Y343817D01*
X69201Y324499D02*
X69201Y322552D01*
X69201Y324499D02*
X75692Y324499D01*
X75692Y320604D01*
X75690Y320505D01*
X75684Y320405D01*
X75675Y320306D01*
X75662Y320208D01*
X75645Y320110D01*
X75624Y320012D01*
X75599Y319916D01*
X75571Y319821D01*
X75539Y319727D01*
X75504Y319634D01*
X75465Y319542D01*
X75422Y319452D01*
X75377Y319364D01*
X75327Y319277D01*
X75275Y319193D01*
X75219Y319110D01*
X75161Y319030D01*
X75099Y318952D01*
X75034Y318877D01*
X74966Y318804D01*
X74896Y318734D01*
X74823Y318666D01*
X74748Y318601D01*
X74670Y318539D01*
X74590Y318481D01*
X74507Y318425D01*
X74423Y318373D01*
X74336Y318323D01*
X74248Y318278D01*
X74158Y318235D01*
X74066Y318196D01*
X73973Y318161D01*
X73879Y318129D01*
X73784Y318101D01*
X73688Y318076D01*
X73590Y318055D01*
X73492Y318038D01*
X73394Y318025D01*
X73295Y318016D01*
X73195Y318010D01*
X73096Y318008D01*
X66604Y318008D01*
X66505Y318010D01*
X66405Y318016D01*
X66306Y318025D01*
X66208Y318038D01*
X66110Y318056D01*
X66012Y318076D01*
X65916Y318101D01*
X65820Y318129D01*
X65726Y318161D01*
X65633Y318196D01*
X65542Y318235D01*
X65452Y318278D01*
X65363Y318323D01*
X65277Y318373D01*
X65192Y318425D01*
X65110Y318481D01*
X65030Y318540D01*
X64952Y318601D01*
X64876Y318666D01*
X64803Y318734D01*
X64733Y318804D01*
X64665Y318877D01*
X64600Y318953D01*
X64539Y319031D01*
X64480Y319111D01*
X64424Y319193D01*
X64372Y319278D01*
X64323Y319364D01*
X64277Y319453D01*
X64234Y319543D01*
X64195Y319634D01*
X64160Y319727D01*
X64128Y319821D01*
X64100Y319917D01*
X64075Y320013D01*
X64055Y320111D01*
X64037Y320209D01*
X64024Y320307D01*
X64015Y320406D01*
X64009Y320505D01*
X64007Y320605D01*
X64008Y320604D02*
X64008Y324499D01*
X64008Y330200D02*
X75692Y330200D01*
X75692Y336691D02*
X64008Y330200D01*
X64008Y336691D02*
X75692Y336691D01*
X75692Y342392D02*
X64008Y342392D01*
X64008Y345637D01*
X64010Y345750D01*
X64016Y345863D01*
X64026Y345976D01*
X64040Y346089D01*
X64057Y346201D01*
X64079Y346312D01*
X64104Y346422D01*
X64134Y346532D01*
X64167Y346640D01*
X64204Y346747D01*
X64244Y346853D01*
X64289Y346957D01*
X64337Y347060D01*
X64388Y347161D01*
X64443Y347260D01*
X64501Y347357D01*
X64563Y347452D01*
X64628Y347545D01*
X64696Y347635D01*
X64767Y347723D01*
X64842Y347809D01*
X64919Y347892D01*
X64999Y347972D01*
X65082Y348049D01*
X65168Y348124D01*
X65256Y348195D01*
X65346Y348263D01*
X65439Y348328D01*
X65534Y348390D01*
X65631Y348448D01*
X65730Y348503D01*
X65831Y348554D01*
X65934Y348602D01*
X66038Y348647D01*
X66144Y348687D01*
X66251Y348724D01*
X66359Y348757D01*
X66469Y348787D01*
X66579Y348812D01*
X66690Y348834D01*
X66802Y348851D01*
X66915Y348865D01*
X67028Y348875D01*
X67141Y348881D01*
X67254Y348883D01*
X72446Y348883D01*
X72446Y348884D02*
X72559Y348882D01*
X72672Y348876D01*
X72785Y348866D01*
X72898Y348852D01*
X73010Y348835D01*
X73121Y348813D01*
X73231Y348788D01*
X73341Y348758D01*
X73449Y348725D01*
X73556Y348688D01*
X73662Y348648D01*
X73766Y348603D01*
X73869Y348555D01*
X73970Y348504D01*
X74069Y348449D01*
X74166Y348391D01*
X74261Y348329D01*
X74354Y348264D01*
X74444Y348196D01*
X74532Y348125D01*
X74618Y348050D01*
X74701Y347973D01*
X74781Y347893D01*
X74858Y347810D01*
X74933Y347724D01*
X75004Y347636D01*
X75072Y347546D01*
X75137Y347453D01*
X75199Y347358D01*
X75257Y347261D01*
X75312Y347162D01*
X75363Y347061D01*
X75411Y346958D01*
X75456Y346854D01*
X75496Y346748D01*
X75533Y346641D01*
X75566Y346533D01*
X75596Y346423D01*
X75621Y346313D01*
X75643Y346202D01*
X75660Y346090D01*
X75674Y345977D01*
X75684Y345864D01*
X75690Y345751D01*
X75692Y345638D01*
X75692Y345637D02*
X75692Y342392D01*
X89408Y318008D02*
X101092Y321903D01*
X89408Y325797D01*
X89408Y330468D02*
X101092Y330468D01*
X89408Y330468D02*
X89408Y333714D01*
X89410Y333827D01*
X89416Y333940D01*
X89426Y334053D01*
X89440Y334166D01*
X89457Y334278D01*
X89479Y334389D01*
X89504Y334499D01*
X89534Y334609D01*
X89567Y334717D01*
X89604Y334824D01*
X89644Y334930D01*
X89689Y335034D01*
X89737Y335137D01*
X89788Y335238D01*
X89843Y335337D01*
X89901Y335434D01*
X89963Y335529D01*
X90028Y335622D01*
X90096Y335712D01*
X90167Y335800D01*
X90242Y335886D01*
X90319Y335969D01*
X90399Y336049D01*
X90482Y336126D01*
X90568Y336201D01*
X90656Y336272D01*
X90746Y336340D01*
X90839Y336405D01*
X90934Y336467D01*
X91031Y336525D01*
X91130Y336580D01*
X91231Y336631D01*
X91334Y336679D01*
X91438Y336724D01*
X91544Y336764D01*
X91651Y336801D01*
X91759Y336834D01*
X91869Y336864D01*
X91979Y336889D01*
X92090Y336911D01*
X92202Y336928D01*
X92315Y336942D01*
X92428Y336952D01*
X92541Y336958D01*
X92654Y336960D01*
X92654Y336959D02*
X97846Y336959D01*
X97846Y336960D02*
X97959Y336958D01*
X98072Y336952D01*
X98185Y336942D01*
X98298Y336928D01*
X98410Y336911D01*
X98521Y336889D01*
X98631Y336864D01*
X98741Y336834D01*
X98849Y336801D01*
X98956Y336764D01*
X99062Y336724D01*
X99166Y336679D01*
X99269Y336631D01*
X99370Y336580D01*
X99469Y336525D01*
X99566Y336467D01*
X99661Y336405D01*
X99754Y336340D01*
X99844Y336272D01*
X99932Y336201D01*
X100018Y336126D01*
X100101Y336049D01*
X100181Y335969D01*
X100258Y335886D01*
X100333Y335800D01*
X100404Y335712D01*
X100472Y335622D01*
X100537Y335529D01*
X100599Y335434D01*
X100657Y335337D01*
X100712Y335238D01*
X100763Y335137D01*
X100811Y335034D01*
X100856Y334930D01*
X100896Y334824D01*
X100933Y334717D01*
X100966Y334609D01*
X100996Y334499D01*
X101021Y334389D01*
X101043Y334278D01*
X101060Y334166D01*
X101074Y334053D01*
X101084Y333940D01*
X101090Y333827D01*
X101092Y333714D01*
X101092Y330468D01*
X101092Y342660D02*
X89408Y342660D01*
X89408Y345906D01*
X89410Y346019D01*
X89416Y346132D01*
X89426Y346245D01*
X89440Y346358D01*
X89457Y346470D01*
X89479Y346581D01*
X89504Y346691D01*
X89534Y346801D01*
X89567Y346909D01*
X89604Y347016D01*
X89644Y347122D01*
X89689Y347226D01*
X89737Y347329D01*
X89788Y347430D01*
X89843Y347529D01*
X89901Y347626D01*
X89963Y347721D01*
X90028Y347814D01*
X90096Y347904D01*
X90167Y347992D01*
X90242Y348078D01*
X90319Y348161D01*
X90399Y348241D01*
X90482Y348318D01*
X90568Y348393D01*
X90656Y348464D01*
X90746Y348532D01*
X90839Y348597D01*
X90934Y348659D01*
X91031Y348717D01*
X91130Y348772D01*
X91231Y348823D01*
X91334Y348871D01*
X91438Y348916D01*
X91544Y348956D01*
X91651Y348993D01*
X91759Y349026D01*
X91869Y349056D01*
X91979Y349081D01*
X92090Y349103D01*
X92202Y349120D01*
X92315Y349134D01*
X92428Y349144D01*
X92541Y349150D01*
X92654Y349152D01*
X92654Y349151D02*
X97846Y349151D01*
X97846Y349152D02*
X97959Y349150D01*
X98072Y349144D01*
X98185Y349134D01*
X98298Y349120D01*
X98410Y349103D01*
X98521Y349081D01*
X98631Y349056D01*
X98741Y349026D01*
X98849Y348993D01*
X98956Y348956D01*
X99062Y348916D01*
X99166Y348871D01*
X99269Y348823D01*
X99370Y348772D01*
X99469Y348717D01*
X99566Y348659D01*
X99661Y348597D01*
X99754Y348532D01*
X99844Y348464D01*
X99932Y348393D01*
X100018Y348318D01*
X100101Y348241D01*
X100181Y348161D01*
X100258Y348078D01*
X100333Y347992D01*
X100404Y347904D01*
X100472Y347814D01*
X100537Y347721D01*
X100599Y347626D01*
X100657Y347529D01*
X100712Y347430D01*
X100763Y347329D01*
X100811Y347226D01*
X100856Y347122D01*
X100896Y347016D01*
X100933Y346909D01*
X100966Y346801D01*
X100996Y346691D01*
X101021Y346581D01*
X101043Y346470D01*
X101060Y346358D01*
X101074Y346245D01*
X101084Y346132D01*
X101090Y346019D01*
X101092Y345906D01*
X101092Y342660D01*
X114808Y321903D02*
X123896Y321903D01*
X123896Y321902D02*
X123995Y321900D01*
X124095Y321894D01*
X124194Y321885D01*
X124292Y321872D01*
X124390Y321855D01*
X124488Y321834D01*
X124584Y321809D01*
X124679Y321781D01*
X124773Y321749D01*
X124866Y321714D01*
X124958Y321675D01*
X125048Y321632D01*
X125136Y321587D01*
X125223Y321537D01*
X125307Y321485D01*
X125390Y321429D01*
X125470Y321371D01*
X125548Y321309D01*
X125623Y321244D01*
X125696Y321176D01*
X125766Y321106D01*
X125834Y321033D01*
X125899Y320958D01*
X125961Y320880D01*
X126019Y320800D01*
X126075Y320717D01*
X126127Y320633D01*
X126177Y320546D01*
X126222Y320458D01*
X126265Y320368D01*
X126304Y320276D01*
X126339Y320183D01*
X126371Y320089D01*
X126399Y319994D01*
X126424Y319898D01*
X126445Y319800D01*
X126462Y319702D01*
X126475Y319604D01*
X126484Y319505D01*
X126490Y319405D01*
X126492Y319306D01*
X126492Y318008D01*
X126492Y329660D02*
X114808Y329660D01*
X114808Y332905D02*
X114808Y326414D01*
X126492Y339645D02*
X126492Y342242D01*
X126492Y339645D02*
X126490Y339546D01*
X126484Y339446D01*
X126475Y339347D01*
X126462Y339249D01*
X126445Y339151D01*
X126424Y339053D01*
X126399Y338957D01*
X126371Y338862D01*
X126339Y338768D01*
X126304Y338675D01*
X126265Y338583D01*
X126222Y338493D01*
X126177Y338405D01*
X126127Y338318D01*
X126075Y338234D01*
X126019Y338151D01*
X125961Y338071D01*
X125899Y337993D01*
X125834Y337918D01*
X125766Y337845D01*
X125696Y337775D01*
X125623Y337707D01*
X125548Y337642D01*
X125470Y337580D01*
X125390Y337522D01*
X125307Y337466D01*
X125223Y337414D01*
X125136Y337364D01*
X125048Y337319D01*
X124958Y337276D01*
X124866Y337237D01*
X124773Y337202D01*
X124679Y337170D01*
X124584Y337142D01*
X124488Y337117D01*
X124390Y337096D01*
X124292Y337079D01*
X124194Y337066D01*
X124095Y337057D01*
X123995Y337051D01*
X123896Y337049D01*
X117404Y337049D01*
X117404Y337048D02*
X117305Y337050D01*
X117205Y337056D01*
X117106Y337065D01*
X117008Y337078D01*
X116910Y337096D01*
X116812Y337116D01*
X116716Y337141D01*
X116620Y337169D01*
X116526Y337201D01*
X116433Y337236D01*
X116342Y337275D01*
X116252Y337318D01*
X116163Y337363D01*
X116077Y337413D01*
X115992Y337465D01*
X115910Y337521D01*
X115830Y337580D01*
X115752Y337641D01*
X115676Y337706D01*
X115603Y337774D01*
X115533Y337844D01*
X115465Y337917D01*
X115400Y337993D01*
X115339Y338071D01*
X115280Y338151D01*
X115224Y338233D01*
X115172Y338318D01*
X115123Y338404D01*
X115077Y338493D01*
X115034Y338583D01*
X114995Y338674D01*
X114960Y338767D01*
X114928Y338861D01*
X114900Y338957D01*
X114875Y339053D01*
X114855Y339151D01*
X114837Y339249D01*
X114824Y339347D01*
X114815Y339446D01*
X114809Y339545D01*
X114807Y339645D01*
X114808Y339645D02*
X114808Y342242D01*
X114808Y347157D02*
X126492Y347157D01*
X121948Y347157D02*
X114808Y353648D01*
X119352Y349754D02*
X126492Y353648D01*
X140208Y321903D02*
X149296Y321903D01*
X149296Y321902D02*
X149395Y321900D01*
X149495Y321894D01*
X149594Y321885D01*
X149692Y321872D01*
X149790Y321855D01*
X149888Y321834D01*
X149984Y321809D01*
X150079Y321781D01*
X150173Y321749D01*
X150266Y321714D01*
X150358Y321675D01*
X150448Y321632D01*
X150536Y321587D01*
X150623Y321537D01*
X150707Y321485D01*
X150790Y321429D01*
X150870Y321371D01*
X150948Y321309D01*
X151023Y321244D01*
X151096Y321176D01*
X151166Y321106D01*
X151234Y321033D01*
X151299Y320958D01*
X151361Y320880D01*
X151419Y320800D01*
X151475Y320717D01*
X151527Y320633D01*
X151577Y320546D01*
X151622Y320458D01*
X151665Y320368D01*
X151704Y320276D01*
X151739Y320183D01*
X151771Y320089D01*
X151799Y319994D01*
X151824Y319898D01*
X151845Y319800D01*
X151862Y319702D01*
X151875Y319604D01*
X151884Y319505D01*
X151890Y319405D01*
X151892Y319306D01*
X151892Y318008D01*
X151892Y329660D02*
X140208Y329660D01*
X140208Y332905D02*
X140208Y326414D01*
X140208Y337576D02*
X151892Y337576D01*
X146699Y341471D02*
X140208Y337576D01*
X146699Y341471D02*
X140208Y345365D01*
X151892Y345365D01*
X151892Y354312D02*
X151890Y354411D01*
X151884Y354511D01*
X151875Y354610D01*
X151862Y354708D01*
X151845Y354806D01*
X151824Y354904D01*
X151799Y355000D01*
X151771Y355095D01*
X151739Y355189D01*
X151704Y355282D01*
X151665Y355374D01*
X151622Y355464D01*
X151577Y355552D01*
X151527Y355639D01*
X151475Y355723D01*
X151419Y355806D01*
X151361Y355886D01*
X151299Y355964D01*
X151234Y356039D01*
X151166Y356112D01*
X151096Y356182D01*
X151023Y356250D01*
X150948Y356315D01*
X150870Y356377D01*
X150790Y356435D01*
X150707Y356491D01*
X150623Y356543D01*
X150536Y356593D01*
X150448Y356638D01*
X150358Y356681D01*
X150266Y356720D01*
X150173Y356755D01*
X150079Y356787D01*
X149984Y356815D01*
X149888Y356840D01*
X149790Y356861D01*
X149692Y356878D01*
X149594Y356891D01*
X149495Y356900D01*
X149395Y356906D01*
X149296Y356908D01*
X151892Y354312D02*
X151890Y354168D01*
X151884Y354023D01*
X151875Y353879D01*
X151862Y353736D01*
X151845Y353592D01*
X151824Y353449D01*
X151799Y353307D01*
X151771Y353166D01*
X151739Y353025D01*
X151703Y352885D01*
X151664Y352746D01*
X151621Y352608D01*
X151574Y352472D01*
X151524Y352336D01*
X151470Y352202D01*
X151413Y352070D01*
X151352Y351939D01*
X151288Y351810D01*
X151220Y351682D01*
X151150Y351556D01*
X151075Y351432D01*
X150998Y351311D01*
X150917Y351191D01*
X150834Y351073D01*
X150747Y350958D01*
X150657Y350845D01*
X150564Y350734D01*
X150469Y350626D01*
X150370Y350520D01*
X150269Y350417D01*
X142804Y350742D02*
X142705Y350744D01*
X142605Y350750D01*
X142506Y350759D01*
X142408Y350772D01*
X142310Y350789D01*
X142212Y350810D01*
X142116Y350835D01*
X142021Y350863D01*
X141927Y350895D01*
X141834Y350930D01*
X141742Y350969D01*
X141652Y351012D01*
X141564Y351057D01*
X141477Y351107D01*
X141393Y351159D01*
X141310Y351215D01*
X141230Y351273D01*
X141152Y351335D01*
X141077Y351400D01*
X141004Y351468D01*
X140934Y351538D01*
X140866Y351611D01*
X140801Y351686D01*
X140739Y351764D01*
X140681Y351844D01*
X140625Y351927D01*
X140573Y352011D01*
X140523Y352098D01*
X140478Y352186D01*
X140435Y352276D01*
X140396Y352368D01*
X140361Y352461D01*
X140329Y352555D01*
X140301Y352650D01*
X140276Y352746D01*
X140255Y352844D01*
X140238Y352942D01*
X140225Y353040D01*
X140216Y353139D01*
X140210Y353239D01*
X140208Y353338D01*
X140210Y353474D01*
X140216Y353610D01*
X140225Y353746D01*
X140238Y353882D01*
X140256Y354017D01*
X140276Y354151D01*
X140301Y354285D01*
X140329Y354419D01*
X140362Y354551D01*
X140397Y354682D01*
X140437Y354813D01*
X140480Y354942D01*
X140526Y355070D01*
X140577Y355196D01*
X140630Y355322D01*
X140688Y355445D01*
X140748Y355567D01*
X140812Y355687D01*
X140880Y355806D01*
X140950Y355922D01*
X141024Y356036D01*
X141101Y356149D01*
X141182Y356259D01*
X145076Y352040D02*
X145023Y351954D01*
X144966Y351870D01*
X144907Y351788D01*
X144844Y351708D01*
X144778Y351631D01*
X144710Y351556D01*
X144638Y351484D01*
X144564Y351415D01*
X144487Y351349D01*
X144408Y351286D01*
X144326Y351226D01*
X144242Y351169D01*
X144156Y351115D01*
X144068Y351065D01*
X143978Y351018D01*
X143887Y350974D01*
X143793Y350935D01*
X143699Y350898D01*
X143603Y350866D01*
X143505Y350837D01*
X143407Y350812D01*
X143308Y350791D01*
X143208Y350773D01*
X143108Y350760D01*
X143007Y350750D01*
X142905Y350744D01*
X142804Y350742D01*
X147024Y355610D02*
X147077Y355696D01*
X147134Y355780D01*
X147193Y355862D01*
X147256Y355942D01*
X147322Y356019D01*
X147390Y356094D01*
X147462Y356166D01*
X147536Y356235D01*
X147613Y356301D01*
X147692Y356364D01*
X147774Y356424D01*
X147858Y356481D01*
X147944Y356535D01*
X148032Y356585D01*
X148122Y356632D01*
X148213Y356676D01*
X148307Y356715D01*
X148401Y356752D01*
X148497Y356784D01*
X148595Y356813D01*
X148693Y356838D01*
X148792Y356859D01*
X148892Y356877D01*
X148992Y356890D01*
X149093Y356900D01*
X149195Y356906D01*
X149296Y356908D01*
X147024Y355610D02*
X145076Y352040D01*
X165608Y318008D02*
X177292Y318008D01*
X165608Y318008D02*
X165608Y321254D01*
X165610Y321367D01*
X165616Y321480D01*
X165626Y321593D01*
X165640Y321706D01*
X165657Y321818D01*
X165679Y321929D01*
X165704Y322039D01*
X165734Y322149D01*
X165767Y322257D01*
X165804Y322364D01*
X165844Y322470D01*
X165889Y322574D01*
X165937Y322677D01*
X165988Y322778D01*
X166043Y322877D01*
X166101Y322974D01*
X166163Y323069D01*
X166228Y323162D01*
X166296Y323252D01*
X166367Y323340D01*
X166442Y323426D01*
X166519Y323509D01*
X166599Y323589D01*
X166682Y323666D01*
X166768Y323741D01*
X166856Y323812D01*
X166946Y323880D01*
X167039Y323945D01*
X167134Y324007D01*
X167231Y324065D01*
X167330Y324120D01*
X167431Y324171D01*
X167534Y324219D01*
X167638Y324264D01*
X167744Y324304D01*
X167851Y324341D01*
X167959Y324374D01*
X168069Y324404D01*
X168179Y324429D01*
X168290Y324451D01*
X168402Y324468D01*
X168515Y324482D01*
X168628Y324492D01*
X168741Y324498D01*
X168854Y324500D01*
X168967Y324498D01*
X169080Y324492D01*
X169193Y324482D01*
X169306Y324468D01*
X169418Y324451D01*
X169529Y324429D01*
X169639Y324404D01*
X169749Y324374D01*
X169857Y324341D01*
X169964Y324304D01*
X170070Y324264D01*
X170174Y324219D01*
X170277Y324171D01*
X170378Y324120D01*
X170477Y324065D01*
X170574Y324007D01*
X170669Y323945D01*
X170762Y323880D01*
X170852Y323812D01*
X170940Y323741D01*
X171026Y323666D01*
X171109Y323589D01*
X171189Y323509D01*
X171266Y323426D01*
X171341Y323340D01*
X171412Y323252D01*
X171480Y323162D01*
X171545Y323069D01*
X171607Y322974D01*
X171665Y322877D01*
X171720Y322778D01*
X171771Y322677D01*
X171819Y322574D01*
X171864Y322470D01*
X171904Y322364D01*
X171941Y322257D01*
X171974Y322149D01*
X172004Y322039D01*
X172029Y321929D01*
X172051Y321818D01*
X172068Y321706D01*
X172082Y321593D01*
X172092Y321480D01*
X172098Y321367D01*
X172100Y321254D01*
X172099Y321254D02*
X172099Y318008D01*
X168204Y328888D02*
X165608Y332133D01*
X177292Y332133D01*
X177292Y328888D02*
X177292Y335379D01*
X168529Y346809D02*
X168422Y346807D01*
X168316Y346801D01*
X168210Y346791D01*
X168104Y346778D01*
X167998Y346760D01*
X167894Y346739D01*
X167790Y346714D01*
X167687Y346685D01*
X167586Y346653D01*
X167486Y346616D01*
X167387Y346576D01*
X167289Y346533D01*
X167193Y346486D01*
X167099Y346435D01*
X167007Y346381D01*
X166917Y346324D01*
X166829Y346264D01*
X166744Y346200D01*
X166661Y346133D01*
X166580Y346063D01*
X166502Y345991D01*
X166426Y345915D01*
X166354Y345837D01*
X166284Y345756D01*
X166217Y345673D01*
X166153Y345588D01*
X166093Y345500D01*
X166036Y345410D01*
X165982Y345318D01*
X165931Y345224D01*
X165884Y345128D01*
X165841Y345030D01*
X165801Y344931D01*
X165764Y344831D01*
X165732Y344730D01*
X165703Y344627D01*
X165678Y344523D01*
X165657Y344419D01*
X165639Y344313D01*
X165626Y344207D01*
X165616Y344101D01*
X165610Y343995D01*
X165608Y343888D01*
X165610Y343767D01*
X165616Y343646D01*
X165626Y343526D01*
X165639Y343405D01*
X165657Y343286D01*
X165678Y343166D01*
X165703Y343048D01*
X165732Y342931D01*
X165765Y342814D01*
X165801Y342699D01*
X165842Y342585D01*
X165885Y342472D01*
X165933Y342360D01*
X165984Y342251D01*
X166039Y342143D01*
X166097Y342036D01*
X166158Y341932D01*
X166223Y341830D01*
X166291Y341730D01*
X166362Y341632D01*
X166436Y341536D01*
X166513Y341443D01*
X166594Y341353D01*
X166677Y341265D01*
X166763Y341180D01*
X166852Y341097D01*
X166943Y341018D01*
X167037Y340941D01*
X167133Y340868D01*
X167231Y340798D01*
X167332Y340731D01*
X167435Y340667D01*
X167540Y340607D01*
X167647Y340549D01*
X167755Y340496D01*
X167865Y340446D01*
X167977Y340400D01*
X168090Y340357D01*
X168205Y340318D01*
X170801Y345834D02*
X170723Y345913D01*
X170643Y345989D01*
X170560Y346062D01*
X170474Y346132D01*
X170387Y346199D01*
X170296Y346263D01*
X170204Y346323D01*
X170110Y346381D01*
X170013Y346435D01*
X169915Y346485D01*
X169815Y346532D01*
X169714Y346576D01*
X169611Y346616D01*
X169506Y346652D01*
X169401Y346684D01*
X169294Y346713D01*
X169187Y346738D01*
X169078Y346760D01*
X168969Y346777D01*
X168860Y346791D01*
X168750Y346800D01*
X168639Y346806D01*
X168529Y346808D01*
X170801Y345835D02*
X177292Y340318D01*
X177292Y346809D01*
X191008Y318008D02*
X202692Y318008D01*
X191008Y318008D02*
X191008Y321254D01*
X191010Y321367D01*
X191016Y321480D01*
X191026Y321593D01*
X191040Y321706D01*
X191057Y321818D01*
X191079Y321929D01*
X191104Y322039D01*
X191134Y322149D01*
X191167Y322257D01*
X191204Y322364D01*
X191244Y322470D01*
X191289Y322574D01*
X191337Y322677D01*
X191388Y322778D01*
X191443Y322877D01*
X191501Y322974D01*
X191563Y323069D01*
X191628Y323162D01*
X191696Y323252D01*
X191767Y323340D01*
X191842Y323426D01*
X191919Y323509D01*
X191999Y323589D01*
X192082Y323666D01*
X192168Y323741D01*
X192256Y323812D01*
X192346Y323880D01*
X192439Y323945D01*
X192534Y324007D01*
X192631Y324065D01*
X192730Y324120D01*
X192831Y324171D01*
X192934Y324219D01*
X193038Y324264D01*
X193144Y324304D01*
X193251Y324341D01*
X193359Y324374D01*
X193469Y324404D01*
X193579Y324429D01*
X193690Y324451D01*
X193802Y324468D01*
X193915Y324482D01*
X194028Y324492D01*
X194141Y324498D01*
X194254Y324500D01*
X194367Y324498D01*
X194480Y324492D01*
X194593Y324482D01*
X194706Y324468D01*
X194818Y324451D01*
X194929Y324429D01*
X195039Y324404D01*
X195149Y324374D01*
X195257Y324341D01*
X195364Y324304D01*
X195470Y324264D01*
X195574Y324219D01*
X195677Y324171D01*
X195778Y324120D01*
X195877Y324065D01*
X195974Y324007D01*
X196069Y323945D01*
X196162Y323880D01*
X196252Y323812D01*
X196340Y323741D01*
X196426Y323666D01*
X196509Y323589D01*
X196589Y323509D01*
X196666Y323426D01*
X196741Y323340D01*
X196812Y323252D01*
X196880Y323162D01*
X196945Y323069D01*
X197007Y322974D01*
X197065Y322877D01*
X197120Y322778D01*
X197171Y322677D01*
X197219Y322574D01*
X197264Y322470D01*
X197304Y322364D01*
X197341Y322257D01*
X197374Y322149D01*
X197404Y322039D01*
X197429Y321929D01*
X197451Y321818D01*
X197468Y321706D01*
X197482Y321593D01*
X197492Y321480D01*
X197498Y321367D01*
X197500Y321254D01*
X197499Y321254D02*
X197499Y318008D01*
X202692Y328239D02*
X191008Y332133D01*
X202692Y336028D01*
X199771Y335054D02*
X199771Y329212D01*
X199446Y340317D02*
X199333Y340319D01*
X199220Y340325D01*
X199107Y340335D01*
X198994Y340349D01*
X198882Y340366D01*
X198771Y340388D01*
X198661Y340413D01*
X198551Y340443D01*
X198443Y340476D01*
X198336Y340513D01*
X198230Y340553D01*
X198126Y340598D01*
X198023Y340646D01*
X197922Y340697D01*
X197823Y340752D01*
X197726Y340810D01*
X197631Y340872D01*
X197538Y340937D01*
X197448Y341005D01*
X197360Y341076D01*
X197274Y341151D01*
X197191Y341228D01*
X197111Y341308D01*
X197034Y341391D01*
X196959Y341477D01*
X196888Y341565D01*
X196820Y341655D01*
X196755Y341748D01*
X196693Y341843D01*
X196635Y341940D01*
X196580Y342039D01*
X196529Y342140D01*
X196481Y342243D01*
X196436Y342347D01*
X196396Y342453D01*
X196359Y342560D01*
X196326Y342668D01*
X196296Y342778D01*
X196271Y342888D01*
X196249Y342999D01*
X196232Y343111D01*
X196218Y343224D01*
X196208Y343337D01*
X196202Y343450D01*
X196200Y343563D01*
X196202Y343676D01*
X196208Y343789D01*
X196218Y343902D01*
X196232Y344015D01*
X196249Y344127D01*
X196271Y344238D01*
X196296Y344348D01*
X196326Y344458D01*
X196359Y344566D01*
X196396Y344673D01*
X196436Y344779D01*
X196481Y344883D01*
X196529Y344986D01*
X196580Y345087D01*
X196635Y345186D01*
X196693Y345283D01*
X196755Y345378D01*
X196820Y345471D01*
X196888Y345561D01*
X196959Y345649D01*
X197034Y345735D01*
X197111Y345818D01*
X197191Y345898D01*
X197274Y345975D01*
X197360Y346050D01*
X197448Y346121D01*
X197538Y346189D01*
X197631Y346254D01*
X197726Y346316D01*
X197823Y346374D01*
X197922Y346429D01*
X198023Y346480D01*
X198126Y346528D01*
X198230Y346573D01*
X198336Y346613D01*
X198443Y346650D01*
X198551Y346683D01*
X198661Y346713D01*
X198771Y346738D01*
X198882Y346760D01*
X198994Y346777D01*
X199107Y346791D01*
X199220Y346801D01*
X199333Y346807D01*
X199446Y346809D01*
X199559Y346807D01*
X199672Y346801D01*
X199785Y346791D01*
X199898Y346777D01*
X200010Y346760D01*
X200121Y346738D01*
X200231Y346713D01*
X200341Y346683D01*
X200449Y346650D01*
X200556Y346613D01*
X200662Y346573D01*
X200766Y346528D01*
X200869Y346480D01*
X200970Y346429D01*
X201069Y346374D01*
X201166Y346316D01*
X201261Y346254D01*
X201354Y346189D01*
X201444Y346121D01*
X201532Y346050D01*
X201618Y345975D01*
X201701Y345898D01*
X201781Y345818D01*
X201858Y345735D01*
X201933Y345649D01*
X202004Y345561D01*
X202072Y345471D01*
X202137Y345378D01*
X202199Y345283D01*
X202257Y345186D01*
X202312Y345087D01*
X202363Y344986D01*
X202411Y344883D01*
X202456Y344779D01*
X202496Y344673D01*
X202533Y344566D01*
X202566Y344458D01*
X202596Y344348D01*
X202621Y344238D01*
X202643Y344127D01*
X202660Y344015D01*
X202674Y343902D01*
X202684Y343789D01*
X202690Y343676D01*
X202692Y343563D01*
X202690Y343450D01*
X202684Y343337D01*
X202674Y343224D01*
X202660Y343111D01*
X202643Y342999D01*
X202621Y342888D01*
X202596Y342778D01*
X202566Y342668D01*
X202533Y342560D01*
X202496Y342453D01*
X202456Y342347D01*
X202411Y342243D01*
X202363Y342140D01*
X202312Y342039D01*
X202257Y341940D01*
X202199Y341843D01*
X202137Y341748D01*
X202072Y341655D01*
X202004Y341565D01*
X201933Y341477D01*
X201858Y341391D01*
X201781Y341308D01*
X201701Y341228D01*
X201618Y341151D01*
X201532Y341076D01*
X201444Y341005D01*
X201354Y340937D01*
X201261Y340872D01*
X201166Y340810D01*
X201069Y340752D01*
X200970Y340697D01*
X200869Y340646D01*
X200766Y340598D01*
X200662Y340553D01*
X200556Y340513D01*
X200449Y340476D01*
X200341Y340443D01*
X200231Y340413D01*
X200121Y340388D01*
X200010Y340366D01*
X199898Y340349D01*
X199785Y340335D01*
X199672Y340325D01*
X199559Y340319D01*
X199446Y340317D01*
X193604Y340967D02*
X193503Y340969D01*
X193403Y340975D01*
X193303Y340985D01*
X193203Y340998D01*
X193104Y341016D01*
X193005Y341037D01*
X192908Y341062D01*
X192811Y341091D01*
X192716Y341124D01*
X192622Y341160D01*
X192530Y341200D01*
X192439Y341243D01*
X192350Y341290D01*
X192263Y341340D01*
X192177Y341394D01*
X192094Y341451D01*
X192014Y341511D01*
X191935Y341574D01*
X191859Y341641D01*
X191786Y341710D01*
X191716Y341782D01*
X191648Y341856D01*
X191583Y341933D01*
X191522Y342013D01*
X191463Y342095D01*
X191408Y342179D01*
X191356Y342265D01*
X191307Y342353D01*
X191262Y342443D01*
X191220Y342535D01*
X191182Y342628D01*
X191148Y342723D01*
X191117Y342818D01*
X191090Y342915D01*
X191067Y343013D01*
X191047Y343112D01*
X191032Y343212D01*
X191020Y343312D01*
X191012Y343412D01*
X191008Y343513D01*
X191008Y343613D01*
X191012Y343714D01*
X191020Y343814D01*
X191032Y343914D01*
X191047Y344014D01*
X191067Y344113D01*
X191090Y344211D01*
X191117Y344308D01*
X191148Y344403D01*
X191182Y344498D01*
X191220Y344591D01*
X191262Y344683D01*
X191307Y344773D01*
X191356Y344861D01*
X191408Y344947D01*
X191463Y345031D01*
X191522Y345113D01*
X191583Y345193D01*
X191648Y345270D01*
X191716Y345344D01*
X191786Y345416D01*
X191859Y345485D01*
X191935Y345552D01*
X192014Y345615D01*
X192094Y345675D01*
X192177Y345732D01*
X192263Y345786D01*
X192350Y345836D01*
X192439Y345883D01*
X192530Y345926D01*
X192622Y345966D01*
X192716Y346002D01*
X192811Y346035D01*
X192908Y346064D01*
X193005Y346089D01*
X193104Y346110D01*
X193203Y346128D01*
X193303Y346141D01*
X193403Y346151D01*
X193503Y346157D01*
X193604Y346159D01*
X193705Y346157D01*
X193805Y346151D01*
X193905Y346141D01*
X194005Y346128D01*
X194104Y346110D01*
X194203Y346089D01*
X194300Y346064D01*
X194397Y346035D01*
X194492Y346002D01*
X194586Y345966D01*
X194678Y345926D01*
X194769Y345883D01*
X194858Y345836D01*
X194945Y345786D01*
X195031Y345732D01*
X195114Y345675D01*
X195194Y345615D01*
X195273Y345552D01*
X195349Y345485D01*
X195422Y345416D01*
X195492Y345344D01*
X195560Y345270D01*
X195625Y345193D01*
X195686Y345113D01*
X195745Y345031D01*
X195800Y344947D01*
X195852Y344861D01*
X195901Y344773D01*
X195946Y344683D01*
X195988Y344591D01*
X196026Y344498D01*
X196060Y344403D01*
X196091Y344308D01*
X196118Y344211D01*
X196141Y344113D01*
X196161Y344014D01*
X196176Y343914D01*
X196188Y343814D01*
X196196Y343714D01*
X196200Y343613D01*
X196200Y343513D01*
X196196Y343412D01*
X196188Y343312D01*
X196176Y343212D01*
X196161Y343112D01*
X196141Y343013D01*
X196118Y342915D01*
X196091Y342818D01*
X196060Y342723D01*
X196026Y342628D01*
X195988Y342535D01*
X195946Y342443D01*
X195901Y342353D01*
X195852Y342265D01*
X195800Y342179D01*
X195745Y342095D01*
X195686Y342013D01*
X195625Y341933D01*
X195560Y341856D01*
X195492Y341782D01*
X195422Y341710D01*
X195349Y341641D01*
X195273Y341574D01*
X195194Y341511D01*
X195114Y341451D01*
X195031Y341394D01*
X194945Y341340D01*
X194858Y341290D01*
X194769Y341243D01*
X194678Y341200D01*
X194586Y341160D01*
X194492Y341124D01*
X194397Y341091D01*
X194300Y341062D01*
X194203Y341037D01*
X194104Y341016D01*
X194005Y340998D01*
X193905Y340985D01*
X193805Y340975D01*
X193705Y340969D01*
X193604Y340967D01*
X216408Y318008D02*
X228092Y318008D01*
X216408Y318008D02*
X216408Y321254D01*
X216410Y321367D01*
X216416Y321480D01*
X216426Y321593D01*
X216440Y321706D01*
X216457Y321818D01*
X216479Y321929D01*
X216504Y322039D01*
X216534Y322149D01*
X216567Y322257D01*
X216604Y322364D01*
X216644Y322470D01*
X216689Y322574D01*
X216737Y322677D01*
X216788Y322778D01*
X216843Y322877D01*
X216901Y322974D01*
X216963Y323069D01*
X217028Y323162D01*
X217096Y323252D01*
X217167Y323340D01*
X217242Y323426D01*
X217319Y323509D01*
X217399Y323589D01*
X217482Y323666D01*
X217568Y323741D01*
X217656Y323812D01*
X217746Y323880D01*
X217839Y323945D01*
X217934Y324007D01*
X218031Y324065D01*
X218130Y324120D01*
X218231Y324171D01*
X218334Y324219D01*
X218438Y324264D01*
X218544Y324304D01*
X218651Y324341D01*
X218759Y324374D01*
X218869Y324404D01*
X218979Y324429D01*
X219090Y324451D01*
X219202Y324468D01*
X219315Y324482D01*
X219428Y324492D01*
X219541Y324498D01*
X219654Y324500D01*
X219767Y324498D01*
X219880Y324492D01*
X219993Y324482D01*
X220106Y324468D01*
X220218Y324451D01*
X220329Y324429D01*
X220439Y324404D01*
X220549Y324374D01*
X220657Y324341D01*
X220764Y324304D01*
X220870Y324264D01*
X220974Y324219D01*
X221077Y324171D01*
X221178Y324120D01*
X221277Y324065D01*
X221374Y324007D01*
X221469Y323945D01*
X221562Y323880D01*
X221652Y323812D01*
X221740Y323741D01*
X221826Y323666D01*
X221909Y323589D01*
X221989Y323509D01*
X222066Y323426D01*
X222141Y323340D01*
X222212Y323252D01*
X222280Y323162D01*
X222345Y323069D01*
X222407Y322974D01*
X222465Y322877D01*
X222520Y322778D01*
X222571Y322677D01*
X222619Y322574D01*
X222664Y322470D01*
X222704Y322364D01*
X222741Y322257D01*
X222774Y322149D01*
X222804Y322039D01*
X222829Y321929D01*
X222851Y321818D01*
X222868Y321706D01*
X222882Y321593D01*
X222892Y321480D01*
X222898Y321367D01*
X222900Y321254D01*
X222899Y321254D02*
X222899Y318008D01*
X228092Y328239D02*
X216408Y332133D01*
X228092Y336028D01*
X225171Y335054D02*
X225171Y329212D01*
X217706Y340318D02*
X216408Y340318D01*
X216408Y346809D01*
X228092Y343563D01*
X241808Y318008D02*
X253492Y318008D01*
X253492Y324499D02*
X241808Y318008D01*
X241808Y324499D02*
X253492Y324499D01*
X253492Y330274D02*
X241808Y330274D01*
X241808Y333519D01*
X241810Y333632D01*
X241816Y333745D01*
X241826Y333858D01*
X241840Y333971D01*
X241857Y334083D01*
X241879Y334194D01*
X241904Y334304D01*
X241934Y334414D01*
X241967Y334522D01*
X242004Y334629D01*
X242044Y334735D01*
X242089Y334839D01*
X242137Y334942D01*
X242188Y335043D01*
X242243Y335142D01*
X242301Y335239D01*
X242363Y335334D01*
X242428Y335427D01*
X242496Y335517D01*
X242567Y335605D01*
X242642Y335691D01*
X242719Y335774D01*
X242799Y335854D01*
X242882Y335931D01*
X242968Y336006D01*
X243056Y336077D01*
X243146Y336145D01*
X243239Y336210D01*
X243334Y336272D01*
X243431Y336330D01*
X243530Y336385D01*
X243631Y336436D01*
X243734Y336484D01*
X243838Y336529D01*
X243944Y336569D01*
X244051Y336606D01*
X244159Y336639D01*
X244269Y336669D01*
X244379Y336694D01*
X244490Y336716D01*
X244602Y336733D01*
X244715Y336747D01*
X244828Y336757D01*
X244941Y336763D01*
X245054Y336765D01*
X245167Y336763D01*
X245280Y336757D01*
X245393Y336747D01*
X245506Y336733D01*
X245618Y336716D01*
X245729Y336694D01*
X245839Y336669D01*
X245949Y336639D01*
X246057Y336606D01*
X246164Y336569D01*
X246270Y336529D01*
X246374Y336484D01*
X246477Y336436D01*
X246578Y336385D01*
X246677Y336330D01*
X246774Y336272D01*
X246869Y336210D01*
X246962Y336145D01*
X247052Y336077D01*
X247140Y336006D01*
X247226Y335931D01*
X247309Y335854D01*
X247389Y335774D01*
X247466Y335691D01*
X247541Y335605D01*
X247612Y335517D01*
X247680Y335427D01*
X247745Y335334D01*
X247807Y335239D01*
X247865Y335142D01*
X247920Y335043D01*
X247971Y334942D01*
X248019Y334839D01*
X248064Y334735D01*
X248104Y334629D01*
X248141Y334522D01*
X248174Y334414D01*
X248204Y334304D01*
X248229Y334194D01*
X248251Y334083D01*
X248268Y333971D01*
X248282Y333858D01*
X248292Y333745D01*
X248298Y333632D01*
X248300Y333519D01*
X248299Y333519D02*
X248299Y330274D01*
X248299Y334168D02*
X253492Y336765D01*
X253492Y345144D02*
X253490Y345243D01*
X253484Y345343D01*
X253475Y345442D01*
X253462Y345540D01*
X253445Y345638D01*
X253424Y345736D01*
X253399Y345832D01*
X253371Y345927D01*
X253339Y346021D01*
X253304Y346114D01*
X253265Y346206D01*
X253222Y346296D01*
X253177Y346384D01*
X253127Y346471D01*
X253075Y346555D01*
X253019Y346638D01*
X252961Y346718D01*
X252899Y346796D01*
X252834Y346871D01*
X252766Y346944D01*
X252696Y347014D01*
X252623Y347082D01*
X252548Y347147D01*
X252470Y347209D01*
X252390Y347267D01*
X252307Y347323D01*
X252223Y347375D01*
X252136Y347425D01*
X252048Y347470D01*
X251958Y347513D01*
X251866Y347552D01*
X251773Y347587D01*
X251679Y347619D01*
X251584Y347647D01*
X251488Y347672D01*
X251390Y347693D01*
X251292Y347710D01*
X251194Y347723D01*
X251095Y347732D01*
X250995Y347738D01*
X250896Y347740D01*
X253492Y345144D02*
X253490Y345000D01*
X253484Y344855D01*
X253475Y344711D01*
X253462Y344568D01*
X253445Y344424D01*
X253424Y344281D01*
X253399Y344139D01*
X253371Y343998D01*
X253339Y343857D01*
X253303Y343717D01*
X253264Y343578D01*
X253221Y343440D01*
X253174Y343304D01*
X253124Y343168D01*
X253070Y343034D01*
X253013Y342902D01*
X252952Y342771D01*
X252888Y342642D01*
X252820Y342514D01*
X252750Y342388D01*
X252675Y342264D01*
X252598Y342143D01*
X252517Y342023D01*
X252434Y341905D01*
X252347Y341790D01*
X252257Y341677D01*
X252164Y341566D01*
X252069Y341458D01*
X251970Y341352D01*
X251869Y341249D01*
X244404Y341574D02*
X244305Y341576D01*
X244205Y341582D01*
X244106Y341591D01*
X244008Y341604D01*
X243910Y341621D01*
X243812Y341642D01*
X243716Y341667D01*
X243621Y341695D01*
X243527Y341727D01*
X243434Y341762D01*
X243342Y341801D01*
X243252Y341844D01*
X243164Y341889D01*
X243077Y341939D01*
X242993Y341991D01*
X242910Y342047D01*
X242830Y342105D01*
X242752Y342167D01*
X242677Y342232D01*
X242604Y342300D01*
X242534Y342370D01*
X242466Y342443D01*
X242401Y342518D01*
X242339Y342596D01*
X242281Y342676D01*
X242225Y342759D01*
X242173Y342843D01*
X242123Y342930D01*
X242078Y343018D01*
X242035Y343108D01*
X241996Y343200D01*
X241961Y343293D01*
X241929Y343387D01*
X241901Y343482D01*
X241876Y343578D01*
X241855Y343676D01*
X241838Y343774D01*
X241825Y343872D01*
X241816Y343971D01*
X241810Y344071D01*
X241808Y344170D01*
X241810Y344306D01*
X241816Y344442D01*
X241825Y344578D01*
X241838Y344714D01*
X241856Y344849D01*
X241876Y344983D01*
X241901Y345117D01*
X241929Y345251D01*
X241962Y345383D01*
X241997Y345514D01*
X242037Y345645D01*
X242080Y345774D01*
X242126Y345902D01*
X242177Y346028D01*
X242230Y346154D01*
X242288Y346277D01*
X242348Y346399D01*
X242412Y346519D01*
X242480Y346638D01*
X242550Y346754D01*
X242624Y346868D01*
X242701Y346981D01*
X242782Y347091D01*
X246676Y342871D02*
X246623Y342785D01*
X246566Y342701D01*
X246507Y342619D01*
X246444Y342539D01*
X246378Y342462D01*
X246310Y342387D01*
X246238Y342315D01*
X246164Y342246D01*
X246087Y342180D01*
X246008Y342117D01*
X245926Y342057D01*
X245842Y342000D01*
X245756Y341946D01*
X245668Y341896D01*
X245578Y341849D01*
X245487Y341805D01*
X245393Y341766D01*
X245299Y341729D01*
X245203Y341697D01*
X245105Y341668D01*
X245007Y341643D01*
X244908Y341622D01*
X244808Y341604D01*
X244708Y341591D01*
X244607Y341581D01*
X244505Y341575D01*
X244404Y341573D01*
X248624Y346442D02*
X248677Y346528D01*
X248734Y346612D01*
X248793Y346694D01*
X248856Y346774D01*
X248922Y346851D01*
X248990Y346926D01*
X249062Y346998D01*
X249136Y347067D01*
X249213Y347133D01*
X249292Y347196D01*
X249374Y347256D01*
X249458Y347313D01*
X249544Y347367D01*
X249632Y347417D01*
X249722Y347464D01*
X249813Y347508D01*
X249907Y347547D01*
X250001Y347584D01*
X250097Y347616D01*
X250195Y347645D01*
X250293Y347670D01*
X250392Y347691D01*
X250492Y347709D01*
X250592Y347722D01*
X250693Y347732D01*
X250795Y347738D01*
X250896Y347740D01*
X248624Y346442D02*
X246676Y342872D01*
X241808Y354781D02*
X253492Y354781D01*
X241808Y351536D02*
X241808Y358027D01*
D12*
X93597Y133858D02*
X92355Y133858D01*
X92285Y133860D01*
X92216Y133866D01*
X92147Y133876D01*
X92079Y133889D01*
X92011Y133907D01*
X91945Y133928D01*
X91880Y133953D01*
X91816Y133981D01*
X91754Y134013D01*
X91694Y134048D01*
X91636Y134087D01*
X91581Y134129D01*
X91527Y134174D01*
X91477Y134222D01*
X91429Y134272D01*
X91384Y134326D01*
X91342Y134381D01*
X91303Y134439D01*
X91268Y134499D01*
X91236Y134561D01*
X91208Y134625D01*
X91183Y134690D01*
X91162Y134756D01*
X91144Y134824D01*
X91131Y134892D01*
X91121Y134961D01*
X91115Y135030D01*
X91113Y135100D01*
X91113Y138204D01*
X91115Y138274D01*
X91121Y138343D01*
X91131Y138412D01*
X91144Y138480D01*
X91162Y138548D01*
X91183Y138614D01*
X91208Y138679D01*
X91236Y138743D01*
X91268Y138805D01*
X91303Y138865D01*
X91342Y138923D01*
X91384Y138978D01*
X91429Y139032D01*
X91477Y139082D01*
X91527Y139130D01*
X91581Y139175D01*
X91636Y139217D01*
X91694Y139256D01*
X91754Y139291D01*
X91816Y139323D01*
X91880Y139351D01*
X91945Y139376D01*
X92011Y139397D01*
X92079Y139415D01*
X92147Y139428D01*
X92216Y139438D01*
X92285Y139444D01*
X92355Y139446D01*
X93597Y139446D01*
X95702Y138204D02*
X97254Y139446D01*
X97254Y133858D01*
X95702Y133858D02*
X98806Y133858D01*
X91057Y110998D02*
X89815Y110998D01*
X89745Y111000D01*
X89676Y111006D01*
X89607Y111016D01*
X89539Y111029D01*
X89471Y111047D01*
X89405Y111068D01*
X89340Y111093D01*
X89276Y111121D01*
X89214Y111153D01*
X89154Y111188D01*
X89096Y111227D01*
X89041Y111269D01*
X88987Y111314D01*
X88937Y111362D01*
X88889Y111412D01*
X88844Y111466D01*
X88802Y111521D01*
X88763Y111579D01*
X88728Y111639D01*
X88696Y111701D01*
X88668Y111765D01*
X88643Y111830D01*
X88622Y111896D01*
X88604Y111964D01*
X88591Y112032D01*
X88581Y112101D01*
X88575Y112170D01*
X88573Y112240D01*
X88573Y115344D01*
X88575Y115414D01*
X88581Y115483D01*
X88591Y115552D01*
X88604Y115620D01*
X88622Y115688D01*
X88643Y115754D01*
X88668Y115819D01*
X88696Y115883D01*
X88728Y115945D01*
X88763Y116005D01*
X88802Y116063D01*
X88844Y116118D01*
X88889Y116172D01*
X88937Y116222D01*
X88987Y116270D01*
X89041Y116315D01*
X89096Y116357D01*
X89154Y116396D01*
X89214Y116431D01*
X89276Y116463D01*
X89340Y116491D01*
X89405Y116516D01*
X89471Y116537D01*
X89539Y116555D01*
X89607Y116568D01*
X89676Y116578D01*
X89745Y116584D01*
X89815Y116586D01*
X91057Y116586D01*
X94869Y116586D02*
X94942Y116584D01*
X95015Y116578D01*
X95088Y116569D01*
X95159Y116555D01*
X95231Y116538D01*
X95301Y116518D01*
X95370Y116493D01*
X95437Y116465D01*
X95503Y116434D01*
X95568Y116399D01*
X95630Y116361D01*
X95690Y116319D01*
X95748Y116275D01*
X95804Y116227D01*
X95857Y116177D01*
X95907Y116124D01*
X95955Y116068D01*
X95999Y116010D01*
X96041Y115950D01*
X96079Y115888D01*
X96114Y115823D01*
X96145Y115757D01*
X96173Y115690D01*
X96198Y115621D01*
X96218Y115551D01*
X96235Y115479D01*
X96249Y115408D01*
X96258Y115335D01*
X96264Y115262D01*
X96266Y115189D01*
X94869Y116586D02*
X94785Y116584D01*
X94702Y116578D01*
X94619Y116569D01*
X94537Y116555D01*
X94455Y116538D01*
X94374Y116516D01*
X94294Y116491D01*
X94216Y116463D01*
X94138Y116431D01*
X94063Y116395D01*
X93989Y116356D01*
X93917Y116313D01*
X93847Y116267D01*
X93780Y116218D01*
X93714Y116165D01*
X93652Y116110D01*
X93592Y116052D01*
X93534Y115991D01*
X93480Y115928D01*
X93428Y115862D01*
X93380Y115794D01*
X93335Y115723D01*
X93293Y115651D01*
X93255Y115576D01*
X93220Y115500D01*
X93189Y115423D01*
X93161Y115344D01*
X95800Y114103D02*
X95854Y114156D01*
X95905Y114213D01*
X95953Y114272D01*
X95998Y114333D01*
X96039Y114396D01*
X96078Y114462D01*
X96113Y114529D01*
X96145Y114598D01*
X96173Y114669D01*
X96197Y114740D01*
X96218Y114813D01*
X96235Y114887D01*
X96249Y114962D01*
X96258Y115037D01*
X96264Y115113D01*
X96266Y115189D01*
X95800Y114102D02*
X93162Y110998D01*
X96266Y110998D01*
X44648Y129794D02*
X43406Y129794D01*
X43336Y129796D01*
X43267Y129802D01*
X43198Y129812D01*
X43130Y129825D01*
X43062Y129843D01*
X42996Y129864D01*
X42931Y129889D01*
X42867Y129917D01*
X42805Y129949D01*
X42745Y129984D01*
X42687Y130023D01*
X42632Y130065D01*
X42578Y130110D01*
X42528Y130158D01*
X42480Y130208D01*
X42435Y130262D01*
X42393Y130317D01*
X42354Y130375D01*
X42319Y130435D01*
X42287Y130497D01*
X42259Y130561D01*
X42234Y130626D01*
X42213Y130692D01*
X42195Y130760D01*
X42182Y130828D01*
X42172Y130897D01*
X42166Y130966D01*
X42164Y131036D01*
X42164Y134140D01*
X42166Y134210D01*
X42172Y134279D01*
X42182Y134348D01*
X42195Y134416D01*
X42213Y134484D01*
X42234Y134550D01*
X42259Y134615D01*
X42287Y134679D01*
X42319Y134741D01*
X42354Y134801D01*
X42393Y134859D01*
X42435Y134914D01*
X42480Y134968D01*
X42528Y135018D01*
X42578Y135066D01*
X42632Y135111D01*
X42687Y135153D01*
X42745Y135192D01*
X42805Y135227D01*
X42867Y135259D01*
X42931Y135287D01*
X42996Y135312D01*
X43062Y135333D01*
X43130Y135351D01*
X43198Y135364D01*
X43267Y135374D01*
X43336Y135380D01*
X43406Y135382D01*
X44648Y135382D01*
X46752Y129794D02*
X48304Y129794D01*
X48381Y129796D01*
X48459Y129802D01*
X48535Y129811D01*
X48612Y129825D01*
X48687Y129842D01*
X48761Y129863D01*
X48835Y129888D01*
X48907Y129916D01*
X48977Y129948D01*
X49046Y129983D01*
X49113Y130022D01*
X49178Y130064D01*
X49241Y130109D01*
X49302Y130157D01*
X49360Y130208D01*
X49415Y130262D01*
X49468Y130319D01*
X49517Y130378D01*
X49564Y130440D01*
X49608Y130504D01*
X49648Y130570D01*
X49685Y130638D01*
X49719Y130708D01*
X49749Y130779D01*
X49775Y130852D01*
X49798Y130926D01*
X49817Y131001D01*
X49832Y131076D01*
X49844Y131153D01*
X49852Y131230D01*
X49856Y131307D01*
X49856Y131385D01*
X49852Y131462D01*
X49844Y131539D01*
X49832Y131616D01*
X49817Y131691D01*
X49798Y131766D01*
X49775Y131840D01*
X49749Y131913D01*
X49719Y131984D01*
X49685Y132054D01*
X49648Y132122D01*
X49608Y132188D01*
X49564Y132252D01*
X49517Y132314D01*
X49468Y132373D01*
X49415Y132430D01*
X49360Y132484D01*
X49302Y132535D01*
X49241Y132583D01*
X49178Y132628D01*
X49113Y132670D01*
X49046Y132709D01*
X48977Y132744D01*
X48907Y132776D01*
X48835Y132804D01*
X48761Y132829D01*
X48687Y132850D01*
X48612Y132867D01*
X48535Y132881D01*
X48459Y132890D01*
X48381Y132896D01*
X48304Y132898D01*
X48615Y135382D02*
X46752Y135382D01*
X48615Y135382D02*
X48685Y135380D01*
X48754Y135374D01*
X48823Y135364D01*
X48891Y135351D01*
X48959Y135333D01*
X49025Y135312D01*
X49090Y135287D01*
X49154Y135259D01*
X49216Y135227D01*
X49276Y135192D01*
X49334Y135153D01*
X49389Y135111D01*
X49443Y135066D01*
X49493Y135018D01*
X49541Y134968D01*
X49586Y134914D01*
X49628Y134859D01*
X49667Y134801D01*
X49702Y134741D01*
X49734Y134679D01*
X49762Y134615D01*
X49787Y134550D01*
X49808Y134484D01*
X49826Y134416D01*
X49839Y134348D01*
X49849Y134279D01*
X49855Y134210D01*
X49857Y134140D01*
X49855Y134070D01*
X49849Y134001D01*
X49839Y133932D01*
X49826Y133864D01*
X49808Y133796D01*
X49787Y133730D01*
X49762Y133665D01*
X49734Y133601D01*
X49702Y133539D01*
X49667Y133479D01*
X49628Y133421D01*
X49586Y133366D01*
X49541Y133312D01*
X49493Y133262D01*
X49443Y133214D01*
X49389Y133169D01*
X49334Y133127D01*
X49276Y133088D01*
X49216Y133053D01*
X49154Y133021D01*
X49090Y132993D01*
X49025Y132968D01*
X48959Y132947D01*
X48891Y132929D01*
X48823Y132916D01*
X48754Y132906D01*
X48685Y132900D01*
X48615Y132898D01*
X47373Y132898D01*
D13*
X156720Y94350D02*
X188720Y94350D01*
X188720Y45350D01*
X156720Y45350D01*
X156720Y94350D01*
X153220Y95650D02*
X137970Y95650D01*
D12*
X167774Y100076D02*
X167774Y105664D01*
X167153Y100076D02*
X168395Y100076D01*
X168395Y105664D02*
X167153Y105664D01*
X171836Y100076D02*
X173078Y100076D01*
X171836Y100076D02*
X171766Y100078D01*
X171697Y100084D01*
X171628Y100094D01*
X171560Y100107D01*
X171492Y100125D01*
X171426Y100146D01*
X171361Y100171D01*
X171297Y100199D01*
X171235Y100231D01*
X171175Y100266D01*
X171117Y100305D01*
X171062Y100347D01*
X171008Y100392D01*
X170958Y100440D01*
X170910Y100490D01*
X170865Y100544D01*
X170823Y100599D01*
X170784Y100657D01*
X170749Y100717D01*
X170717Y100779D01*
X170689Y100843D01*
X170664Y100908D01*
X170643Y100974D01*
X170625Y101042D01*
X170612Y101110D01*
X170602Y101179D01*
X170596Y101248D01*
X170594Y101318D01*
X170594Y104422D01*
X170596Y104492D01*
X170602Y104561D01*
X170612Y104630D01*
X170625Y104698D01*
X170643Y104766D01*
X170664Y104832D01*
X170689Y104897D01*
X170717Y104961D01*
X170749Y105023D01*
X170784Y105083D01*
X170823Y105141D01*
X170865Y105196D01*
X170910Y105250D01*
X170958Y105300D01*
X171008Y105348D01*
X171062Y105393D01*
X171117Y105435D01*
X171175Y105474D01*
X171235Y105509D01*
X171297Y105541D01*
X171361Y105569D01*
X171426Y105594D01*
X171492Y105615D01*
X171560Y105633D01*
X171628Y105646D01*
X171697Y105656D01*
X171766Y105662D01*
X171836Y105664D01*
X173078Y105664D01*
X175183Y104422D02*
X176735Y105664D01*
X176735Y100076D01*
X175183Y100076D02*
X178287Y100076D01*
D14*
X246540Y73820D02*
X246540Y59820D01*
X266540Y59820D01*
X266540Y73820D01*
X246540Y93820D02*
X246540Y107820D01*
X266540Y107820D01*
X266540Y93820D01*
X256540Y86820D02*
X249540Y86820D01*
X256540Y86820D02*
X263540Y86820D01*
X256540Y86820D02*
X250540Y80820D01*
X262540Y80820D01*
X256540Y86820D01*
D12*
X242316Y75184D02*
X236728Y75184D01*
X242316Y75184D02*
X242316Y77668D01*
X242316Y79939D02*
X242316Y82422D01*
X242316Y79939D02*
X236728Y79939D01*
X236728Y82422D01*
X239212Y81801D02*
X239212Y79939D01*
X236728Y84683D02*
X242316Y84683D01*
X236728Y84683D02*
X236728Y86235D01*
X236730Y86311D01*
X236735Y86387D01*
X236745Y86463D01*
X236758Y86538D01*
X236775Y86612D01*
X236795Y86686D01*
X236819Y86758D01*
X236846Y86829D01*
X236877Y86899D01*
X236911Y86967D01*
X236949Y87033D01*
X236990Y87097D01*
X237033Y87160D01*
X237080Y87220D01*
X237130Y87277D01*
X237183Y87332D01*
X237238Y87385D01*
X237295Y87435D01*
X237355Y87482D01*
X237418Y87525D01*
X237482Y87566D01*
X237548Y87604D01*
X237616Y87638D01*
X237686Y87669D01*
X237757Y87696D01*
X237830Y87720D01*
X237903Y87740D01*
X237977Y87757D01*
X238052Y87770D01*
X238128Y87780D01*
X238204Y87785D01*
X238280Y87787D01*
X240764Y87787D01*
X240840Y87785D01*
X240916Y87780D01*
X240992Y87770D01*
X241067Y87757D01*
X241141Y87740D01*
X241215Y87720D01*
X241287Y87696D01*
X241358Y87669D01*
X241428Y87638D01*
X241496Y87604D01*
X241562Y87566D01*
X241626Y87525D01*
X241689Y87482D01*
X241749Y87435D01*
X241806Y87385D01*
X241861Y87332D01*
X241914Y87277D01*
X241964Y87220D01*
X242011Y87160D01*
X242054Y87097D01*
X242095Y87033D01*
X242133Y86967D01*
X242167Y86899D01*
X242198Y86829D01*
X242225Y86758D01*
X242249Y86686D01*
X242269Y86612D01*
X242286Y86538D01*
X242299Y86463D01*
X242309Y86387D01*
X242314Y86311D01*
X242316Y86235D01*
X242316Y84683D01*
X237349Y90352D02*
X236728Y90352D01*
X236728Y93456D01*
X242316Y91904D01*
D15*
X228727Y49657D02*
X228727Y45847D01*
X228727Y49657D02*
X229785Y49657D01*
X229849Y49655D01*
X229913Y49649D01*
X229976Y49640D01*
X230038Y49626D01*
X230100Y49609D01*
X230160Y49588D01*
X230219Y49564D01*
X230277Y49536D01*
X230332Y49504D01*
X230386Y49470D01*
X230437Y49432D01*
X230487Y49391D01*
X230533Y49347D01*
X230577Y49301D01*
X230618Y49251D01*
X230656Y49200D01*
X230690Y49146D01*
X230722Y49091D01*
X230750Y49033D01*
X230774Y48974D01*
X230795Y48914D01*
X230812Y48852D01*
X230826Y48790D01*
X230835Y48727D01*
X230841Y48663D01*
X230843Y48599D01*
X230841Y48535D01*
X230835Y48471D01*
X230826Y48408D01*
X230812Y48346D01*
X230795Y48284D01*
X230774Y48224D01*
X230750Y48165D01*
X230722Y48107D01*
X230690Y48052D01*
X230656Y47998D01*
X230618Y47947D01*
X230577Y47897D01*
X230533Y47851D01*
X230487Y47807D01*
X230437Y47766D01*
X230386Y47728D01*
X230332Y47694D01*
X230277Y47662D01*
X230219Y47634D01*
X230160Y47610D01*
X230100Y47589D01*
X230038Y47572D01*
X229976Y47558D01*
X229913Y47549D01*
X229849Y47543D01*
X229785Y47541D01*
X229785Y47540D02*
X228727Y47540D01*
X229997Y47540D02*
X230844Y45847D01*
X232364Y48810D02*
X233422Y49657D01*
X233422Y45847D01*
X232364Y45847D02*
X234480Y45847D01*
D16*
X77070Y8890D02*
X27070Y8890D01*
X18570Y19390D02*
X18570Y24390D01*
X85570Y24390D02*
X85570Y19390D01*
X52070Y34890D02*
X37070Y34890D01*
D12*
X48459Y58236D02*
X48529Y58238D01*
X48598Y58244D01*
X48667Y58254D01*
X48735Y58267D01*
X48803Y58285D01*
X48869Y58306D01*
X48934Y58331D01*
X48998Y58359D01*
X49060Y58391D01*
X49120Y58426D01*
X49178Y58465D01*
X49233Y58507D01*
X49287Y58552D01*
X49337Y58600D01*
X49385Y58650D01*
X49430Y58704D01*
X49472Y58759D01*
X49511Y58817D01*
X49546Y58877D01*
X49578Y58939D01*
X49606Y59003D01*
X49631Y59068D01*
X49652Y59134D01*
X49670Y59202D01*
X49683Y59270D01*
X49693Y59339D01*
X49699Y59408D01*
X49701Y59478D01*
X48459Y58236D02*
X48360Y58238D01*
X48262Y58243D01*
X48164Y58253D01*
X48066Y58266D01*
X47969Y58282D01*
X47872Y58302D01*
X47777Y58326D01*
X47682Y58354D01*
X47588Y58385D01*
X47496Y58419D01*
X47405Y58457D01*
X47315Y58498D01*
X47227Y58543D01*
X47141Y58591D01*
X47057Y58642D01*
X46975Y58696D01*
X46894Y58754D01*
X46816Y58814D01*
X46741Y58877D01*
X46667Y58943D01*
X46597Y59012D01*
X46751Y62582D02*
X46753Y62652D01*
X46759Y62721D01*
X46769Y62790D01*
X46782Y62858D01*
X46800Y62926D01*
X46821Y62992D01*
X46846Y63057D01*
X46874Y63121D01*
X46906Y63183D01*
X46941Y63243D01*
X46980Y63301D01*
X47022Y63356D01*
X47067Y63410D01*
X47115Y63460D01*
X47165Y63508D01*
X47219Y63553D01*
X47274Y63595D01*
X47332Y63634D01*
X47392Y63669D01*
X47454Y63701D01*
X47518Y63729D01*
X47583Y63754D01*
X47649Y63775D01*
X47717Y63793D01*
X47785Y63806D01*
X47854Y63816D01*
X47923Y63822D01*
X47993Y63824D01*
X48087Y63822D01*
X48180Y63816D01*
X48273Y63807D01*
X48366Y63794D01*
X48458Y63777D01*
X48549Y63757D01*
X48640Y63732D01*
X48729Y63705D01*
X48817Y63673D01*
X48904Y63638D01*
X48990Y63600D01*
X49073Y63558D01*
X49155Y63513D01*
X49236Y63465D01*
X49314Y63413D01*
X49390Y63358D01*
X47372Y61496D02*
X47313Y61532D01*
X47257Y61572D01*
X47203Y61615D01*
X47151Y61660D01*
X47102Y61709D01*
X47056Y61760D01*
X47013Y61813D01*
X46972Y61869D01*
X46935Y61927D01*
X46900Y61987D01*
X46870Y62048D01*
X46842Y62111D01*
X46818Y62176D01*
X46798Y62242D01*
X46781Y62309D01*
X46768Y62376D01*
X46759Y62444D01*
X46753Y62513D01*
X46751Y62582D01*
X49079Y60564D02*
X49138Y60528D01*
X49194Y60488D01*
X49248Y60445D01*
X49300Y60400D01*
X49349Y60351D01*
X49395Y60300D01*
X49438Y60247D01*
X49479Y60191D01*
X49516Y60133D01*
X49551Y60073D01*
X49581Y60012D01*
X49609Y59949D01*
X49633Y59884D01*
X49653Y59818D01*
X49670Y59751D01*
X49683Y59684D01*
X49692Y59616D01*
X49698Y59547D01*
X49700Y59478D01*
X49080Y60564D02*
X47372Y61496D01*
X51900Y62582D02*
X53452Y63824D01*
X53452Y58236D01*
X51900Y58236D02*
X55004Y58236D01*
D17*
X148324Y178452D03*
D18*
X150260Y185740D02*
X150824Y185740D01*
X150260Y185740D02*
X150260Y225740D01*
X150824Y225740D01*
X199696Y185740D02*
X200260Y185740D01*
X200260Y225740D01*
X199696Y225740D01*
D14*
X30480Y288290D02*
X30480Y300990D01*
X259080Y300990D02*
X259080Y288290D01*
D19*
X12573Y297053D02*
X12573Y305943D01*
X12573Y297053D02*
X12571Y296953D01*
X12565Y296854D01*
X12555Y296754D01*
X12542Y296656D01*
X12524Y296557D01*
X12503Y296460D01*
X12478Y296364D01*
X12449Y296268D01*
X12416Y296174D01*
X12380Y296081D01*
X12340Y295990D01*
X12296Y295900D01*
X12249Y295812D01*
X12199Y295726D01*
X12145Y295642D01*
X12088Y295560D01*
X12028Y295481D01*
X11964Y295403D01*
X11898Y295329D01*
X11829Y295257D01*
X11757Y295188D01*
X11683Y295122D01*
X11605Y295058D01*
X11526Y294998D01*
X11444Y294941D01*
X11360Y294887D01*
X11274Y294837D01*
X11186Y294790D01*
X11096Y294746D01*
X11005Y294706D01*
X10912Y294670D01*
X10818Y294637D01*
X10722Y294608D01*
X10626Y294583D01*
X10529Y294562D01*
X10430Y294544D01*
X10332Y294531D01*
X10232Y294521D01*
X10133Y294515D01*
X10033Y294513D01*
X8763Y294513D01*
X17982Y303403D02*
X21157Y305943D01*
X21157Y294513D01*
X17982Y294513D02*
X24332Y294513D01*
M02*
