G04 EAGLE Gerber RS-274X export*
G75*
%MOMM*%
%FSLAX34Y34*%
%LPD*%
%INSolderpaste Top*%
%IPPOS*%
%AMOC8*
5,1,8,0,0,1.08239X$1,22.5*%
G01*
%ADD10R,1.170000X1.470000*%
%ADD11R,1.423400X0.548400*%
%ADD12R,1.280000X1.080000*%
%ADD13R,1.440000X1.640000*%
%ADD14C,0.005981*%
%ADD15R,0.898400X0.698400*%
%ADD16R,0.467500X1.866900*%


D10*
X133190Y137160D03*
X113190Y137160D03*
X133190Y114300D03*
X113190Y114300D03*
X33180Y115570D03*
X53180Y115570D03*
D11*
X145600Y88900D03*
X145600Y76200D03*
X145600Y63500D03*
X145600Y50800D03*
X199840Y50800D03*
X199840Y63500D03*
X199840Y76200D03*
X199840Y88900D03*
D12*
X256540Y68820D03*
X256540Y98820D03*
D13*
X227300Y34290D03*
X255300Y34290D03*
D14*
X32532Y32428D02*
X32532Y46352D01*
X32532Y32428D02*
X26608Y32428D01*
X26608Y46352D01*
X32532Y46352D01*
X32532Y32485D02*
X26608Y32485D01*
X26608Y32542D02*
X32532Y32542D01*
X32532Y32599D02*
X26608Y32599D01*
X26608Y32656D02*
X32532Y32656D01*
X32532Y32713D02*
X26608Y32713D01*
X26608Y32770D02*
X32532Y32770D01*
X32532Y32827D02*
X26608Y32827D01*
X26608Y32884D02*
X32532Y32884D01*
X32532Y32941D02*
X26608Y32941D01*
X26608Y32998D02*
X32532Y32998D01*
X32532Y33055D02*
X26608Y33055D01*
X26608Y33112D02*
X32532Y33112D01*
X32532Y33169D02*
X26608Y33169D01*
X26608Y33226D02*
X32532Y33226D01*
X32532Y33283D02*
X26608Y33283D01*
X26608Y33340D02*
X32532Y33340D01*
X32532Y33397D02*
X26608Y33397D01*
X26608Y33454D02*
X32532Y33454D01*
X32532Y33511D02*
X26608Y33511D01*
X26608Y33568D02*
X32532Y33568D01*
X32532Y33625D02*
X26608Y33625D01*
X26608Y33682D02*
X32532Y33682D01*
X32532Y33739D02*
X26608Y33739D01*
X26608Y33796D02*
X32532Y33796D01*
X32532Y33853D02*
X26608Y33853D01*
X26608Y33910D02*
X32532Y33910D01*
X32532Y33967D02*
X26608Y33967D01*
X26608Y34024D02*
X32532Y34024D01*
X32532Y34081D02*
X26608Y34081D01*
X26608Y34138D02*
X32532Y34138D01*
X32532Y34195D02*
X26608Y34195D01*
X26608Y34252D02*
X32532Y34252D01*
X32532Y34309D02*
X26608Y34309D01*
X26608Y34366D02*
X32532Y34366D01*
X32532Y34423D02*
X26608Y34423D01*
X26608Y34480D02*
X32532Y34480D01*
X32532Y34537D02*
X26608Y34537D01*
X26608Y34594D02*
X32532Y34594D01*
X32532Y34651D02*
X26608Y34651D01*
X26608Y34708D02*
X32532Y34708D01*
X32532Y34765D02*
X26608Y34765D01*
X26608Y34822D02*
X32532Y34822D01*
X32532Y34879D02*
X26608Y34879D01*
X26608Y34936D02*
X32532Y34936D01*
X32532Y34993D02*
X26608Y34993D01*
X26608Y35050D02*
X32532Y35050D01*
X32532Y35107D02*
X26608Y35107D01*
X26608Y35164D02*
X32532Y35164D01*
X32532Y35221D02*
X26608Y35221D01*
X26608Y35278D02*
X32532Y35278D01*
X32532Y35335D02*
X26608Y35335D01*
X26608Y35392D02*
X32532Y35392D01*
X32532Y35449D02*
X26608Y35449D01*
X26608Y35506D02*
X32532Y35506D01*
X32532Y35563D02*
X26608Y35563D01*
X26608Y35620D02*
X32532Y35620D01*
X32532Y35677D02*
X26608Y35677D01*
X26608Y35734D02*
X32532Y35734D01*
X32532Y35791D02*
X26608Y35791D01*
X26608Y35848D02*
X32532Y35848D01*
X32532Y35905D02*
X26608Y35905D01*
X26608Y35962D02*
X32532Y35962D01*
X32532Y36019D02*
X26608Y36019D01*
X26608Y36076D02*
X32532Y36076D01*
X32532Y36133D02*
X26608Y36133D01*
X26608Y36190D02*
X32532Y36190D01*
X32532Y36247D02*
X26608Y36247D01*
X26608Y36304D02*
X32532Y36304D01*
X32532Y36361D02*
X26608Y36361D01*
X26608Y36418D02*
X32532Y36418D01*
X32532Y36475D02*
X26608Y36475D01*
X26608Y36532D02*
X32532Y36532D01*
X32532Y36589D02*
X26608Y36589D01*
X26608Y36646D02*
X32532Y36646D01*
X32532Y36703D02*
X26608Y36703D01*
X26608Y36760D02*
X32532Y36760D01*
X32532Y36817D02*
X26608Y36817D01*
X26608Y36874D02*
X32532Y36874D01*
X32532Y36931D02*
X26608Y36931D01*
X26608Y36988D02*
X32532Y36988D01*
X32532Y37045D02*
X26608Y37045D01*
X26608Y37102D02*
X32532Y37102D01*
X32532Y37159D02*
X26608Y37159D01*
X26608Y37216D02*
X32532Y37216D01*
X32532Y37273D02*
X26608Y37273D01*
X26608Y37330D02*
X32532Y37330D01*
X32532Y37387D02*
X26608Y37387D01*
X26608Y37444D02*
X32532Y37444D01*
X32532Y37501D02*
X26608Y37501D01*
X26608Y37558D02*
X32532Y37558D01*
X32532Y37615D02*
X26608Y37615D01*
X26608Y37672D02*
X32532Y37672D01*
X32532Y37729D02*
X26608Y37729D01*
X26608Y37786D02*
X32532Y37786D01*
X32532Y37843D02*
X26608Y37843D01*
X26608Y37900D02*
X32532Y37900D01*
X32532Y37957D02*
X26608Y37957D01*
X26608Y38014D02*
X32532Y38014D01*
X32532Y38071D02*
X26608Y38071D01*
X26608Y38128D02*
X32532Y38128D01*
X32532Y38185D02*
X26608Y38185D01*
X26608Y38242D02*
X32532Y38242D01*
X32532Y38299D02*
X26608Y38299D01*
X26608Y38356D02*
X32532Y38356D01*
X32532Y38413D02*
X26608Y38413D01*
X26608Y38470D02*
X32532Y38470D01*
X32532Y38527D02*
X26608Y38527D01*
X26608Y38584D02*
X32532Y38584D01*
X32532Y38641D02*
X26608Y38641D01*
X26608Y38698D02*
X32532Y38698D01*
X32532Y38755D02*
X26608Y38755D01*
X26608Y38812D02*
X32532Y38812D01*
X32532Y38869D02*
X26608Y38869D01*
X26608Y38926D02*
X32532Y38926D01*
X32532Y38983D02*
X26608Y38983D01*
X26608Y39040D02*
X32532Y39040D01*
X32532Y39097D02*
X26608Y39097D01*
X26608Y39154D02*
X32532Y39154D01*
X32532Y39211D02*
X26608Y39211D01*
X26608Y39268D02*
X32532Y39268D01*
X32532Y39325D02*
X26608Y39325D01*
X26608Y39382D02*
X32532Y39382D01*
X32532Y39439D02*
X26608Y39439D01*
X26608Y39496D02*
X32532Y39496D01*
X32532Y39553D02*
X26608Y39553D01*
X26608Y39610D02*
X32532Y39610D01*
X32532Y39667D02*
X26608Y39667D01*
X26608Y39724D02*
X32532Y39724D01*
X32532Y39781D02*
X26608Y39781D01*
X26608Y39838D02*
X32532Y39838D01*
X32532Y39895D02*
X26608Y39895D01*
X26608Y39952D02*
X32532Y39952D01*
X32532Y40009D02*
X26608Y40009D01*
X26608Y40066D02*
X32532Y40066D01*
X32532Y40123D02*
X26608Y40123D01*
X26608Y40180D02*
X32532Y40180D01*
X32532Y40237D02*
X26608Y40237D01*
X26608Y40294D02*
X32532Y40294D01*
X32532Y40351D02*
X26608Y40351D01*
X26608Y40408D02*
X32532Y40408D01*
X32532Y40465D02*
X26608Y40465D01*
X26608Y40522D02*
X32532Y40522D01*
X32532Y40579D02*
X26608Y40579D01*
X26608Y40636D02*
X32532Y40636D01*
X32532Y40693D02*
X26608Y40693D01*
X26608Y40750D02*
X32532Y40750D01*
X32532Y40807D02*
X26608Y40807D01*
X26608Y40864D02*
X32532Y40864D01*
X32532Y40921D02*
X26608Y40921D01*
X26608Y40978D02*
X32532Y40978D01*
X32532Y41035D02*
X26608Y41035D01*
X26608Y41092D02*
X32532Y41092D01*
X32532Y41149D02*
X26608Y41149D01*
X26608Y41206D02*
X32532Y41206D01*
X32532Y41263D02*
X26608Y41263D01*
X26608Y41320D02*
X32532Y41320D01*
X32532Y41377D02*
X26608Y41377D01*
X26608Y41434D02*
X32532Y41434D01*
X32532Y41491D02*
X26608Y41491D01*
X26608Y41548D02*
X32532Y41548D01*
X32532Y41605D02*
X26608Y41605D01*
X26608Y41662D02*
X32532Y41662D01*
X32532Y41719D02*
X26608Y41719D01*
X26608Y41776D02*
X32532Y41776D01*
X32532Y41833D02*
X26608Y41833D01*
X26608Y41890D02*
X32532Y41890D01*
X32532Y41947D02*
X26608Y41947D01*
X26608Y42004D02*
X32532Y42004D01*
X32532Y42061D02*
X26608Y42061D01*
X26608Y42118D02*
X32532Y42118D01*
X32532Y42175D02*
X26608Y42175D01*
X26608Y42232D02*
X32532Y42232D01*
X32532Y42289D02*
X26608Y42289D01*
X26608Y42346D02*
X32532Y42346D01*
X32532Y42403D02*
X26608Y42403D01*
X26608Y42460D02*
X32532Y42460D01*
X32532Y42517D02*
X26608Y42517D01*
X26608Y42574D02*
X32532Y42574D01*
X32532Y42631D02*
X26608Y42631D01*
X26608Y42688D02*
X32532Y42688D01*
X32532Y42745D02*
X26608Y42745D01*
X26608Y42802D02*
X32532Y42802D01*
X32532Y42859D02*
X26608Y42859D01*
X26608Y42916D02*
X32532Y42916D01*
X32532Y42973D02*
X26608Y42973D01*
X26608Y43030D02*
X32532Y43030D01*
X32532Y43087D02*
X26608Y43087D01*
X26608Y43144D02*
X32532Y43144D01*
X32532Y43201D02*
X26608Y43201D01*
X26608Y43258D02*
X32532Y43258D01*
X32532Y43315D02*
X26608Y43315D01*
X26608Y43372D02*
X32532Y43372D01*
X32532Y43429D02*
X26608Y43429D01*
X26608Y43486D02*
X32532Y43486D01*
X32532Y43543D02*
X26608Y43543D01*
X26608Y43600D02*
X32532Y43600D01*
X32532Y43657D02*
X26608Y43657D01*
X26608Y43714D02*
X32532Y43714D01*
X32532Y43771D02*
X26608Y43771D01*
X26608Y43828D02*
X32532Y43828D01*
X32532Y43885D02*
X26608Y43885D01*
X26608Y43942D02*
X32532Y43942D01*
X32532Y43999D02*
X26608Y43999D01*
X26608Y44056D02*
X32532Y44056D01*
X32532Y44113D02*
X26608Y44113D01*
X26608Y44170D02*
X32532Y44170D01*
X32532Y44227D02*
X26608Y44227D01*
X26608Y44284D02*
X32532Y44284D01*
X32532Y44341D02*
X26608Y44341D01*
X26608Y44398D02*
X32532Y44398D01*
X32532Y44455D02*
X26608Y44455D01*
X26608Y44512D02*
X32532Y44512D01*
X32532Y44569D02*
X26608Y44569D01*
X26608Y44626D02*
X32532Y44626D01*
X32532Y44683D02*
X26608Y44683D01*
X26608Y44740D02*
X32532Y44740D01*
X32532Y44797D02*
X26608Y44797D01*
X26608Y44854D02*
X32532Y44854D01*
X32532Y44911D02*
X26608Y44911D01*
X26608Y44968D02*
X32532Y44968D01*
X32532Y45025D02*
X26608Y45025D01*
X26608Y45082D02*
X32532Y45082D01*
X32532Y45139D02*
X26608Y45139D01*
X26608Y45196D02*
X32532Y45196D01*
X32532Y45253D02*
X26608Y45253D01*
X26608Y45310D02*
X32532Y45310D01*
X32532Y45367D02*
X26608Y45367D01*
X26608Y45424D02*
X32532Y45424D01*
X32532Y45481D02*
X26608Y45481D01*
X26608Y45538D02*
X32532Y45538D01*
X32532Y45595D02*
X26608Y45595D01*
X26608Y45652D02*
X32532Y45652D01*
X32532Y45709D02*
X26608Y45709D01*
X26608Y45766D02*
X32532Y45766D01*
X32532Y45823D02*
X26608Y45823D01*
X26608Y45880D02*
X32532Y45880D01*
X32532Y45937D02*
X26608Y45937D01*
X26608Y45994D02*
X32532Y45994D01*
X32532Y46051D02*
X26608Y46051D01*
X26608Y46108D02*
X32532Y46108D01*
X32532Y46165D02*
X26608Y46165D01*
X26608Y46222D02*
X32532Y46222D01*
X32532Y46279D02*
X26608Y46279D01*
X26608Y46336D02*
X32532Y46336D01*
X62532Y46352D02*
X62532Y32428D01*
X56608Y32428D01*
X56608Y46352D01*
X62532Y46352D01*
X62532Y32485D02*
X56608Y32485D01*
X56608Y32542D02*
X62532Y32542D01*
X62532Y32599D02*
X56608Y32599D01*
X56608Y32656D02*
X62532Y32656D01*
X62532Y32713D02*
X56608Y32713D01*
X56608Y32770D02*
X62532Y32770D01*
X62532Y32827D02*
X56608Y32827D01*
X56608Y32884D02*
X62532Y32884D01*
X62532Y32941D02*
X56608Y32941D01*
X56608Y32998D02*
X62532Y32998D01*
X62532Y33055D02*
X56608Y33055D01*
X56608Y33112D02*
X62532Y33112D01*
X62532Y33169D02*
X56608Y33169D01*
X56608Y33226D02*
X62532Y33226D01*
X62532Y33283D02*
X56608Y33283D01*
X56608Y33340D02*
X62532Y33340D01*
X62532Y33397D02*
X56608Y33397D01*
X56608Y33454D02*
X62532Y33454D01*
X62532Y33511D02*
X56608Y33511D01*
X56608Y33568D02*
X62532Y33568D01*
X62532Y33625D02*
X56608Y33625D01*
X56608Y33682D02*
X62532Y33682D01*
X62532Y33739D02*
X56608Y33739D01*
X56608Y33796D02*
X62532Y33796D01*
X62532Y33853D02*
X56608Y33853D01*
X56608Y33910D02*
X62532Y33910D01*
X62532Y33967D02*
X56608Y33967D01*
X56608Y34024D02*
X62532Y34024D01*
X62532Y34081D02*
X56608Y34081D01*
X56608Y34138D02*
X62532Y34138D01*
X62532Y34195D02*
X56608Y34195D01*
X56608Y34252D02*
X62532Y34252D01*
X62532Y34309D02*
X56608Y34309D01*
X56608Y34366D02*
X62532Y34366D01*
X62532Y34423D02*
X56608Y34423D01*
X56608Y34480D02*
X62532Y34480D01*
X62532Y34537D02*
X56608Y34537D01*
X56608Y34594D02*
X62532Y34594D01*
X62532Y34651D02*
X56608Y34651D01*
X56608Y34708D02*
X62532Y34708D01*
X62532Y34765D02*
X56608Y34765D01*
X56608Y34822D02*
X62532Y34822D01*
X62532Y34879D02*
X56608Y34879D01*
X56608Y34936D02*
X62532Y34936D01*
X62532Y34993D02*
X56608Y34993D01*
X56608Y35050D02*
X62532Y35050D01*
X62532Y35107D02*
X56608Y35107D01*
X56608Y35164D02*
X62532Y35164D01*
X62532Y35221D02*
X56608Y35221D01*
X56608Y35278D02*
X62532Y35278D01*
X62532Y35335D02*
X56608Y35335D01*
X56608Y35392D02*
X62532Y35392D01*
X62532Y35449D02*
X56608Y35449D01*
X56608Y35506D02*
X62532Y35506D01*
X62532Y35563D02*
X56608Y35563D01*
X56608Y35620D02*
X62532Y35620D01*
X62532Y35677D02*
X56608Y35677D01*
X56608Y35734D02*
X62532Y35734D01*
X62532Y35791D02*
X56608Y35791D01*
X56608Y35848D02*
X62532Y35848D01*
X62532Y35905D02*
X56608Y35905D01*
X56608Y35962D02*
X62532Y35962D01*
X62532Y36019D02*
X56608Y36019D01*
X56608Y36076D02*
X62532Y36076D01*
X62532Y36133D02*
X56608Y36133D01*
X56608Y36190D02*
X62532Y36190D01*
X62532Y36247D02*
X56608Y36247D01*
X56608Y36304D02*
X62532Y36304D01*
X62532Y36361D02*
X56608Y36361D01*
X56608Y36418D02*
X62532Y36418D01*
X62532Y36475D02*
X56608Y36475D01*
X56608Y36532D02*
X62532Y36532D01*
X62532Y36589D02*
X56608Y36589D01*
X56608Y36646D02*
X62532Y36646D01*
X62532Y36703D02*
X56608Y36703D01*
X56608Y36760D02*
X62532Y36760D01*
X62532Y36817D02*
X56608Y36817D01*
X56608Y36874D02*
X62532Y36874D01*
X62532Y36931D02*
X56608Y36931D01*
X56608Y36988D02*
X62532Y36988D01*
X62532Y37045D02*
X56608Y37045D01*
X56608Y37102D02*
X62532Y37102D01*
X62532Y37159D02*
X56608Y37159D01*
X56608Y37216D02*
X62532Y37216D01*
X62532Y37273D02*
X56608Y37273D01*
X56608Y37330D02*
X62532Y37330D01*
X62532Y37387D02*
X56608Y37387D01*
X56608Y37444D02*
X62532Y37444D01*
X62532Y37501D02*
X56608Y37501D01*
X56608Y37558D02*
X62532Y37558D01*
X62532Y37615D02*
X56608Y37615D01*
X56608Y37672D02*
X62532Y37672D01*
X62532Y37729D02*
X56608Y37729D01*
X56608Y37786D02*
X62532Y37786D01*
X62532Y37843D02*
X56608Y37843D01*
X56608Y37900D02*
X62532Y37900D01*
X62532Y37957D02*
X56608Y37957D01*
X56608Y38014D02*
X62532Y38014D01*
X62532Y38071D02*
X56608Y38071D01*
X56608Y38128D02*
X62532Y38128D01*
X62532Y38185D02*
X56608Y38185D01*
X56608Y38242D02*
X62532Y38242D01*
X62532Y38299D02*
X56608Y38299D01*
X56608Y38356D02*
X62532Y38356D01*
X62532Y38413D02*
X56608Y38413D01*
X56608Y38470D02*
X62532Y38470D01*
X62532Y38527D02*
X56608Y38527D01*
X56608Y38584D02*
X62532Y38584D01*
X62532Y38641D02*
X56608Y38641D01*
X56608Y38698D02*
X62532Y38698D01*
X62532Y38755D02*
X56608Y38755D01*
X56608Y38812D02*
X62532Y38812D01*
X62532Y38869D02*
X56608Y38869D01*
X56608Y38926D02*
X62532Y38926D01*
X62532Y38983D02*
X56608Y38983D01*
X56608Y39040D02*
X62532Y39040D01*
X62532Y39097D02*
X56608Y39097D01*
X56608Y39154D02*
X62532Y39154D01*
X62532Y39211D02*
X56608Y39211D01*
X56608Y39268D02*
X62532Y39268D01*
X62532Y39325D02*
X56608Y39325D01*
X56608Y39382D02*
X62532Y39382D01*
X62532Y39439D02*
X56608Y39439D01*
X56608Y39496D02*
X62532Y39496D01*
X62532Y39553D02*
X56608Y39553D01*
X56608Y39610D02*
X62532Y39610D01*
X62532Y39667D02*
X56608Y39667D01*
X56608Y39724D02*
X62532Y39724D01*
X62532Y39781D02*
X56608Y39781D01*
X56608Y39838D02*
X62532Y39838D01*
X62532Y39895D02*
X56608Y39895D01*
X56608Y39952D02*
X62532Y39952D01*
X62532Y40009D02*
X56608Y40009D01*
X56608Y40066D02*
X62532Y40066D01*
X62532Y40123D02*
X56608Y40123D01*
X56608Y40180D02*
X62532Y40180D01*
X62532Y40237D02*
X56608Y40237D01*
X56608Y40294D02*
X62532Y40294D01*
X62532Y40351D02*
X56608Y40351D01*
X56608Y40408D02*
X62532Y40408D01*
X62532Y40465D02*
X56608Y40465D01*
X56608Y40522D02*
X62532Y40522D01*
X62532Y40579D02*
X56608Y40579D01*
X56608Y40636D02*
X62532Y40636D01*
X62532Y40693D02*
X56608Y40693D01*
X56608Y40750D02*
X62532Y40750D01*
X62532Y40807D02*
X56608Y40807D01*
X56608Y40864D02*
X62532Y40864D01*
X62532Y40921D02*
X56608Y40921D01*
X56608Y40978D02*
X62532Y40978D01*
X62532Y41035D02*
X56608Y41035D01*
X56608Y41092D02*
X62532Y41092D01*
X62532Y41149D02*
X56608Y41149D01*
X56608Y41206D02*
X62532Y41206D01*
X62532Y41263D02*
X56608Y41263D01*
X56608Y41320D02*
X62532Y41320D01*
X62532Y41377D02*
X56608Y41377D01*
X56608Y41434D02*
X62532Y41434D01*
X62532Y41491D02*
X56608Y41491D01*
X56608Y41548D02*
X62532Y41548D01*
X62532Y41605D02*
X56608Y41605D01*
X56608Y41662D02*
X62532Y41662D01*
X62532Y41719D02*
X56608Y41719D01*
X56608Y41776D02*
X62532Y41776D01*
X62532Y41833D02*
X56608Y41833D01*
X56608Y41890D02*
X62532Y41890D01*
X62532Y41947D02*
X56608Y41947D01*
X56608Y42004D02*
X62532Y42004D01*
X62532Y42061D02*
X56608Y42061D01*
X56608Y42118D02*
X62532Y42118D01*
X62532Y42175D02*
X56608Y42175D01*
X56608Y42232D02*
X62532Y42232D01*
X62532Y42289D02*
X56608Y42289D01*
X56608Y42346D02*
X62532Y42346D01*
X62532Y42403D02*
X56608Y42403D01*
X56608Y42460D02*
X62532Y42460D01*
X62532Y42517D02*
X56608Y42517D01*
X56608Y42574D02*
X62532Y42574D01*
X62532Y42631D02*
X56608Y42631D01*
X56608Y42688D02*
X62532Y42688D01*
X62532Y42745D02*
X56608Y42745D01*
X56608Y42802D02*
X62532Y42802D01*
X62532Y42859D02*
X56608Y42859D01*
X56608Y42916D02*
X62532Y42916D01*
X62532Y42973D02*
X56608Y42973D01*
X56608Y43030D02*
X62532Y43030D01*
X62532Y43087D02*
X56608Y43087D01*
X56608Y43144D02*
X62532Y43144D01*
X62532Y43201D02*
X56608Y43201D01*
X56608Y43258D02*
X62532Y43258D01*
X62532Y43315D02*
X56608Y43315D01*
X56608Y43372D02*
X62532Y43372D01*
X62532Y43429D02*
X56608Y43429D01*
X56608Y43486D02*
X62532Y43486D01*
X62532Y43543D02*
X56608Y43543D01*
X56608Y43600D02*
X62532Y43600D01*
X62532Y43657D02*
X56608Y43657D01*
X56608Y43714D02*
X62532Y43714D01*
X62532Y43771D02*
X56608Y43771D01*
X56608Y43828D02*
X62532Y43828D01*
X62532Y43885D02*
X56608Y43885D01*
X56608Y43942D02*
X62532Y43942D01*
X62532Y43999D02*
X56608Y43999D01*
X56608Y44056D02*
X62532Y44056D01*
X62532Y44113D02*
X56608Y44113D01*
X56608Y44170D02*
X62532Y44170D01*
X62532Y44227D02*
X56608Y44227D01*
X56608Y44284D02*
X62532Y44284D01*
X62532Y44341D02*
X56608Y44341D01*
X56608Y44398D02*
X62532Y44398D01*
X62532Y44455D02*
X56608Y44455D01*
X56608Y44512D02*
X62532Y44512D01*
X62532Y44569D02*
X56608Y44569D01*
X56608Y44626D02*
X62532Y44626D01*
X62532Y44683D02*
X56608Y44683D01*
X56608Y44740D02*
X62532Y44740D01*
X62532Y44797D02*
X56608Y44797D01*
X56608Y44854D02*
X62532Y44854D01*
X62532Y44911D02*
X56608Y44911D01*
X56608Y44968D02*
X62532Y44968D01*
X62532Y45025D02*
X56608Y45025D01*
X56608Y45082D02*
X62532Y45082D01*
X62532Y45139D02*
X56608Y45139D01*
X56608Y45196D02*
X62532Y45196D01*
X62532Y45253D02*
X56608Y45253D01*
X56608Y45310D02*
X62532Y45310D01*
X62532Y45367D02*
X56608Y45367D01*
X56608Y45424D02*
X62532Y45424D01*
X62532Y45481D02*
X56608Y45481D01*
X56608Y45538D02*
X62532Y45538D01*
X62532Y45595D02*
X56608Y45595D01*
X56608Y45652D02*
X62532Y45652D01*
X62532Y45709D02*
X56608Y45709D01*
X56608Y45766D02*
X62532Y45766D01*
X62532Y45823D02*
X56608Y45823D01*
X56608Y45880D02*
X62532Y45880D01*
X62532Y45937D02*
X56608Y45937D01*
X56608Y45994D02*
X62532Y45994D01*
X62532Y46051D02*
X56608Y46051D01*
X56608Y46108D02*
X62532Y46108D01*
X62532Y46165D02*
X56608Y46165D01*
X56608Y46222D02*
X62532Y46222D01*
X62532Y46279D02*
X56608Y46279D01*
X56608Y46336D02*
X62532Y46336D01*
X77532Y46352D02*
X77532Y32428D01*
X71608Y32428D01*
X71608Y46352D01*
X77532Y46352D01*
X77532Y32485D02*
X71608Y32485D01*
X71608Y32542D02*
X77532Y32542D01*
X77532Y32599D02*
X71608Y32599D01*
X71608Y32656D02*
X77532Y32656D01*
X77532Y32713D02*
X71608Y32713D01*
X71608Y32770D02*
X77532Y32770D01*
X77532Y32827D02*
X71608Y32827D01*
X71608Y32884D02*
X77532Y32884D01*
X77532Y32941D02*
X71608Y32941D01*
X71608Y32998D02*
X77532Y32998D01*
X77532Y33055D02*
X71608Y33055D01*
X71608Y33112D02*
X77532Y33112D01*
X77532Y33169D02*
X71608Y33169D01*
X71608Y33226D02*
X77532Y33226D01*
X77532Y33283D02*
X71608Y33283D01*
X71608Y33340D02*
X77532Y33340D01*
X77532Y33397D02*
X71608Y33397D01*
X71608Y33454D02*
X77532Y33454D01*
X77532Y33511D02*
X71608Y33511D01*
X71608Y33568D02*
X77532Y33568D01*
X77532Y33625D02*
X71608Y33625D01*
X71608Y33682D02*
X77532Y33682D01*
X77532Y33739D02*
X71608Y33739D01*
X71608Y33796D02*
X77532Y33796D01*
X77532Y33853D02*
X71608Y33853D01*
X71608Y33910D02*
X77532Y33910D01*
X77532Y33967D02*
X71608Y33967D01*
X71608Y34024D02*
X77532Y34024D01*
X77532Y34081D02*
X71608Y34081D01*
X71608Y34138D02*
X77532Y34138D01*
X77532Y34195D02*
X71608Y34195D01*
X71608Y34252D02*
X77532Y34252D01*
X77532Y34309D02*
X71608Y34309D01*
X71608Y34366D02*
X77532Y34366D01*
X77532Y34423D02*
X71608Y34423D01*
X71608Y34480D02*
X77532Y34480D01*
X77532Y34537D02*
X71608Y34537D01*
X71608Y34594D02*
X77532Y34594D01*
X77532Y34651D02*
X71608Y34651D01*
X71608Y34708D02*
X77532Y34708D01*
X77532Y34765D02*
X71608Y34765D01*
X71608Y34822D02*
X77532Y34822D01*
X77532Y34879D02*
X71608Y34879D01*
X71608Y34936D02*
X77532Y34936D01*
X77532Y34993D02*
X71608Y34993D01*
X71608Y35050D02*
X77532Y35050D01*
X77532Y35107D02*
X71608Y35107D01*
X71608Y35164D02*
X77532Y35164D01*
X77532Y35221D02*
X71608Y35221D01*
X71608Y35278D02*
X77532Y35278D01*
X77532Y35335D02*
X71608Y35335D01*
X71608Y35392D02*
X77532Y35392D01*
X77532Y35449D02*
X71608Y35449D01*
X71608Y35506D02*
X77532Y35506D01*
X77532Y35563D02*
X71608Y35563D01*
X71608Y35620D02*
X77532Y35620D01*
X77532Y35677D02*
X71608Y35677D01*
X71608Y35734D02*
X77532Y35734D01*
X77532Y35791D02*
X71608Y35791D01*
X71608Y35848D02*
X77532Y35848D01*
X77532Y35905D02*
X71608Y35905D01*
X71608Y35962D02*
X77532Y35962D01*
X77532Y36019D02*
X71608Y36019D01*
X71608Y36076D02*
X77532Y36076D01*
X77532Y36133D02*
X71608Y36133D01*
X71608Y36190D02*
X77532Y36190D01*
X77532Y36247D02*
X71608Y36247D01*
X71608Y36304D02*
X77532Y36304D01*
X77532Y36361D02*
X71608Y36361D01*
X71608Y36418D02*
X77532Y36418D01*
X77532Y36475D02*
X71608Y36475D01*
X71608Y36532D02*
X77532Y36532D01*
X77532Y36589D02*
X71608Y36589D01*
X71608Y36646D02*
X77532Y36646D01*
X77532Y36703D02*
X71608Y36703D01*
X71608Y36760D02*
X77532Y36760D01*
X77532Y36817D02*
X71608Y36817D01*
X71608Y36874D02*
X77532Y36874D01*
X77532Y36931D02*
X71608Y36931D01*
X71608Y36988D02*
X77532Y36988D01*
X77532Y37045D02*
X71608Y37045D01*
X71608Y37102D02*
X77532Y37102D01*
X77532Y37159D02*
X71608Y37159D01*
X71608Y37216D02*
X77532Y37216D01*
X77532Y37273D02*
X71608Y37273D01*
X71608Y37330D02*
X77532Y37330D01*
X77532Y37387D02*
X71608Y37387D01*
X71608Y37444D02*
X77532Y37444D01*
X77532Y37501D02*
X71608Y37501D01*
X71608Y37558D02*
X77532Y37558D01*
X77532Y37615D02*
X71608Y37615D01*
X71608Y37672D02*
X77532Y37672D01*
X77532Y37729D02*
X71608Y37729D01*
X71608Y37786D02*
X77532Y37786D01*
X77532Y37843D02*
X71608Y37843D01*
X71608Y37900D02*
X77532Y37900D01*
X77532Y37957D02*
X71608Y37957D01*
X71608Y38014D02*
X77532Y38014D01*
X77532Y38071D02*
X71608Y38071D01*
X71608Y38128D02*
X77532Y38128D01*
X77532Y38185D02*
X71608Y38185D01*
X71608Y38242D02*
X77532Y38242D01*
X77532Y38299D02*
X71608Y38299D01*
X71608Y38356D02*
X77532Y38356D01*
X77532Y38413D02*
X71608Y38413D01*
X71608Y38470D02*
X77532Y38470D01*
X77532Y38527D02*
X71608Y38527D01*
X71608Y38584D02*
X77532Y38584D01*
X77532Y38641D02*
X71608Y38641D01*
X71608Y38698D02*
X77532Y38698D01*
X77532Y38755D02*
X71608Y38755D01*
X71608Y38812D02*
X77532Y38812D01*
X77532Y38869D02*
X71608Y38869D01*
X71608Y38926D02*
X77532Y38926D01*
X77532Y38983D02*
X71608Y38983D01*
X71608Y39040D02*
X77532Y39040D01*
X77532Y39097D02*
X71608Y39097D01*
X71608Y39154D02*
X77532Y39154D01*
X77532Y39211D02*
X71608Y39211D01*
X71608Y39268D02*
X77532Y39268D01*
X77532Y39325D02*
X71608Y39325D01*
X71608Y39382D02*
X77532Y39382D01*
X77532Y39439D02*
X71608Y39439D01*
X71608Y39496D02*
X77532Y39496D01*
X77532Y39553D02*
X71608Y39553D01*
X71608Y39610D02*
X77532Y39610D01*
X77532Y39667D02*
X71608Y39667D01*
X71608Y39724D02*
X77532Y39724D01*
X77532Y39781D02*
X71608Y39781D01*
X71608Y39838D02*
X77532Y39838D01*
X77532Y39895D02*
X71608Y39895D01*
X71608Y39952D02*
X77532Y39952D01*
X77532Y40009D02*
X71608Y40009D01*
X71608Y40066D02*
X77532Y40066D01*
X77532Y40123D02*
X71608Y40123D01*
X71608Y40180D02*
X77532Y40180D01*
X77532Y40237D02*
X71608Y40237D01*
X71608Y40294D02*
X77532Y40294D01*
X77532Y40351D02*
X71608Y40351D01*
X71608Y40408D02*
X77532Y40408D01*
X77532Y40465D02*
X71608Y40465D01*
X71608Y40522D02*
X77532Y40522D01*
X77532Y40579D02*
X71608Y40579D01*
X71608Y40636D02*
X77532Y40636D01*
X77532Y40693D02*
X71608Y40693D01*
X71608Y40750D02*
X77532Y40750D01*
X77532Y40807D02*
X71608Y40807D01*
X71608Y40864D02*
X77532Y40864D01*
X77532Y40921D02*
X71608Y40921D01*
X71608Y40978D02*
X77532Y40978D01*
X77532Y41035D02*
X71608Y41035D01*
X71608Y41092D02*
X77532Y41092D01*
X77532Y41149D02*
X71608Y41149D01*
X71608Y41206D02*
X77532Y41206D01*
X77532Y41263D02*
X71608Y41263D01*
X71608Y41320D02*
X77532Y41320D01*
X77532Y41377D02*
X71608Y41377D01*
X71608Y41434D02*
X77532Y41434D01*
X77532Y41491D02*
X71608Y41491D01*
X71608Y41548D02*
X77532Y41548D01*
X77532Y41605D02*
X71608Y41605D01*
X71608Y41662D02*
X77532Y41662D01*
X77532Y41719D02*
X71608Y41719D01*
X71608Y41776D02*
X77532Y41776D01*
X77532Y41833D02*
X71608Y41833D01*
X71608Y41890D02*
X77532Y41890D01*
X77532Y41947D02*
X71608Y41947D01*
X71608Y42004D02*
X77532Y42004D01*
X77532Y42061D02*
X71608Y42061D01*
X71608Y42118D02*
X77532Y42118D01*
X77532Y42175D02*
X71608Y42175D01*
X71608Y42232D02*
X77532Y42232D01*
X77532Y42289D02*
X71608Y42289D01*
X71608Y42346D02*
X77532Y42346D01*
X77532Y42403D02*
X71608Y42403D01*
X71608Y42460D02*
X77532Y42460D01*
X77532Y42517D02*
X71608Y42517D01*
X71608Y42574D02*
X77532Y42574D01*
X77532Y42631D02*
X71608Y42631D01*
X71608Y42688D02*
X77532Y42688D01*
X77532Y42745D02*
X71608Y42745D01*
X71608Y42802D02*
X77532Y42802D01*
X77532Y42859D02*
X71608Y42859D01*
X71608Y42916D02*
X77532Y42916D01*
X77532Y42973D02*
X71608Y42973D01*
X71608Y43030D02*
X77532Y43030D01*
X77532Y43087D02*
X71608Y43087D01*
X71608Y43144D02*
X77532Y43144D01*
X77532Y43201D02*
X71608Y43201D01*
X71608Y43258D02*
X77532Y43258D01*
X77532Y43315D02*
X71608Y43315D01*
X71608Y43372D02*
X77532Y43372D01*
X77532Y43429D02*
X71608Y43429D01*
X71608Y43486D02*
X77532Y43486D01*
X77532Y43543D02*
X71608Y43543D01*
X71608Y43600D02*
X77532Y43600D01*
X77532Y43657D02*
X71608Y43657D01*
X71608Y43714D02*
X77532Y43714D01*
X77532Y43771D02*
X71608Y43771D01*
X71608Y43828D02*
X77532Y43828D01*
X77532Y43885D02*
X71608Y43885D01*
X71608Y43942D02*
X77532Y43942D01*
X77532Y43999D02*
X71608Y43999D01*
X71608Y44056D02*
X77532Y44056D01*
X77532Y44113D02*
X71608Y44113D01*
X71608Y44170D02*
X77532Y44170D01*
X77532Y44227D02*
X71608Y44227D01*
X71608Y44284D02*
X77532Y44284D01*
X77532Y44341D02*
X71608Y44341D01*
X71608Y44398D02*
X77532Y44398D01*
X77532Y44455D02*
X71608Y44455D01*
X71608Y44512D02*
X77532Y44512D01*
X77532Y44569D02*
X71608Y44569D01*
X71608Y44626D02*
X77532Y44626D01*
X77532Y44683D02*
X71608Y44683D01*
X71608Y44740D02*
X77532Y44740D01*
X77532Y44797D02*
X71608Y44797D01*
X71608Y44854D02*
X77532Y44854D01*
X77532Y44911D02*
X71608Y44911D01*
X71608Y44968D02*
X77532Y44968D01*
X77532Y45025D02*
X71608Y45025D01*
X71608Y45082D02*
X77532Y45082D01*
X77532Y45139D02*
X71608Y45139D01*
X71608Y45196D02*
X77532Y45196D01*
X77532Y45253D02*
X71608Y45253D01*
X71608Y45310D02*
X77532Y45310D01*
X77532Y45367D02*
X71608Y45367D01*
X71608Y45424D02*
X77532Y45424D01*
X77532Y45481D02*
X71608Y45481D01*
X71608Y45538D02*
X77532Y45538D01*
X77532Y45595D02*
X71608Y45595D01*
X71608Y45652D02*
X77532Y45652D01*
X77532Y45709D02*
X71608Y45709D01*
X71608Y45766D02*
X77532Y45766D01*
X77532Y45823D02*
X71608Y45823D01*
X71608Y45880D02*
X77532Y45880D01*
X77532Y45937D02*
X71608Y45937D01*
X71608Y45994D02*
X77532Y45994D01*
X77532Y46051D02*
X71608Y46051D01*
X71608Y46108D02*
X77532Y46108D01*
X77532Y46165D02*
X71608Y46165D01*
X71608Y46222D02*
X77532Y46222D01*
X77532Y46279D02*
X71608Y46279D01*
X71608Y46336D02*
X77532Y46336D01*
D15*
X15570Y32390D03*
X15570Y11390D03*
X88570Y11390D03*
X88570Y32390D03*
D16*
X156210Y181006D03*
X168910Y181006D03*
X181610Y181006D03*
X194310Y181006D03*
X194310Y230474D03*
X181610Y230474D03*
X168910Y230474D03*
X156210Y230474D03*
M02*
