G04 EAGLE Gerber RS-274X export*
G75*
%MOMM*%
%FSLAX34Y34*%
%LPD*%
%INSoldermask Top*%
%IPPOS*%
%AMOC8*
5,1,8,0,0,1.08239X$1,22.5*%
G01*
%ADD10C,0.238272*%
%ADD11C,0.171600*%
%ADD12C,0.221272*%
%ADD13C,0.255238*%
%ADD14C,0.177100*%
%ADD15C,0.990000*%
%ADD16C,0.184800*%
%ADD17C,0.156503*%
%ADD18R,2.133600X2.133600*%
%ADD19C,2.133600*%
%ADD20C,1.981200*%
%ADD21C,1.863600*%


D10*
X127373Y144477D02*
X139007Y144477D01*
X139007Y129843D01*
X127373Y129843D01*
X127373Y144477D01*
X127373Y132107D02*
X139007Y132107D01*
X139007Y134371D02*
X127373Y134371D01*
X127373Y136635D02*
X139007Y136635D01*
X139007Y138899D02*
X127373Y138899D01*
X127373Y141163D02*
X139007Y141163D01*
X139007Y143427D02*
X127373Y143427D01*
X119007Y144477D02*
X107373Y144477D01*
X119007Y144477D02*
X119007Y129843D01*
X107373Y129843D01*
X107373Y144477D01*
X107373Y132107D02*
X119007Y132107D01*
X119007Y134371D02*
X107373Y134371D01*
X107373Y136635D02*
X119007Y136635D01*
X119007Y138899D02*
X107373Y138899D01*
X107373Y141163D02*
X119007Y141163D01*
X119007Y143427D02*
X107373Y143427D01*
X127373Y121617D02*
X139007Y121617D01*
X139007Y106983D01*
X127373Y106983D01*
X127373Y121617D01*
X127373Y109247D02*
X139007Y109247D01*
X139007Y111511D02*
X127373Y111511D01*
X127373Y113775D02*
X139007Y113775D01*
X139007Y116039D02*
X127373Y116039D01*
X127373Y118303D02*
X139007Y118303D01*
X139007Y120567D02*
X127373Y120567D01*
X119007Y121617D02*
X107373Y121617D01*
X119007Y121617D02*
X119007Y106983D01*
X107373Y106983D01*
X107373Y121617D01*
X107373Y109247D02*
X119007Y109247D01*
X119007Y111511D02*
X107373Y111511D01*
X107373Y113775D02*
X119007Y113775D01*
X119007Y116039D02*
X107373Y116039D01*
X107373Y118303D02*
X119007Y118303D01*
X119007Y120567D02*
X107373Y120567D01*
X38997Y108253D02*
X27363Y108253D01*
X27363Y122887D01*
X38997Y122887D01*
X38997Y108253D01*
X38997Y110517D02*
X27363Y110517D01*
X27363Y112781D02*
X38997Y112781D01*
X38997Y115045D02*
X27363Y115045D01*
X27363Y117309D02*
X38997Y117309D01*
X38997Y119573D02*
X27363Y119573D01*
X27363Y121837D02*
X38997Y121837D01*
X47363Y108253D02*
X58997Y108253D01*
X47363Y108253D02*
X47363Y122887D01*
X58997Y122887D01*
X58997Y108253D01*
X58997Y110517D02*
X47363Y110517D01*
X47363Y112781D02*
X58997Y112781D01*
X58997Y115045D02*
X47363Y115045D01*
X47363Y117309D02*
X58997Y117309D01*
X58997Y119573D02*
X47363Y119573D01*
X47363Y121837D02*
X58997Y121837D01*
D11*
X138508Y86183D02*
X152692Y86183D01*
X138508Y86183D02*
X138508Y91617D01*
X152692Y91617D01*
X152692Y86183D01*
X152692Y87813D02*
X138508Y87813D01*
X138508Y89443D02*
X152692Y89443D01*
X152692Y91073D02*
X138508Y91073D01*
X138508Y73483D02*
X152692Y73483D01*
X138508Y73483D02*
X138508Y78917D01*
X152692Y78917D01*
X152692Y73483D01*
X152692Y75113D02*
X138508Y75113D01*
X138508Y76743D02*
X152692Y76743D01*
X152692Y78373D02*
X138508Y78373D01*
X138508Y60783D02*
X152692Y60783D01*
X138508Y60783D02*
X138508Y66217D01*
X152692Y66217D01*
X152692Y60783D01*
X152692Y62413D02*
X138508Y62413D01*
X138508Y64043D02*
X152692Y64043D01*
X152692Y65673D02*
X138508Y65673D01*
X138508Y48083D02*
X152692Y48083D01*
X138508Y48083D02*
X138508Y53517D01*
X152692Y53517D01*
X152692Y48083D01*
X152692Y49713D02*
X138508Y49713D01*
X138508Y51343D02*
X152692Y51343D01*
X152692Y52973D02*
X138508Y52973D01*
X192748Y48083D02*
X206932Y48083D01*
X192748Y48083D02*
X192748Y53517D01*
X206932Y53517D01*
X206932Y48083D01*
X206932Y49713D02*
X192748Y49713D01*
X192748Y51343D02*
X206932Y51343D01*
X206932Y52973D02*
X192748Y52973D01*
X192748Y60783D02*
X206932Y60783D01*
X192748Y60783D02*
X192748Y66217D01*
X206932Y66217D01*
X206932Y60783D01*
X206932Y62413D02*
X192748Y62413D01*
X192748Y64043D02*
X206932Y64043D01*
X206932Y65673D02*
X192748Y65673D01*
X192748Y73483D02*
X206932Y73483D01*
X192748Y73483D02*
X192748Y78917D01*
X206932Y78917D01*
X206932Y73483D01*
X206932Y75113D02*
X192748Y75113D01*
X192748Y76743D02*
X206932Y76743D01*
X206932Y78373D02*
X192748Y78373D01*
X192748Y86183D02*
X206932Y86183D01*
X192748Y86183D02*
X192748Y91617D01*
X206932Y91617D01*
X206932Y86183D01*
X206932Y87813D02*
X192748Y87813D01*
X192748Y89443D02*
X206932Y89443D01*
X206932Y91073D02*
X192748Y91073D01*
D12*
X262942Y74222D02*
X262942Y63418D01*
X250138Y63418D01*
X250138Y74222D01*
X262942Y74222D01*
X262942Y65520D02*
X250138Y65520D01*
X250138Y67622D02*
X262942Y67622D01*
X262942Y69724D02*
X250138Y69724D01*
X250138Y71826D02*
X262942Y71826D01*
X262942Y73928D02*
X250138Y73928D01*
X262942Y93418D02*
X262942Y104222D01*
X262942Y93418D02*
X250138Y93418D01*
X250138Y104222D01*
X262942Y104222D01*
X262942Y95520D02*
X250138Y95520D01*
X250138Y97622D02*
X262942Y97622D01*
X262942Y99724D02*
X250138Y99724D01*
X250138Y101826D02*
X262942Y101826D01*
X262942Y103928D02*
X250138Y103928D01*
D13*
X234532Y26058D02*
X220068Y26058D01*
X220068Y42522D01*
X234532Y42522D01*
X234532Y26058D01*
X234532Y28482D02*
X220068Y28482D01*
X220068Y30906D02*
X234532Y30906D01*
X234532Y33330D02*
X220068Y33330D01*
X220068Y35754D02*
X234532Y35754D01*
X234532Y38178D02*
X220068Y38178D01*
X220068Y40602D02*
X234532Y40602D01*
X248068Y26058D02*
X262532Y26058D01*
X248068Y26058D02*
X248068Y42522D01*
X262532Y42522D01*
X262532Y26058D01*
X262532Y28482D02*
X248068Y28482D01*
X248068Y30906D02*
X262532Y30906D01*
X262532Y33330D02*
X248068Y33330D01*
X248068Y35754D02*
X262532Y35754D01*
X262532Y38178D02*
X248068Y38178D01*
X248068Y40602D02*
X262532Y40602D01*
D14*
X32535Y46355D02*
X32535Y32425D01*
X26605Y32425D01*
X26605Y46355D01*
X32535Y46355D01*
X32535Y34107D02*
X26605Y34107D01*
X26605Y35789D02*
X32535Y35789D01*
X32535Y37471D02*
X26605Y37471D01*
X26605Y39153D02*
X32535Y39153D01*
X32535Y40835D02*
X26605Y40835D01*
X26605Y42517D02*
X32535Y42517D01*
X32535Y44199D02*
X26605Y44199D01*
X26605Y45881D02*
X32535Y45881D01*
X62535Y46355D02*
X62535Y32425D01*
X56605Y32425D01*
X56605Y46355D01*
X62535Y46355D01*
X62535Y34107D02*
X56605Y34107D01*
X56605Y35789D02*
X62535Y35789D01*
X62535Y37471D02*
X56605Y37471D01*
X56605Y39153D02*
X62535Y39153D01*
X62535Y40835D02*
X56605Y40835D01*
X56605Y42517D02*
X62535Y42517D01*
X62535Y44199D02*
X56605Y44199D01*
X56605Y45881D02*
X62535Y45881D01*
X77535Y46355D02*
X77535Y32425D01*
X71605Y32425D01*
X71605Y46355D01*
X77535Y46355D01*
X77535Y34107D02*
X71605Y34107D01*
X71605Y35789D02*
X77535Y35789D01*
X77535Y37471D02*
X71605Y37471D01*
X71605Y39153D02*
X77535Y39153D01*
X77535Y40835D02*
X71605Y40835D01*
X71605Y42517D02*
X77535Y42517D01*
X77535Y44199D02*
X71605Y44199D01*
X71605Y45881D02*
X77535Y45881D01*
D15*
X37070Y21890D03*
X67070Y21890D03*
D16*
X20046Y28914D02*
X11094Y28914D01*
X11094Y35866D01*
X20046Y35866D01*
X20046Y28914D01*
X20046Y30670D02*
X11094Y30670D01*
X11094Y32426D02*
X20046Y32426D01*
X20046Y34182D02*
X11094Y34182D01*
X11094Y7914D02*
X20046Y7914D01*
X11094Y7914D02*
X11094Y14866D01*
X20046Y14866D01*
X20046Y7914D01*
X20046Y9670D02*
X11094Y9670D01*
X11094Y11426D02*
X20046Y11426D01*
X20046Y13182D02*
X11094Y13182D01*
X84094Y7914D02*
X93046Y7914D01*
X84094Y7914D02*
X84094Y14866D01*
X93046Y14866D01*
X93046Y7914D01*
X93046Y9670D02*
X84094Y9670D01*
X84094Y11426D02*
X93046Y11426D01*
X93046Y13182D02*
X84094Y13182D01*
X84094Y28914D02*
X93046Y28914D01*
X84094Y28914D02*
X84094Y35866D01*
X93046Y35866D01*
X93046Y28914D01*
X93046Y30670D02*
X84094Y30670D01*
X84094Y32426D02*
X93046Y32426D01*
X93046Y34182D02*
X84094Y34182D01*
D17*
X158558Y171661D02*
X158558Y190351D01*
X158558Y171661D02*
X153862Y171661D01*
X153862Y190351D01*
X158558Y190351D01*
X158558Y173148D02*
X153862Y173148D01*
X153862Y174635D02*
X158558Y174635D01*
X158558Y176122D02*
X153862Y176122D01*
X153862Y177609D02*
X158558Y177609D01*
X158558Y179096D02*
X153862Y179096D01*
X153862Y180583D02*
X158558Y180583D01*
X158558Y182070D02*
X153862Y182070D01*
X153862Y183557D02*
X158558Y183557D01*
X158558Y185044D02*
X153862Y185044D01*
X153862Y186531D02*
X158558Y186531D01*
X158558Y188018D02*
X153862Y188018D01*
X153862Y189505D02*
X158558Y189505D01*
X171258Y190351D02*
X171258Y171661D01*
X166562Y171661D01*
X166562Y190351D01*
X171258Y190351D01*
X171258Y173148D02*
X166562Y173148D01*
X166562Y174635D02*
X171258Y174635D01*
X171258Y176122D02*
X166562Y176122D01*
X166562Y177609D02*
X171258Y177609D01*
X171258Y179096D02*
X166562Y179096D01*
X166562Y180583D02*
X171258Y180583D01*
X171258Y182070D02*
X166562Y182070D01*
X166562Y183557D02*
X171258Y183557D01*
X171258Y185044D02*
X166562Y185044D01*
X166562Y186531D02*
X171258Y186531D01*
X171258Y188018D02*
X166562Y188018D01*
X166562Y189505D02*
X171258Y189505D01*
X183958Y190351D02*
X183958Y171661D01*
X179262Y171661D01*
X179262Y190351D01*
X183958Y190351D01*
X183958Y173148D02*
X179262Y173148D01*
X179262Y174635D02*
X183958Y174635D01*
X183958Y176122D02*
X179262Y176122D01*
X179262Y177609D02*
X183958Y177609D01*
X183958Y179096D02*
X179262Y179096D01*
X179262Y180583D02*
X183958Y180583D01*
X183958Y182070D02*
X179262Y182070D01*
X179262Y183557D02*
X183958Y183557D01*
X183958Y185044D02*
X179262Y185044D01*
X179262Y186531D02*
X183958Y186531D01*
X183958Y188018D02*
X179262Y188018D01*
X179262Y189505D02*
X183958Y189505D01*
X196658Y190351D02*
X196658Y171661D01*
X191962Y171661D01*
X191962Y190351D01*
X196658Y190351D01*
X196658Y173148D02*
X191962Y173148D01*
X191962Y174635D02*
X196658Y174635D01*
X196658Y176122D02*
X191962Y176122D01*
X191962Y177609D02*
X196658Y177609D01*
X196658Y179096D02*
X191962Y179096D01*
X191962Y180583D02*
X196658Y180583D01*
X196658Y182070D02*
X191962Y182070D01*
X191962Y183557D02*
X196658Y183557D01*
X196658Y185044D02*
X191962Y185044D01*
X191962Y186531D02*
X196658Y186531D01*
X196658Y188018D02*
X191962Y188018D01*
X191962Y189505D02*
X196658Y189505D01*
X196658Y221129D02*
X196658Y239819D01*
X196658Y221129D02*
X191962Y221129D01*
X191962Y239819D01*
X196658Y239819D01*
X196658Y222616D02*
X191962Y222616D01*
X191962Y224103D02*
X196658Y224103D01*
X196658Y225590D02*
X191962Y225590D01*
X191962Y227077D02*
X196658Y227077D01*
X196658Y228564D02*
X191962Y228564D01*
X191962Y230051D02*
X196658Y230051D01*
X196658Y231538D02*
X191962Y231538D01*
X191962Y233025D02*
X196658Y233025D01*
X196658Y234512D02*
X191962Y234512D01*
X191962Y235999D02*
X196658Y235999D01*
X196658Y237486D02*
X191962Y237486D01*
X191962Y238973D02*
X196658Y238973D01*
X183958Y239819D02*
X183958Y221129D01*
X179262Y221129D01*
X179262Y239819D01*
X183958Y239819D01*
X183958Y222616D02*
X179262Y222616D01*
X179262Y224103D02*
X183958Y224103D01*
X183958Y225590D02*
X179262Y225590D01*
X179262Y227077D02*
X183958Y227077D01*
X183958Y228564D02*
X179262Y228564D01*
X179262Y230051D02*
X183958Y230051D01*
X183958Y231538D02*
X179262Y231538D01*
X179262Y233025D02*
X183958Y233025D01*
X183958Y234512D02*
X179262Y234512D01*
X179262Y235999D02*
X183958Y235999D01*
X183958Y237486D02*
X179262Y237486D01*
X179262Y238973D02*
X183958Y238973D01*
X171258Y239819D02*
X171258Y221129D01*
X166562Y221129D01*
X166562Y239819D01*
X171258Y239819D01*
X171258Y222616D02*
X166562Y222616D01*
X166562Y224103D02*
X171258Y224103D01*
X171258Y225590D02*
X166562Y225590D01*
X166562Y227077D02*
X171258Y227077D01*
X171258Y228564D02*
X166562Y228564D01*
X166562Y230051D02*
X171258Y230051D01*
X171258Y231538D02*
X166562Y231538D01*
X166562Y233025D02*
X171258Y233025D01*
X171258Y234512D02*
X166562Y234512D01*
X166562Y235999D02*
X171258Y235999D01*
X171258Y237486D02*
X166562Y237486D01*
X166562Y238973D02*
X171258Y238973D01*
X158558Y239819D02*
X158558Y221129D01*
X153862Y221129D01*
X153862Y239819D01*
X158558Y239819D01*
X158558Y222616D02*
X153862Y222616D01*
X153862Y224103D02*
X158558Y224103D01*
X158558Y225590D02*
X153862Y225590D01*
X153862Y227077D02*
X158558Y227077D01*
X158558Y228564D02*
X153862Y228564D01*
X153862Y230051D02*
X158558Y230051D01*
X158558Y231538D02*
X153862Y231538D01*
X153862Y233025D02*
X158558Y233025D01*
X158558Y234512D02*
X153862Y234512D01*
X153862Y235999D02*
X158558Y235999D01*
X158558Y237486D02*
X153862Y237486D01*
X153862Y238973D02*
X158558Y238973D01*
D18*
X43180Y217170D03*
D19*
X43180Y167170D03*
D20*
X43180Y289941D02*
X43180Y299339D01*
X68580Y299339D02*
X68580Y289941D01*
X93980Y289941D02*
X93980Y299339D01*
X119380Y299339D02*
X119380Y289941D01*
X144780Y289941D02*
X144780Y299339D01*
X170180Y299339D02*
X170180Y289941D01*
X195580Y289941D02*
X195580Y299339D01*
X220980Y299339D02*
X220980Y289941D01*
X246380Y289941D02*
X246380Y299339D01*
D21*
X241300Y152400D03*
M02*
